<?xml version="1.0" encoding="utf-8" standalone="no"?>
<!DOCTYPE svg PUBLIC "-//W3C//DTD SVG 1.1//EN"
  "http://www.w3.org/Graphics/SVG/1.1/DTD/svg11.dtd">
<!-- Created with matplotlib (http://matplotlib.org/) -->
<svg height="1512pt" version="1.1" viewBox="0 0 1512 1512" width="1512pt" xmlns="http://www.w3.org/2000/svg" xmlns:xlink="http://www.w3.org/1999/xlink">
 <defs>
  <style type="text/css">
*{stroke-linecap:butt;stroke-linejoin:round;}
  </style>
 </defs>
 <g id="figure_1">
  <g id="patch_1">
   <path d="M 0 1512 
L 1512 1512 
L 1512 0 
L 0 0 
z
" style="fill:#ffffff;"/>
  </g>
  <g id="axes_1">
   <g id="patch_2">
    <path d="M 189 1323 
L 1360.8 1323 
L 1360.8 181.44 
L 189 181.44 
z
" style="fill:#ffffff;"/>
   </g>
   <g id="matplotlib.axis_1">
    <g id="xtick_1">
     <g id="line2d_1">
      <defs>
       <path d="M 0 0 
L 0 3.5 
" id="mec1b35222c" style="stroke:#000000;stroke-width:0.8;"/>
      </defs>
      <g>
       <use style="stroke:#000000;stroke-width:0.8;" x="242.263636" xlink:href="#mec1b35222c" y="1323"/>
      </g>
     </g>
     <g id="text_1">
      <!-- 2019 -->
      <defs>
       <path d="M 19.1875 8.296875 
L 53.609375 8.296875 
L 53.609375 0 
L 7.328125 0 
L 7.328125 8.296875 
Q 12.9375 14.109375 22.625 23.890625 
Q 32.328125 33.6875 34.8125 36.53125 
Q 39.546875 41.84375 41.421875 45.53125 
Q 43.3125 49.21875 43.3125 52.78125 
Q 43.3125 58.59375 39.234375 62.25 
Q 35.15625 65.921875 28.609375 65.921875 
Q 23.96875 65.921875 18.8125 64.3125 
Q 13.671875 62.703125 7.8125 59.421875 
L 7.8125 69.390625 
Q 13.765625 71.78125 18.9375 73 
Q 24.125 74.21875 28.421875 74.21875 
Q 39.75 74.21875 46.484375 68.546875 
Q 53.21875 62.890625 53.21875 53.421875 
Q 53.21875 48.921875 51.53125 44.890625 
Q 49.859375 40.875 45.40625 35.40625 
Q 44.1875 33.984375 37.640625 27.21875 
Q 31.109375 20.453125 19.1875 8.296875 
z
" id="DejaVuSans-32"/>
       <path d="M 31.78125 66.40625 
Q 24.171875 66.40625 20.328125 58.90625 
Q 16.5 51.421875 16.5 36.375 
Q 16.5 21.390625 20.328125 13.890625 
Q 24.171875 6.390625 31.78125 6.390625 
Q 39.453125 6.390625 43.28125 13.890625 
Q 47.125 21.390625 47.125 36.375 
Q 47.125 51.421875 43.28125 58.90625 
Q 39.453125 66.40625 31.78125 66.40625 
z
M 31.78125 74.21875 
Q 44.046875 74.21875 50.515625 64.515625 
Q 56.984375 54.828125 56.984375 36.375 
Q 56.984375 17.96875 50.515625 8.265625 
Q 44.046875 -1.421875 31.78125 -1.421875 
Q 19.53125 -1.421875 13.0625 8.265625 
Q 6.59375 17.96875 6.59375 36.375 
Q 6.59375 54.828125 13.0625 64.515625 
Q 19.53125 74.21875 31.78125 74.21875 
z
" id="DejaVuSans-30"/>
       <path d="M 12.40625 8.296875 
L 28.515625 8.296875 
L 28.515625 63.921875 
L 10.984375 60.40625 
L 10.984375 69.390625 
L 28.421875 72.90625 
L 38.28125 72.90625 
L 38.28125 8.296875 
L 54.390625 8.296875 
L 54.390625 0 
L 12.40625 0 
z
" id="DejaVuSans-31"/>
       <path d="M 10.984375 1.515625 
L 10.984375 10.5 
Q 14.703125 8.734375 18.5 7.8125 
Q 22.3125 6.890625 25.984375 6.890625 
Q 35.75 6.890625 40.890625 13.453125 
Q 46.046875 20.015625 46.78125 33.40625 
Q 43.953125 29.203125 39.59375 26.953125 
Q 35.25 24.703125 29.984375 24.703125 
Q 19.046875 24.703125 12.671875 31.3125 
Q 6.296875 37.9375 6.296875 49.421875 
Q 6.296875 60.640625 12.9375 67.421875 
Q 19.578125 74.21875 30.609375 74.21875 
Q 43.265625 74.21875 49.921875 64.515625 
Q 56.59375 54.828125 56.59375 36.375 
Q 56.59375 19.140625 48.40625 8.859375 
Q 40.234375 -1.421875 26.421875 -1.421875 
Q 22.703125 -1.421875 18.890625 -0.6875 
Q 15.09375 0.046875 10.984375 1.515625 
z
M 30.609375 32.421875 
Q 37.25 32.421875 41.125 36.953125 
Q 45.015625 41.5 45.015625 49.421875 
Q 45.015625 57.28125 41.125 61.84375 
Q 37.25 66.40625 30.609375 66.40625 
Q 23.96875 66.40625 20.09375 61.84375 
Q 16.21875 57.28125 16.21875 49.421875 
Q 16.21875 41.5 20.09375 36.953125 
Q 23.96875 32.421875 30.609375 32.421875 
z
" id="DejaVuSans-39"/>
      </defs>
      <g transform="translate(216.813636 1345.196875)scale(0.2 -0.2)">
       <use xlink:href="#DejaVuSans-32"/>
       <use x="63.623047" xlink:href="#DejaVuSans-30"/>
       <use x="127.246094" xlink:href="#DejaVuSans-31"/>
       <use x="190.869141" xlink:href="#DejaVuSans-39"/>
      </g>
     </g>
    </g>
    <g id="xtick_2">
     <g id="line2d_2">
      <g>
       <use style="stroke:#000000;stroke-width:0.8;" x="339.106612" xlink:href="#mec1b35222c" y="1323"/>
      </g>
     </g>
     <g id="text_2">
      <!-- 2020 -->
      <g transform="translate(313.656612 1345.196875)scale(0.2 -0.2)">
       <use xlink:href="#DejaVuSans-32"/>
       <use x="63.623047" xlink:href="#DejaVuSans-30"/>
       <use x="127.246094" xlink:href="#DejaVuSans-32"/>
       <use x="190.869141" xlink:href="#DejaVuSans-30"/>
      </g>
     </g>
    </g>
    <g id="xtick_3">
     <g id="line2d_3">
      <g>
       <use style="stroke:#000000;stroke-width:0.8;" x="435.949587" xlink:href="#mec1b35222c" y="1323"/>
      </g>
     </g>
     <g id="text_3">
      <!-- 2021 -->
      <g transform="translate(410.499587 1345.196875)scale(0.2 -0.2)">
       <use xlink:href="#DejaVuSans-32"/>
       <use x="63.623047" xlink:href="#DejaVuSans-30"/>
       <use x="127.246094" xlink:href="#DejaVuSans-32"/>
       <use x="190.869141" xlink:href="#DejaVuSans-31"/>
      </g>
     </g>
    </g>
    <g id="xtick_4">
     <g id="line2d_4">
      <g>
       <use style="stroke:#000000;stroke-width:0.8;" x="532.792562" xlink:href="#mec1b35222c" y="1323"/>
      </g>
     </g>
     <g id="text_4">
      <!-- 2022 -->
      <g transform="translate(507.342562 1345.196875)scale(0.2 -0.2)">
       <use xlink:href="#DejaVuSans-32"/>
       <use x="63.623047" xlink:href="#DejaVuSans-30"/>
       <use x="127.246094" xlink:href="#DejaVuSans-32"/>
       <use x="190.869141" xlink:href="#DejaVuSans-32"/>
      </g>
     </g>
    </g>
    <g id="xtick_5">
     <g id="line2d_5">
      <g>
       <use style="stroke:#000000;stroke-width:0.8;" x="629.635537" xlink:href="#mec1b35222c" y="1323"/>
      </g>
     </g>
     <g id="text_5">
      <!-- 2023 -->
      <defs>
       <path d="M 40.578125 39.3125 
Q 47.65625 37.796875 51.625 33 
Q 55.609375 28.21875 55.609375 21.1875 
Q 55.609375 10.40625 48.1875 4.484375 
Q 40.765625 -1.421875 27.09375 -1.421875 
Q 22.515625 -1.421875 17.65625 -0.515625 
Q 12.796875 0.390625 7.625 2.203125 
L 7.625 11.71875 
Q 11.71875 9.328125 16.59375 8.109375 
Q 21.484375 6.890625 26.8125 6.890625 
Q 36.078125 6.890625 40.9375 10.546875 
Q 45.796875 14.203125 45.796875 21.1875 
Q 45.796875 27.640625 41.28125 31.265625 
Q 36.765625 34.90625 28.71875 34.90625 
L 20.21875 34.90625 
L 20.21875 43.015625 
L 29.109375 43.015625 
Q 36.375 43.015625 40.234375 45.921875 
Q 44.09375 48.828125 44.09375 54.296875 
Q 44.09375 59.90625 40.109375 62.90625 
Q 36.140625 65.921875 28.71875 65.921875 
Q 24.65625 65.921875 20.015625 65.03125 
Q 15.375 64.15625 9.8125 62.3125 
L 9.8125 71.09375 
Q 15.4375 72.65625 20.34375 73.4375 
Q 25.25 74.21875 29.59375 74.21875 
Q 40.828125 74.21875 47.359375 69.109375 
Q 53.90625 64.015625 53.90625 55.328125 
Q 53.90625 49.265625 50.4375 45.09375 
Q 46.96875 40.921875 40.578125 39.3125 
z
" id="DejaVuSans-33"/>
      </defs>
      <g transform="translate(604.185537 1345.196875)scale(0.2 -0.2)">
       <use xlink:href="#DejaVuSans-32"/>
       <use x="63.623047" xlink:href="#DejaVuSans-30"/>
       <use x="127.246094" xlink:href="#DejaVuSans-32"/>
       <use x="190.869141" xlink:href="#DejaVuSans-33"/>
      </g>
     </g>
    </g>
    <g id="xtick_6">
     <g id="line2d_6">
      <g>
       <use style="stroke:#000000;stroke-width:0.8;" x="726.478512" xlink:href="#mec1b35222c" y="1323"/>
      </g>
     </g>
     <g id="text_6">
      <!-- 2024 -->
      <defs>
       <path d="M 37.796875 64.3125 
L 12.890625 25.390625 
L 37.796875 25.390625 
z
M 35.203125 72.90625 
L 47.609375 72.90625 
L 47.609375 25.390625 
L 58.015625 25.390625 
L 58.015625 17.1875 
L 47.609375 17.1875 
L 47.609375 0 
L 37.796875 0 
L 37.796875 17.1875 
L 4.890625 17.1875 
L 4.890625 26.703125 
z
" id="DejaVuSans-34"/>
      </defs>
      <g transform="translate(701.028512 1345.196875)scale(0.2 -0.2)">
       <use xlink:href="#DejaVuSans-32"/>
       <use x="63.623047" xlink:href="#DejaVuSans-30"/>
       <use x="127.246094" xlink:href="#DejaVuSans-32"/>
       <use x="190.869141" xlink:href="#DejaVuSans-34"/>
      </g>
     </g>
    </g>
    <g id="xtick_7">
     <g id="line2d_7">
      <g>
       <use style="stroke:#000000;stroke-width:0.8;" x="823.321488" xlink:href="#mec1b35222c" y="1323"/>
      </g>
     </g>
     <g id="text_7">
      <!-- 2025 -->
      <defs>
       <path d="M 10.796875 72.90625 
L 49.515625 72.90625 
L 49.515625 64.59375 
L 19.828125 64.59375 
L 19.828125 46.734375 
Q 21.96875 47.46875 24.109375 47.828125 
Q 26.265625 48.1875 28.421875 48.1875 
Q 40.625 48.1875 47.75 41.5 
Q 54.890625 34.8125 54.890625 23.390625 
Q 54.890625 11.625 47.5625 5.09375 
Q 40.234375 -1.421875 26.90625 -1.421875 
Q 22.3125 -1.421875 17.546875 -0.640625 
Q 12.796875 0.140625 7.71875 1.703125 
L 7.71875 11.625 
Q 12.109375 9.234375 16.796875 8.0625 
Q 21.484375 6.890625 26.703125 6.890625 
Q 35.15625 6.890625 40.078125 11.328125 
Q 45.015625 15.765625 45.015625 23.390625 
Q 45.015625 31 40.078125 35.4375 
Q 35.15625 39.890625 26.703125 39.890625 
Q 22.75 39.890625 18.8125 39.015625 
Q 14.890625 38.140625 10.796875 36.28125 
z
" id="DejaVuSans-35"/>
      </defs>
      <g transform="translate(797.871488 1345.196875)scale(0.2 -0.2)">
       <use xlink:href="#DejaVuSans-32"/>
       <use x="63.623047" xlink:href="#DejaVuSans-30"/>
       <use x="127.246094" xlink:href="#DejaVuSans-32"/>
       <use x="190.869141" xlink:href="#DejaVuSans-35"/>
      </g>
     </g>
    </g>
    <g id="xtick_8">
     <g id="line2d_8">
      <g>
       <use style="stroke:#000000;stroke-width:0.8;" x="920.164463" xlink:href="#mec1b35222c" y="1323"/>
      </g>
     </g>
     <g id="text_8">
      <!-- 2026 -->
      <defs>
       <path d="M 33.015625 40.375 
Q 26.375 40.375 22.484375 35.828125 
Q 18.609375 31.296875 18.609375 23.390625 
Q 18.609375 15.53125 22.484375 10.953125 
Q 26.375 6.390625 33.015625 6.390625 
Q 39.65625 6.390625 43.53125 10.953125 
Q 47.40625 15.53125 47.40625 23.390625 
Q 47.40625 31.296875 43.53125 35.828125 
Q 39.65625 40.375 33.015625 40.375 
z
M 52.59375 71.296875 
L 52.59375 62.3125 
Q 48.875 64.0625 45.09375 64.984375 
Q 41.3125 65.921875 37.59375 65.921875 
Q 27.828125 65.921875 22.671875 59.328125 
Q 17.53125 52.734375 16.796875 39.40625 
Q 19.671875 43.65625 24.015625 45.921875 
Q 28.375 48.1875 33.59375 48.1875 
Q 44.578125 48.1875 50.953125 41.515625 
Q 57.328125 34.859375 57.328125 23.390625 
Q 57.328125 12.15625 50.6875 5.359375 
Q 44.046875 -1.421875 33.015625 -1.421875 
Q 20.359375 -1.421875 13.671875 8.265625 
Q 6.984375 17.96875 6.984375 36.375 
Q 6.984375 53.65625 15.1875 63.9375 
Q 23.390625 74.21875 37.203125 74.21875 
Q 40.921875 74.21875 44.703125 73.484375 
Q 48.484375 72.75 52.59375 71.296875 
z
" id="DejaVuSans-36"/>
      </defs>
      <g transform="translate(894.714463 1345.196875)scale(0.2 -0.2)">
       <use xlink:href="#DejaVuSans-32"/>
       <use x="63.623047" xlink:href="#DejaVuSans-30"/>
       <use x="127.246094" xlink:href="#DejaVuSans-32"/>
       <use x="190.869141" xlink:href="#DejaVuSans-36"/>
      </g>
     </g>
    </g>
    <g id="xtick_9">
     <g id="line2d_9">
      <g>
       <use style="stroke:#000000;stroke-width:0.8;" x="1017.007438" xlink:href="#mec1b35222c" y="1323"/>
      </g>
     </g>
     <g id="text_9">
      <!-- 2027 -->
      <defs>
       <path d="M 8.203125 72.90625 
L 55.078125 72.90625 
L 55.078125 68.703125 
L 28.609375 0 
L 18.3125 0 
L 43.21875 64.59375 
L 8.203125 64.59375 
z
" id="DejaVuSans-37"/>
      </defs>
      <g transform="translate(991.557438 1345.196875)scale(0.2 -0.2)">
       <use xlink:href="#DejaVuSans-32"/>
       <use x="63.623047" xlink:href="#DejaVuSans-30"/>
       <use x="127.246094" xlink:href="#DejaVuSans-32"/>
       <use x="190.869141" xlink:href="#DejaVuSans-37"/>
      </g>
     </g>
    </g>
    <g id="xtick_10">
     <g id="line2d_10">
      <g>
       <use style="stroke:#000000;stroke-width:0.8;" x="1113.850413" xlink:href="#mec1b35222c" y="1323"/>
      </g>
     </g>
     <g id="text_10">
      <!-- 2028 -->
      <defs>
       <path d="M 31.78125 34.625 
Q 24.75 34.625 20.71875 30.859375 
Q 16.703125 27.09375 16.703125 20.515625 
Q 16.703125 13.921875 20.71875 10.15625 
Q 24.75 6.390625 31.78125 6.390625 
Q 38.8125 6.390625 42.859375 10.171875 
Q 46.921875 13.96875 46.921875 20.515625 
Q 46.921875 27.09375 42.890625 30.859375 
Q 38.875 34.625 31.78125 34.625 
z
M 21.921875 38.8125 
Q 15.578125 40.375 12.03125 44.71875 
Q 8.5 49.078125 8.5 55.328125 
Q 8.5 64.0625 14.71875 69.140625 
Q 20.953125 74.21875 31.78125 74.21875 
Q 42.671875 74.21875 48.875 69.140625 
Q 55.078125 64.0625 55.078125 55.328125 
Q 55.078125 49.078125 51.53125 44.71875 
Q 48 40.375 41.703125 38.8125 
Q 48.828125 37.15625 52.796875 32.3125 
Q 56.78125 27.484375 56.78125 20.515625 
Q 56.78125 9.90625 50.3125 4.234375 
Q 43.84375 -1.421875 31.78125 -1.421875 
Q 19.734375 -1.421875 13.25 4.234375 
Q 6.78125 9.90625 6.78125 20.515625 
Q 6.78125 27.484375 10.78125 32.3125 
Q 14.796875 37.15625 21.921875 38.8125 
z
M 18.3125 54.390625 
Q 18.3125 48.734375 21.84375 45.5625 
Q 25.390625 42.390625 31.78125 42.390625 
Q 38.140625 42.390625 41.71875 45.5625 
Q 45.3125 48.734375 45.3125 54.390625 
Q 45.3125 60.0625 41.71875 63.234375 
Q 38.140625 66.40625 31.78125 66.40625 
Q 25.390625 66.40625 21.84375 63.234375 
Q 18.3125 60.0625 18.3125 54.390625 
z
" id="DejaVuSans-38"/>
      </defs>
      <g transform="translate(1088.400413 1345.196875)scale(0.2 -0.2)">
       <use xlink:href="#DejaVuSans-32"/>
       <use x="63.623047" xlink:href="#DejaVuSans-30"/>
       <use x="127.246094" xlink:href="#DejaVuSans-32"/>
       <use x="190.869141" xlink:href="#DejaVuSans-38"/>
      </g>
     </g>
    </g>
    <g id="xtick_11">
     <g id="line2d_11">
      <g>
       <use style="stroke:#000000;stroke-width:0.8;" x="1210.693388" xlink:href="#mec1b35222c" y="1323"/>
      </g>
     </g>
     <g id="text_11">
      <!-- 2029 -->
      <g transform="translate(1185.243388 1345.196875)scale(0.2 -0.2)">
       <use xlink:href="#DejaVuSans-32"/>
       <use x="63.623047" xlink:href="#DejaVuSans-30"/>
       <use x="127.246094" xlink:href="#DejaVuSans-32"/>
       <use x="190.869141" xlink:href="#DejaVuSans-39"/>
      </g>
     </g>
    </g>
    <g id="xtick_12">
     <g id="line2d_12">
      <g>
       <use style="stroke:#000000;stroke-width:0.8;" x="1307.536364" xlink:href="#mec1b35222c" y="1323"/>
      </g>
     </g>
     <g id="text_12">
      <!-- 2030 -->
      <g transform="translate(1282.086364 1345.196875)scale(0.2 -0.2)">
       <use xlink:href="#DejaVuSans-32"/>
       <use x="63.623047" xlink:href="#DejaVuSans-30"/>
       <use x="127.246094" xlink:href="#DejaVuSans-33"/>
       <use x="190.869141" xlink:href="#DejaVuSans-30"/>
      </g>
     </g>
    </g>
    <g id="text_13">
     <!-- Years -->
     <defs>
      <path d="M -0.203125 72.90625 
L 10.40625 72.90625 
L 30.609375 42.921875 
L 50.6875 72.90625 
L 61.28125 72.90625 
L 35.5 34.71875 
L 35.5 0 
L 25.59375 0 
L 25.59375 34.71875 
z
" id="DejaVuSans-59"/>
      <path d="M 56.203125 29.59375 
L 56.203125 25.203125 
L 14.890625 25.203125 
Q 15.484375 15.921875 20.484375 11.0625 
Q 25.484375 6.203125 34.421875 6.203125 
Q 39.59375 6.203125 44.453125 7.46875 
Q 49.3125 8.734375 54.109375 11.28125 
L 54.109375 2.78125 
Q 49.265625 0.734375 44.1875 -0.34375 
Q 39.109375 -1.421875 33.890625 -1.421875 
Q 20.796875 -1.421875 13.15625 6.1875 
Q 5.515625 13.8125 5.515625 26.8125 
Q 5.515625 40.234375 12.765625 48.109375 
Q 20.015625 56 32.328125 56 
Q 43.359375 56 49.78125 48.890625 
Q 56.203125 41.796875 56.203125 29.59375 
z
M 47.21875 32.234375 
Q 47.125 39.59375 43.09375 43.984375 
Q 39.0625 48.390625 32.421875 48.390625 
Q 24.90625 48.390625 20.390625 44.140625 
Q 15.875 39.890625 15.1875 32.171875 
z
" id="DejaVuSans-65"/>
      <path d="M 34.28125 27.484375 
Q 23.390625 27.484375 19.1875 25 
Q 14.984375 22.515625 14.984375 16.5 
Q 14.984375 11.71875 18.140625 8.90625 
Q 21.296875 6.109375 26.703125 6.109375 
Q 34.1875 6.109375 38.703125 11.40625 
Q 43.21875 16.703125 43.21875 25.484375 
L 43.21875 27.484375 
z
M 52.203125 31.203125 
L 52.203125 0 
L 43.21875 0 
L 43.21875 8.296875 
Q 40.140625 3.328125 35.546875 0.953125 
Q 30.953125 -1.421875 24.3125 -1.421875 
Q 15.921875 -1.421875 10.953125 3.296875 
Q 6 8.015625 6 15.921875 
Q 6 25.140625 12.171875 29.828125 
Q 18.359375 34.515625 30.609375 34.515625 
L 43.21875 34.515625 
L 43.21875 35.40625 
Q 43.21875 41.609375 39.140625 45 
Q 35.0625 48.390625 27.6875 48.390625 
Q 23 48.390625 18.546875 47.265625 
Q 14.109375 46.140625 10.015625 43.890625 
L 10.015625 52.203125 
Q 14.9375 54.109375 19.578125 55.046875 
Q 24.21875 56 28.609375 56 
Q 40.484375 56 46.34375 49.84375 
Q 52.203125 43.703125 52.203125 31.203125 
z
" id="DejaVuSans-61"/>
      <path d="M 41.109375 46.296875 
Q 39.59375 47.171875 37.8125 47.578125 
Q 36.03125 48 33.890625 48 
Q 26.265625 48 22.1875 43.046875 
Q 18.109375 38.09375 18.109375 28.8125 
L 18.109375 0 
L 9.078125 0 
L 9.078125 54.6875 
L 18.109375 54.6875 
L 18.109375 46.1875 
Q 20.953125 51.171875 25.484375 53.578125 
Q 30.03125 56 36.53125 56 
Q 37.453125 56 38.578125 55.875 
Q 39.703125 55.765625 41.0625 55.515625 
z
" id="DejaVuSans-72"/>
      <path d="M 44.28125 53.078125 
L 44.28125 44.578125 
Q 40.484375 46.53125 36.375 47.5 
Q 32.28125 48.484375 27.875 48.484375 
Q 21.1875 48.484375 17.84375 46.4375 
Q 14.5 44.390625 14.5 40.28125 
Q 14.5 37.15625 16.890625 35.375 
Q 19.28125 33.59375 26.515625 31.984375 
L 29.59375 31.296875 
Q 39.15625 29.25 43.1875 25.515625 
Q 47.21875 21.78125 47.21875 15.09375 
Q 47.21875 7.46875 41.1875 3.015625 
Q 35.15625 -1.421875 24.609375 -1.421875 
Q 20.21875 -1.421875 15.453125 -0.5625 
Q 10.6875 0.296875 5.421875 2 
L 5.421875 11.28125 
Q 10.40625 8.6875 15.234375 7.390625 
Q 20.0625 6.109375 24.8125 6.109375 
Q 31.15625 6.109375 34.5625 8.28125 
Q 37.984375 10.453125 37.984375 14.40625 
Q 37.984375 18.0625 35.515625 20.015625 
Q 33.0625 21.96875 24.703125 23.78125 
L 21.578125 24.515625 
Q 13.234375 26.265625 9.515625 29.90625 
Q 5.8125 33.546875 5.8125 39.890625 
Q 5.8125 47.609375 11.28125 51.796875 
Q 16.75 56 26.8125 56 
Q 31.78125 56 36.171875 55.265625 
Q 40.578125 54.546875 44.28125 53.078125 
z
" id="DejaVuSans-73"/>
     </defs>
     <g transform="translate(747.210938 1368.553125)scale(0.2 -0.2)">
      <use xlink:href="#DejaVuSans-59"/>
      <use x="60.880859" xlink:href="#DejaVuSans-65"/>
      <use x="122.404297" xlink:href="#DejaVuSans-61"/>
      <use x="183.683594" xlink:href="#DejaVuSans-72"/>
      <use x="224.796875" xlink:href="#DejaVuSans-73"/>
     </g>
    </g>
   </g>
   <g id="matplotlib.axis_2">
    <g id="ytick_1">
     <g id="line2d_13">
      <defs>
       <path d="M 0 0 
L -3.5 0 
" id="mab2ccb87e6" style="stroke:#000000;stroke-width:0.8;"/>
      </defs>
      <g>
       <use style="stroke:#000000;stroke-width:0.8;" x="189" xlink:href="#mab2ccb87e6" y="1323"/>
      </g>
     </g>
     <g id="text_14">
      <!-- 0.0 -->
      <defs>
       <path d="M 10.6875 12.40625 
L 21 12.40625 
L 21 0 
L 10.6875 0 
z
" id="DejaVuSans-2e"/>
      </defs>
      <g transform="translate(150.19375 1330.598438)scale(0.2 -0.2)">
       <use xlink:href="#DejaVuSans-30"/>
       <use x="63.623047" xlink:href="#DejaVuSans-2e"/>
       <use x="95.410156" xlink:href="#DejaVuSans-30"/>
      </g>
     </g>
    </g>
    <g id="ytick_2">
     <g id="line2d_14">
      <g>
       <use style="stroke:#000000;stroke-width:0.8;" x="189" xlink:href="#mab2ccb87e6" y="1227.87"/>
      </g>
     </g>
     <g id="text_15">
      <!-- 10.0 -->
      <g transform="translate(137.46875 1235.468437)scale(0.2 -0.2)">
       <use xlink:href="#DejaVuSans-31"/>
       <use x="63.623047" xlink:href="#DejaVuSans-30"/>
       <use x="127.246094" xlink:href="#DejaVuSans-2e"/>
       <use x="159.033203" xlink:href="#DejaVuSans-30"/>
      </g>
     </g>
    </g>
    <g id="ytick_3">
     <g id="line2d_15">
      <g>
       <use style="stroke:#000000;stroke-width:0.8;" x="189" xlink:href="#mab2ccb87e6" y="1132.74"/>
      </g>
     </g>
     <g id="text_16">
      <!-- 20.0 -->
      <g transform="translate(137.46875 1140.338438)scale(0.2 -0.2)">
       <use xlink:href="#DejaVuSans-32"/>
       <use x="63.623047" xlink:href="#DejaVuSans-30"/>
       <use x="127.246094" xlink:href="#DejaVuSans-2e"/>
       <use x="159.033203" xlink:href="#DejaVuSans-30"/>
      </g>
     </g>
    </g>
    <g id="ytick_4">
     <g id="line2d_16">
      <g>
       <use style="stroke:#000000;stroke-width:0.8;" x="189" xlink:href="#mab2ccb87e6" y="1037.61"/>
      </g>
     </g>
     <g id="text_17">
      <!-- 30.0 -->
      <g transform="translate(137.46875 1045.208437)scale(0.2 -0.2)">
       <use xlink:href="#DejaVuSans-33"/>
       <use x="63.623047" xlink:href="#DejaVuSans-30"/>
       <use x="127.246094" xlink:href="#DejaVuSans-2e"/>
       <use x="159.033203" xlink:href="#DejaVuSans-30"/>
      </g>
     </g>
    </g>
    <g id="ytick_5">
     <g id="line2d_17">
      <g>
       <use style="stroke:#000000;stroke-width:0.8;" x="189" xlink:href="#mab2ccb87e6" y="942.48"/>
      </g>
     </g>
     <g id="text_18">
      <!-- 40.0 -->
      <g transform="translate(137.46875 950.078438)scale(0.2 -0.2)">
       <use xlink:href="#DejaVuSans-34"/>
       <use x="63.623047" xlink:href="#DejaVuSans-30"/>
       <use x="127.246094" xlink:href="#DejaVuSans-2e"/>
       <use x="159.033203" xlink:href="#DejaVuSans-30"/>
      </g>
     </g>
    </g>
    <g id="ytick_6">
     <g id="line2d_18">
      <g>
       <use style="stroke:#000000;stroke-width:0.8;" x="189" xlink:href="#mab2ccb87e6" y="847.35"/>
      </g>
     </g>
     <g id="text_19">
      <!-- 50.0 -->
      <g transform="translate(137.46875 854.948438)scale(0.2 -0.2)">
       <use xlink:href="#DejaVuSans-35"/>
       <use x="63.623047" xlink:href="#DejaVuSans-30"/>
       <use x="127.246094" xlink:href="#DejaVuSans-2e"/>
       <use x="159.033203" xlink:href="#DejaVuSans-30"/>
      </g>
     </g>
    </g>
    <g id="ytick_7">
     <g id="line2d_19">
      <g>
       <use style="stroke:#000000;stroke-width:0.8;" x="189" xlink:href="#mab2ccb87e6" y="752.22"/>
      </g>
     </g>
     <g id="text_20">
      <!-- 60.0 -->
      <g transform="translate(137.46875 759.818438)scale(0.2 -0.2)">
       <use xlink:href="#DejaVuSans-36"/>
       <use x="63.623047" xlink:href="#DejaVuSans-30"/>
       <use x="127.246094" xlink:href="#DejaVuSans-2e"/>
       <use x="159.033203" xlink:href="#DejaVuSans-30"/>
      </g>
     </g>
    </g>
    <g id="ytick_8">
     <g id="line2d_20">
      <g>
       <use style="stroke:#000000;stroke-width:0.8;" x="189" xlink:href="#mab2ccb87e6" y="657.09"/>
      </g>
     </g>
     <g id="text_21">
      <!-- 70.0 -->
      <g transform="translate(137.46875 664.688438)scale(0.2 -0.2)">
       <use xlink:href="#DejaVuSans-37"/>
       <use x="63.623047" xlink:href="#DejaVuSans-30"/>
       <use x="127.246094" xlink:href="#DejaVuSans-2e"/>
       <use x="159.033203" xlink:href="#DejaVuSans-30"/>
      </g>
     </g>
    </g>
    <g id="ytick_9">
     <g id="line2d_21">
      <g>
       <use style="stroke:#000000;stroke-width:0.8;" x="189" xlink:href="#mab2ccb87e6" y="561.96"/>
      </g>
     </g>
     <g id="text_22">
      <!-- 80.0 -->
      <g transform="translate(137.46875 569.558438)scale(0.2 -0.2)">
       <use xlink:href="#DejaVuSans-38"/>
       <use x="63.623047" xlink:href="#DejaVuSans-30"/>
       <use x="127.246094" xlink:href="#DejaVuSans-2e"/>
       <use x="159.033203" xlink:href="#DejaVuSans-30"/>
      </g>
     </g>
    </g>
    <g id="ytick_10">
     <g id="line2d_22">
      <g>
       <use style="stroke:#000000;stroke-width:0.8;" x="189" xlink:href="#mab2ccb87e6" y="466.83"/>
      </g>
     </g>
     <g id="text_23">
      <!-- 90.0 -->
      <g transform="translate(137.46875 474.428437)scale(0.2 -0.2)">
       <use xlink:href="#DejaVuSans-39"/>
       <use x="63.623047" xlink:href="#DejaVuSans-30"/>
       <use x="127.246094" xlink:href="#DejaVuSans-2e"/>
       <use x="159.033203" xlink:href="#DejaVuSans-30"/>
      </g>
     </g>
    </g>
    <g id="ytick_11">
     <g id="line2d_23">
      <g>
       <use style="stroke:#000000;stroke-width:0.8;" x="189" xlink:href="#mab2ccb87e6" y="371.7"/>
      </g>
     </g>
     <g id="text_24">
      <!-- 100.0 -->
      <g transform="translate(124.74375 379.298438)scale(0.2 -0.2)">
       <use xlink:href="#DejaVuSans-31"/>
       <use x="63.623047" xlink:href="#DejaVuSans-30"/>
       <use x="127.246094" xlink:href="#DejaVuSans-30"/>
       <use x="190.869141" xlink:href="#DejaVuSans-2e"/>
       <use x="222.65625" xlink:href="#DejaVuSans-30"/>
      </g>
     </g>
    </g>
    <g id="ytick_12">
     <g id="line2d_24">
      <g>
       <use style="stroke:#000000;stroke-width:0.8;" x="189" xlink:href="#mab2ccb87e6" y="276.57"/>
      </g>
     </g>
     <g id="text_25">
      <!-- 110.0 -->
      <g transform="translate(124.74375 284.168437)scale(0.2 -0.2)">
       <use xlink:href="#DejaVuSans-31"/>
       <use x="63.623047" xlink:href="#DejaVuSans-31"/>
       <use x="127.246094" xlink:href="#DejaVuSans-30"/>
       <use x="190.869141" xlink:href="#DejaVuSans-2e"/>
       <use x="222.65625" xlink:href="#DejaVuSans-30"/>
      </g>
     </g>
    </g>
    <g id="ytick_13">
     <g id="line2d_25">
      <g>
       <use style="stroke:#000000;stroke-width:0.8;" x="189" xlink:href="#mab2ccb87e6" y="181.44"/>
      </g>
     </g>
     <g id="text_26">
      <!-- 120.0 -->
      <g transform="translate(124.74375 189.038438)scale(0.2 -0.2)">
       <use xlink:href="#DejaVuSans-31"/>
       <use x="63.623047" xlink:href="#DejaVuSans-32"/>
       <use x="127.246094" xlink:href="#DejaVuSans-30"/>
       <use x="190.869141" xlink:href="#DejaVuSans-2e"/>
       <use x="222.65625" xlink:href="#DejaVuSans-30"/>
      </g>
     </g>
    </g>
    <g id="text_27">
     <!-- Population Number (in Hundreds) -->
     <defs>
      <path d="M 19.671875 64.796875 
L 19.671875 37.40625 
L 32.078125 37.40625 
Q 38.96875 37.40625 42.71875 40.96875 
Q 46.484375 44.53125 46.484375 51.125 
Q 46.484375 57.671875 42.71875 61.234375 
Q 38.96875 64.796875 32.078125 64.796875 
z
M 9.8125 72.90625 
L 32.078125 72.90625 
Q 44.34375 72.90625 50.609375 67.359375 
Q 56.890625 61.8125 56.890625 51.125 
Q 56.890625 40.328125 50.609375 34.8125 
Q 44.34375 29.296875 32.078125 29.296875 
L 19.671875 29.296875 
L 19.671875 0 
L 9.8125 0 
z
" id="DejaVuSans-50"/>
      <path d="M 30.609375 48.390625 
Q 23.390625 48.390625 19.1875 42.75 
Q 14.984375 37.109375 14.984375 27.296875 
Q 14.984375 17.484375 19.15625 11.84375 
Q 23.34375 6.203125 30.609375 6.203125 
Q 37.796875 6.203125 41.984375 11.859375 
Q 46.1875 17.53125 46.1875 27.296875 
Q 46.1875 37.015625 41.984375 42.703125 
Q 37.796875 48.390625 30.609375 48.390625 
z
M 30.609375 56 
Q 42.328125 56 49.015625 48.375 
Q 55.71875 40.765625 55.71875 27.296875 
Q 55.71875 13.875 49.015625 6.21875 
Q 42.328125 -1.421875 30.609375 -1.421875 
Q 18.84375 -1.421875 12.171875 6.21875 
Q 5.515625 13.875 5.515625 27.296875 
Q 5.515625 40.765625 12.171875 48.375 
Q 18.84375 56 30.609375 56 
z
" id="DejaVuSans-6f"/>
      <path d="M 18.109375 8.203125 
L 18.109375 -20.796875 
L 9.078125 -20.796875 
L 9.078125 54.6875 
L 18.109375 54.6875 
L 18.109375 46.390625 
Q 20.953125 51.265625 25.265625 53.625 
Q 29.59375 56 35.59375 56 
Q 45.5625 56 51.78125 48.09375 
Q 58.015625 40.1875 58.015625 27.296875 
Q 58.015625 14.40625 51.78125 6.484375 
Q 45.5625 -1.421875 35.59375 -1.421875 
Q 29.59375 -1.421875 25.265625 0.953125 
Q 20.953125 3.328125 18.109375 8.203125 
z
M 48.6875 27.296875 
Q 48.6875 37.203125 44.609375 42.84375 
Q 40.53125 48.484375 33.40625 48.484375 
Q 26.265625 48.484375 22.1875 42.84375 
Q 18.109375 37.203125 18.109375 27.296875 
Q 18.109375 17.390625 22.1875 11.75 
Q 26.265625 6.109375 33.40625 6.109375 
Q 40.53125 6.109375 44.609375 11.75 
Q 48.6875 17.390625 48.6875 27.296875 
z
" id="DejaVuSans-70"/>
      <path d="M 8.5 21.578125 
L 8.5 54.6875 
L 17.484375 54.6875 
L 17.484375 21.921875 
Q 17.484375 14.15625 20.5 10.265625 
Q 23.53125 6.390625 29.59375 6.390625 
Q 36.859375 6.390625 41.078125 11.03125 
Q 45.3125 15.671875 45.3125 23.6875 
L 45.3125 54.6875 
L 54.296875 54.6875 
L 54.296875 0 
L 45.3125 0 
L 45.3125 8.40625 
Q 42.046875 3.421875 37.71875 1 
Q 33.40625 -1.421875 27.6875 -1.421875 
Q 18.265625 -1.421875 13.375 4.4375 
Q 8.5 10.296875 8.5 21.578125 
z
M 31.109375 56 
z
" id="DejaVuSans-75"/>
      <path d="M 9.421875 75.984375 
L 18.40625 75.984375 
L 18.40625 0 
L 9.421875 0 
z
" id="DejaVuSans-6c"/>
      <path d="M 18.3125 70.21875 
L 18.3125 54.6875 
L 36.8125 54.6875 
L 36.8125 47.703125 
L 18.3125 47.703125 
L 18.3125 18.015625 
Q 18.3125 11.328125 20.140625 9.421875 
Q 21.96875 7.515625 27.59375 7.515625 
L 36.8125 7.515625 
L 36.8125 0 
L 27.59375 0 
Q 17.1875 0 13.234375 3.875 
Q 9.28125 7.765625 9.28125 18.015625 
L 9.28125 47.703125 
L 2.6875 47.703125 
L 2.6875 54.6875 
L 9.28125 54.6875 
L 9.28125 70.21875 
z
" id="DejaVuSans-74"/>
      <path d="M 9.421875 54.6875 
L 18.40625 54.6875 
L 18.40625 0 
L 9.421875 0 
z
M 9.421875 75.984375 
L 18.40625 75.984375 
L 18.40625 64.59375 
L 9.421875 64.59375 
z
" id="DejaVuSans-69"/>
      <path d="M 54.890625 33.015625 
L 54.890625 0 
L 45.90625 0 
L 45.90625 32.71875 
Q 45.90625 40.484375 42.875 44.328125 
Q 39.84375 48.1875 33.796875 48.1875 
Q 26.515625 48.1875 22.3125 43.546875 
Q 18.109375 38.921875 18.109375 30.90625 
L 18.109375 0 
L 9.078125 0 
L 9.078125 54.6875 
L 18.109375 54.6875 
L 18.109375 46.1875 
Q 21.34375 51.125 25.703125 53.5625 
Q 30.078125 56 35.796875 56 
Q 45.21875 56 50.046875 50.171875 
Q 54.890625 44.34375 54.890625 33.015625 
z
" id="DejaVuSans-6e"/>
      <path id="DejaVuSans-20"/>
      <path d="M 9.8125 72.90625 
L 23.09375 72.90625 
L 55.421875 11.921875 
L 55.421875 72.90625 
L 64.984375 72.90625 
L 64.984375 0 
L 51.703125 0 
L 19.390625 60.984375 
L 19.390625 0 
L 9.8125 0 
z
" id="DejaVuSans-4e"/>
      <path d="M 52 44.1875 
Q 55.375 50.25 60.0625 53.125 
Q 64.75 56 71.09375 56 
Q 79.640625 56 84.28125 50.015625 
Q 88.921875 44.046875 88.921875 33.015625 
L 88.921875 0 
L 79.890625 0 
L 79.890625 32.71875 
Q 79.890625 40.578125 77.09375 44.375 
Q 74.3125 48.1875 68.609375 48.1875 
Q 61.625 48.1875 57.5625 43.546875 
Q 53.515625 38.921875 53.515625 30.90625 
L 53.515625 0 
L 44.484375 0 
L 44.484375 32.71875 
Q 44.484375 40.625 41.703125 44.40625 
Q 38.921875 48.1875 33.109375 48.1875 
Q 26.21875 48.1875 22.15625 43.53125 
Q 18.109375 38.875 18.109375 30.90625 
L 18.109375 0 
L 9.078125 0 
L 9.078125 54.6875 
L 18.109375 54.6875 
L 18.109375 46.1875 
Q 21.1875 51.21875 25.484375 53.609375 
Q 29.78125 56 35.6875 56 
Q 41.65625 56 45.828125 52.96875 
Q 50 49.953125 52 44.1875 
z
" id="DejaVuSans-6d"/>
      <path d="M 48.6875 27.296875 
Q 48.6875 37.203125 44.609375 42.84375 
Q 40.53125 48.484375 33.40625 48.484375 
Q 26.265625 48.484375 22.1875 42.84375 
Q 18.109375 37.203125 18.109375 27.296875 
Q 18.109375 17.390625 22.1875 11.75 
Q 26.265625 6.109375 33.40625 6.109375 
Q 40.53125 6.109375 44.609375 11.75 
Q 48.6875 17.390625 48.6875 27.296875 
z
M 18.109375 46.390625 
Q 20.953125 51.265625 25.265625 53.625 
Q 29.59375 56 35.59375 56 
Q 45.5625 56 51.78125 48.09375 
Q 58.015625 40.1875 58.015625 27.296875 
Q 58.015625 14.40625 51.78125 6.484375 
Q 45.5625 -1.421875 35.59375 -1.421875 
Q 29.59375 -1.421875 25.265625 0.953125 
Q 20.953125 3.328125 18.109375 8.203125 
L 18.109375 0 
L 9.078125 0 
L 9.078125 75.984375 
L 18.109375 75.984375 
z
" id="DejaVuSans-62"/>
      <path d="M 31 75.875 
Q 24.46875 64.65625 21.28125 53.65625 
Q 18.109375 42.671875 18.109375 31.390625 
Q 18.109375 20.125 21.3125 9.0625 
Q 24.515625 -2 31 -13.1875 
L 23.1875 -13.1875 
Q 15.875 -1.703125 12.234375 9.375 
Q 8.59375 20.453125 8.59375 31.390625 
Q 8.59375 42.28125 12.203125 53.3125 
Q 15.828125 64.359375 23.1875 75.875 
z
" id="DejaVuSans-28"/>
      <path d="M 9.8125 72.90625 
L 19.671875 72.90625 
L 19.671875 43.015625 
L 55.515625 43.015625 
L 55.515625 72.90625 
L 65.375 72.90625 
L 65.375 0 
L 55.515625 0 
L 55.515625 34.71875 
L 19.671875 34.71875 
L 19.671875 0 
L 9.8125 0 
z
" id="DejaVuSans-48"/>
      <path d="M 45.40625 46.390625 
L 45.40625 75.984375 
L 54.390625 75.984375 
L 54.390625 0 
L 45.40625 0 
L 45.40625 8.203125 
Q 42.578125 3.328125 38.25 0.953125 
Q 33.9375 -1.421875 27.875 -1.421875 
Q 17.96875 -1.421875 11.734375 6.484375 
Q 5.515625 14.40625 5.515625 27.296875 
Q 5.515625 40.1875 11.734375 48.09375 
Q 17.96875 56 27.875 56 
Q 33.9375 56 38.25 53.625 
Q 42.578125 51.265625 45.40625 46.390625 
z
M 14.796875 27.296875 
Q 14.796875 17.390625 18.875 11.75 
Q 22.953125 6.109375 30.078125 6.109375 
Q 37.203125 6.109375 41.296875 11.75 
Q 45.40625 17.390625 45.40625 27.296875 
Q 45.40625 37.203125 41.296875 42.84375 
Q 37.203125 48.484375 30.078125 48.484375 
Q 22.953125 48.484375 18.875 42.84375 
Q 14.796875 37.203125 14.796875 27.296875 
z
" id="DejaVuSans-64"/>
      <path d="M 8.015625 75.875 
L 15.828125 75.875 
Q 23.140625 64.359375 26.78125 53.3125 
Q 30.421875 42.28125 30.421875 31.390625 
Q 30.421875 20.453125 26.78125 9.375 
Q 23.140625 -1.703125 15.828125 -13.1875 
L 8.015625 -13.1875 
Q 14.5 -2 17.703125 9.0625 
Q 20.90625 20.125 20.90625 31.390625 
Q 20.90625 42.671875 17.703125 53.65625 
Q 14.5 64.65625 8.015625 75.875 
z
" id="DejaVuSans-29"/>
     </defs>
     <g transform="translate(116.584375 920.098125)rotate(-90)scale(0.2 -0.2)">
      <use xlink:href="#DejaVuSans-50"/>
      <use x="60.255859" xlink:href="#DejaVuSans-6f"/>
      <use x="121.4375" xlink:href="#DejaVuSans-70"/>
      <use x="184.914062" xlink:href="#DejaVuSans-75"/>
      <use x="248.292969" xlink:href="#DejaVuSans-6c"/>
      <use x="276.076172" xlink:href="#DejaVuSans-61"/>
      <use x="337.355469" xlink:href="#DejaVuSans-74"/>
      <use x="376.564453" xlink:href="#DejaVuSans-69"/>
      <use x="404.347656" xlink:href="#DejaVuSans-6f"/>
      <use x="465.529297" xlink:href="#DejaVuSans-6e"/>
      <use x="528.908203" xlink:href="#DejaVuSans-20"/>
      <use x="560.695312" xlink:href="#DejaVuSans-4e"/>
      <use x="635.5" xlink:href="#DejaVuSans-75"/>
      <use x="698.878906" xlink:href="#DejaVuSans-6d"/>
      <use x="796.291016" xlink:href="#DejaVuSans-62"/>
      <use x="859.767578" xlink:href="#DejaVuSans-65"/>
      <use x="921.291016" xlink:href="#DejaVuSans-72"/>
      <use x="962.404297" xlink:href="#DejaVuSans-20"/>
      <use x="994.191406" xlink:href="#DejaVuSans-28"/>
      <use x="1033.205078" xlink:href="#DejaVuSans-69"/>
      <use x="1060.988281" xlink:href="#DejaVuSans-6e"/>
      <use x="1124.367188" xlink:href="#DejaVuSans-20"/>
      <use x="1156.154297" xlink:href="#DejaVuSans-48"/>
      <use x="1231.349609" xlink:href="#DejaVuSans-75"/>
      <use x="1294.728516" xlink:href="#DejaVuSans-6e"/>
      <use x="1358.107422" xlink:href="#DejaVuSans-64"/>
      <use x="1421.583984" xlink:href="#DejaVuSans-72"/>
      <use x="1462.666016" xlink:href="#DejaVuSans-65"/>
      <use x="1524.189453" xlink:href="#DejaVuSans-64"/>
      <use x="1587.666016" xlink:href="#DejaVuSans-73"/>
      <use x="1639.765625" xlink:href="#DejaVuSans-29"/>
     </g>
    </g>
   </g>
   <g id="LineCollection_1">
    <path clip-path="url(#pe4def0eb04)" d="M 242.263636 875.415901 
L 242.263636 860.798831 
" style="fill:none;stroke:#1f77b4;stroke-width:3;"/>
    <path clip-path="url(#pe4def0eb04)" d="M 339.106612 578.531303 
L 339.106612 561.655927 
" style="fill:none;stroke:#1f77b4;stroke-width:3;"/>
    <path clip-path="url(#pe4def0eb04)" d="M 435.949587 425.212243 
L 435.949587 413.070419 
" style="fill:none;stroke:#1f77b4;stroke-width:3;"/>
    <path clip-path="url(#pe4def0eb04)" d="M 532.792562 353.975026 
L 532.792562 340.45205 
" style="fill:none;stroke:#1f77b4;stroke-width:3;"/>
    <path clip-path="url(#pe4def0eb04)" d="M 629.635537 340.810699 
L 629.635537 321.652697 
" style="fill:none;stroke:#1f77b4;stroke-width:3;"/>
    <path clip-path="url(#pe4def0eb04)" d="M 726.478512 343.160938 
L 726.478512 325.771298 
" style="fill:none;stroke:#1f77b4;stroke-width:3;"/>
    <path clip-path="url(#pe4def0eb04)" d="M 823.321488 359.452343 
L 823.321488 339.236557 
" style="fill:none;stroke:#1f77b4;stroke-width:3;"/>
    <path clip-path="url(#pe4def0eb04)" d="M 920.164463 379.977415 
L 920.164463 361.310699 
" style="fill:none;stroke:#1f77b4;stroke-width:3;"/>
    <path clip-path="url(#pe4def0eb04)" d="M 1017.007438 396.168509 
L 1017.007438 376.931077 
" style="fill:none;stroke:#1f77b4;stroke-width:3;"/>
    <path clip-path="url(#pe4def0eb04)" d="M 1113.850413 411.097703 
L 1113.850413 388.581205 
" style="fill:none;stroke:#1f77b4;stroke-width:3;"/>
    <path clip-path="url(#pe4def0eb04)" d="M 1210.693388 429.859986 
L 1210.693388 407.090856 
" style="fill:none;stroke:#1f77b4;stroke-width:3;"/>
    <path clip-path="url(#pe4def0eb04)" d="M 1307.536364 446.44934 
L 1307.536364 428.80084 
" style="fill:none;stroke:#1f77b4;stroke-width:3;"/>
   </g>
   <g id="LineCollection_2">
    <path clip-path="url(#pe4def0eb04)" d="M 242.263636 1094.988304 
L 242.263636 1087.861778 
" style="fill:none;stroke:#2ca02c;stroke-width:3;"/>
    <path clip-path="url(#pe4def0eb04)" d="M 339.106612 954.328738 
L 339.106612 945.24323 
" style="fill:none;stroke:#2ca02c;stroke-width:3;"/>
    <path clip-path="url(#pe4def0eb04)" d="M 435.949587 876.549022 
L 435.949587 868.13228 
" style="fill:none;stroke:#2ca02c;stroke-width:3;"/>
    <path clip-path="url(#pe4def0eb04)" d="M 532.792562 840.815259 
L 532.792562 829.664643 
" style="fill:none;stroke:#2ca02c;stroke-width:3;"/>
    <path clip-path="url(#pe4def0eb04)" d="M 629.635537 827.978685 
L 629.635537 816.663909 
" style="fill:none;stroke:#2ca02c;stroke-width:3;"/>
    <path clip-path="url(#pe4def0eb04)" d="M 726.478512 834.750213 
L 726.478512 819.957135 
" style="fill:none;stroke:#2ca02c;stroke-width:3;"/>
    <path clip-path="url(#pe4def0eb04)" d="M 823.321488 838.848223 
L 823.321488 824.211539 
" style="fill:none;stroke:#2ca02c;stroke-width:3;"/>
    <path clip-path="url(#pe4def0eb04)" d="M 920.164463 850.334021 
L 920.164463 836.146747 
" style="fill:none;stroke:#2ca02c;stroke-width:3;"/>
    <path clip-path="url(#pe4def0eb04)" d="M 1017.007438 857.725144 
L 1017.007438 842.872916 
" style="fill:none;stroke:#2ca02c;stroke-width:3;"/>
    <path clip-path="url(#pe4def0eb04)" d="M 1113.850413 869.522604 
L 1113.850413 854.667696 
" style="fill:none;stroke:#2ca02c;stroke-width:3;"/>
    <path clip-path="url(#pe4def0eb04)" d="M 1210.693388 878.252986 
L 1210.693388 865.781432 
" style="fill:none;stroke:#2ca02c;stroke-width:3;"/>
    <path clip-path="url(#pe4def0eb04)" d="M 1307.536364 885.844648 
L 1307.536364 875.731742 
" style="fill:none;stroke:#2ca02c;stroke-width:3;"/>
   </g>
   <g id="LineCollection_3">
    <path clip-path="url(#pe4def0eb04)" d="M 242.263636 1211.988238 
L 242.263636 1205.033852 
" style="fill:none;stroke:#9467bd;stroke-width:3;"/>
    <path clip-path="url(#pe4def0eb04)" d="M 339.106612 1137.876212 
L 339.106612 1132.055872 
" style="fill:none;stroke:#9467bd;stroke-width:3;"/>
    <path clip-path="url(#pe4def0eb04)" d="M 435.949587 1101.275796 
L 435.949587 1093.427484 
" style="fill:none;stroke:#9467bd;stroke-width:3;"/>
    <path clip-path="url(#pe4def0eb04)" d="M 532.792562 1085.622246 
L 532.792562 1075.557222 
" style="fill:none;stroke:#9467bd;stroke-width:3;"/>
    <path clip-path="url(#pe4def0eb04)" d="M 629.635537 1078.73439 
L 629.635537 1067.909214 
" style="fill:none;stroke:#9467bd;stroke-width:3;"/>
    <path clip-path="url(#pe4def0eb04)" d="M 726.478512 1077.929825 
L 726.478512 1068.999169 
" style="fill:none;stroke:#9467bd;stroke-width:3;"/>
    <path clip-path="url(#pe4def0eb04)" d="M 823.321488 1082.952229 
L 823.321488 1073.984441 
" style="fill:none;stroke:#9467bd;stroke-width:3;"/>
    <path clip-path="url(#pe4def0eb04)" d="M 920.164463 1088.692038 
L 920.164463 1078.899192 
" style="fill:none;stroke:#9467bd;stroke-width:3;"/>
    <path clip-path="url(#pe4def0eb04)" d="M 1017.007438 1092.58347 
L 1017.007438 1085.243748 
" style="fill:none;stroke:#9467bd;stroke-width:3;"/>
    <path clip-path="url(#pe4def0eb04)" d="M 1113.850413 1094.718404 
L 1113.850413 1089.330316 
" style="fill:none;stroke:#9467bd;stroke-width:3;"/>
    <path clip-path="url(#pe4def0eb04)" d="M 1210.693388 1098.627162 
L 1210.693388 1091.662086 
" style="fill:none;stroke:#9467bd;stroke-width:3;"/>
    <path clip-path="url(#pe4def0eb04)" d="M 1307.536364 1104.586494 
L 1307.536364 1096.357314 
" style="fill:none;stroke:#9467bd;stroke-width:3;"/>
   </g>
   <g id="line2d_26">
    <defs>
     <path d="M 5 0 
L -5 -0 
" id="ma2dc484dab" style="stroke:#1f77b4;"/>
    </defs>
    <g clip-path="url(#pe4def0eb04)">
     <use style="fill:#1f77b4;stroke:#1f77b4;" x="242.263636" xlink:href="#ma2dc484dab" y="875.415901"/>
     <use style="fill:#1f77b4;stroke:#1f77b4;" x="339.106612" xlink:href="#ma2dc484dab" y="578.531303"/>
     <use style="fill:#1f77b4;stroke:#1f77b4;" x="435.949587" xlink:href="#ma2dc484dab" y="425.212243"/>
     <use style="fill:#1f77b4;stroke:#1f77b4;" x="532.792562" xlink:href="#ma2dc484dab" y="353.975026"/>
     <use style="fill:#1f77b4;stroke:#1f77b4;" x="629.635537" xlink:href="#ma2dc484dab" y="340.810699"/>
     <use style="fill:#1f77b4;stroke:#1f77b4;" x="726.478512" xlink:href="#ma2dc484dab" y="343.160938"/>
     <use style="fill:#1f77b4;stroke:#1f77b4;" x="823.321488" xlink:href="#ma2dc484dab" y="359.452343"/>
     <use style="fill:#1f77b4;stroke:#1f77b4;" x="920.164463" xlink:href="#ma2dc484dab" y="379.977415"/>
     <use style="fill:#1f77b4;stroke:#1f77b4;" x="1017.007438" xlink:href="#ma2dc484dab" y="396.168509"/>
     <use style="fill:#1f77b4;stroke:#1f77b4;" x="1113.850413" xlink:href="#ma2dc484dab" y="411.097703"/>
     <use style="fill:#1f77b4;stroke:#1f77b4;" x="1210.693388" xlink:href="#ma2dc484dab" y="429.859986"/>
     <use style="fill:#1f77b4;stroke:#1f77b4;" x="1307.536364" xlink:href="#ma2dc484dab" y="446.44934"/>
    </g>
   </g>
   <g id="line2d_27">
    <g clip-path="url(#pe4def0eb04)">
     <use style="fill:#1f77b4;stroke:#1f77b4;" x="242.263636" xlink:href="#ma2dc484dab" y="860.798831"/>
     <use style="fill:#1f77b4;stroke:#1f77b4;" x="339.106612" xlink:href="#ma2dc484dab" y="561.655927"/>
     <use style="fill:#1f77b4;stroke:#1f77b4;" x="435.949587" xlink:href="#ma2dc484dab" y="413.070419"/>
     <use style="fill:#1f77b4;stroke:#1f77b4;" x="532.792562" xlink:href="#ma2dc484dab" y="340.45205"/>
     <use style="fill:#1f77b4;stroke:#1f77b4;" x="629.635537" xlink:href="#ma2dc484dab" y="321.652697"/>
     <use style="fill:#1f77b4;stroke:#1f77b4;" x="726.478512" xlink:href="#ma2dc484dab" y="325.771298"/>
     <use style="fill:#1f77b4;stroke:#1f77b4;" x="823.321488" xlink:href="#ma2dc484dab" y="339.236557"/>
     <use style="fill:#1f77b4;stroke:#1f77b4;" x="920.164463" xlink:href="#ma2dc484dab" y="361.310699"/>
     <use style="fill:#1f77b4;stroke:#1f77b4;" x="1017.007438" xlink:href="#ma2dc484dab" y="376.931077"/>
     <use style="fill:#1f77b4;stroke:#1f77b4;" x="1113.850413" xlink:href="#ma2dc484dab" y="388.581205"/>
     <use style="fill:#1f77b4;stroke:#1f77b4;" x="1210.693388" xlink:href="#ma2dc484dab" y="407.090856"/>
     <use style="fill:#1f77b4;stroke:#1f77b4;" x="1307.536364" xlink:href="#ma2dc484dab" y="428.80084"/>
    </g>
   </g>
   <g id="line2d_28">
    <path clip-path="url(#pe4def0eb04)" d="M 242.263636 868.107366 
L 251.947934 829.362659 
L 261.632231 792.822956 
L 271.316529 758.406658 
L 281.000826 726.032166 
L 290.685124 695.617882 
L 300.369421 667.082207 
L 310.053719 640.343541 
L 319.738017 615.320286 
L 329.422314 591.930844 
L 339.106612 570.093615 
L 348.790909 549.727001 
L 358.475207 530.749402 
L 368.159504 513.079221 
L 377.843802 496.634858 
L 387.528099 481.334715 
L 397.212397 467.097192 
L 406.896694 453.840691 
L 416.580992 441.483613 
L 426.265289 429.944359 
L 435.949587 419.141331 
L 445.633884 409.006491 
L 455.318182 399.526051 
L 465.002479 390.699781 
L 474.686777 382.527454 
L 484.371074 375.008842 
L 494.055372 368.143718 
L 503.739669 361.931854 
L 513.423967 356.373021 
L 523.108264 351.466991 
L 532.792562 347.213538 
L 542.47686 343.603144 
L 552.161157 340.589137 
L 561.845455 338.115556 
L 571.529752 336.12644 
L 581.21405 334.565828 
L 590.898347 333.37776 
L 600.582645 332.506273 
L 610.266942 331.895408 
L 619.95124 331.489203 
L 629.635537 331.231698 
L 639.319835 331.076873 
L 649.004132 331.018481 
L 658.68843 331.060213 
L 668.372727 331.205765 
L 678.057025 331.45883 
L 687.741322 331.8231 
L 697.42562 332.302271 
L 707.109917 332.900035 
L 716.794215 333.620086 
L 726.478512 334.466118 
L 736.16281 335.4405 
L 745.847107 336.54031 
L 755.531405 337.761298 
L 765.215702 339.099218 
L 774.9 340.549823 
L 784.584298 342.108864 
L 794.268595 343.772095 
L 803.952893 345.535268 
L 813.63719 347.394136 
L 823.321488 349.34445 
L 833.005785 351.379665 
L 842.690083 353.484041 
L 852.37438 355.639537 
L 862.058678 357.828113 
L 871.742975 360.031731 
L 881.427273 362.232351 
L 891.11157 364.411933 
L 900.795868 366.552438 
L 910.480165 368.635826 
L 920.164463 370.644057 
L 929.84876 372.563018 
L 939.533058 374.394298 
L 949.217355 376.143411 
L 958.901653 377.815873 
L 968.58595 379.417198 
L 978.270248 380.952902 
L 987.954545 382.428498 
L 997.638843 383.849502 
L 1007.32314 385.221429 
L 1017.007438 386.549793 
L 1026.691736 387.841298 
L 1036.376033 389.107403 
L 1046.060331 390.360754 
L 1055.744628 391.613998 
L 1065.428926 392.879782 
L 1075.113223 394.170754 
L 1084.797521 395.49956 
L 1094.481818 396.878848 
L 1104.166116 398.321263 
L 1113.850413 399.839454 
L 1123.534711 401.442571 
L 1133.219008 403.125782 
L 1142.903306 404.880758 
L 1152.587603 406.699171 
L 1162.271901 408.572692 
L 1171.956198 410.492993 
L 1181.640496 412.451744 
L 1191.324793 414.440619 
L 1201.009091 416.451287 
L 1210.693388 418.475421 
L 1220.377686 420.504692 
L 1230.061983 422.530771 
L 1239.746281 424.545331 
L 1249.430579 426.540042 
L 1259.114876 428.506575 
L 1268.799174 430.436604 
L 1278.483471 432.321798 
L 1288.167769 434.153829 
L 1297.852066 435.924369 
" style="fill:none;stroke:#ff7f0e;stroke-linecap:square;stroke-width:4;"/>
   </g>
   <g id="line2d_29">
    <defs>
     <path d="M 5 0 
L -5 -0 
" id="m13466f018f" style="stroke:#2ca02c;"/>
    </defs>
    <g clip-path="url(#pe4def0eb04)">
     <use style="fill:#2ca02c;stroke:#2ca02c;" x="242.263636" xlink:href="#m13466f018f" y="1094.988304"/>
     <use style="fill:#2ca02c;stroke:#2ca02c;" x="339.106612" xlink:href="#m13466f018f" y="954.328738"/>
     <use style="fill:#2ca02c;stroke:#2ca02c;" x="435.949587" xlink:href="#m13466f018f" y="876.549022"/>
     <use style="fill:#2ca02c;stroke:#2ca02c;" x="532.792562" xlink:href="#m13466f018f" y="840.815259"/>
     <use style="fill:#2ca02c;stroke:#2ca02c;" x="629.635537" xlink:href="#m13466f018f" y="827.978685"/>
     <use style="fill:#2ca02c;stroke:#2ca02c;" x="726.478512" xlink:href="#m13466f018f" y="834.750213"/>
     <use style="fill:#2ca02c;stroke:#2ca02c;" x="823.321488" xlink:href="#m13466f018f" y="838.848223"/>
     <use style="fill:#2ca02c;stroke:#2ca02c;" x="920.164463" xlink:href="#m13466f018f" y="850.334021"/>
     <use style="fill:#2ca02c;stroke:#2ca02c;" x="1017.007438" xlink:href="#m13466f018f" y="857.725144"/>
     <use style="fill:#2ca02c;stroke:#2ca02c;" x="1113.850413" xlink:href="#m13466f018f" y="869.522604"/>
     <use style="fill:#2ca02c;stroke:#2ca02c;" x="1210.693388" xlink:href="#m13466f018f" y="878.252986"/>
     <use style="fill:#2ca02c;stroke:#2ca02c;" x="1307.536364" xlink:href="#m13466f018f" y="885.844648"/>
    </g>
   </g>
   <g id="line2d_30">
    <g clip-path="url(#pe4def0eb04)">
     <use style="fill:#2ca02c;stroke:#2ca02c;" x="242.263636" xlink:href="#m13466f018f" y="1087.861778"/>
     <use style="fill:#2ca02c;stroke:#2ca02c;" x="339.106612" xlink:href="#m13466f018f" y="945.24323"/>
     <use style="fill:#2ca02c;stroke:#2ca02c;" x="435.949587" xlink:href="#m13466f018f" y="868.13228"/>
     <use style="fill:#2ca02c;stroke:#2ca02c;" x="532.792562" xlink:href="#m13466f018f" y="829.664643"/>
     <use style="fill:#2ca02c;stroke:#2ca02c;" x="629.635537" xlink:href="#m13466f018f" y="816.663909"/>
     <use style="fill:#2ca02c;stroke:#2ca02c;" x="726.478512" xlink:href="#m13466f018f" y="819.957135"/>
     <use style="fill:#2ca02c;stroke:#2ca02c;" x="823.321488" xlink:href="#m13466f018f" y="824.211539"/>
     <use style="fill:#2ca02c;stroke:#2ca02c;" x="920.164463" xlink:href="#m13466f018f" y="836.146747"/>
     <use style="fill:#2ca02c;stroke:#2ca02c;" x="1017.007438" xlink:href="#m13466f018f" y="842.872916"/>
     <use style="fill:#2ca02c;stroke:#2ca02c;" x="1113.850413" xlink:href="#m13466f018f" y="854.667696"/>
     <use style="fill:#2ca02c;stroke:#2ca02c;" x="1210.693388" xlink:href="#m13466f018f" y="865.781432"/>
     <use style="fill:#2ca02c;stroke:#2ca02c;" x="1307.536364" xlink:href="#m13466f018f" y="875.731742"/>
    </g>
   </g>
   <g id="line2d_31">
    <path clip-path="url(#pe4def0eb04)" d="M 242.263636 1091.425041 
L 251.947934 1073.666321 
L 261.632231 1056.772516 
L 271.316529 1040.718851 
L 281.000826 1025.48055 
L 290.685124 1011.032839 
L 300.369421 997.350941 
L 310.053719 984.410083 
L 319.738017 972.185487 
L 329.422314 960.652379 
L 339.106612 949.785984 
L 348.790909 939.561526 
L 358.475207 929.95423 
L 368.159504 920.939321 
L 377.843802 912.492022 
L 387.528099 904.58756 
L 397.212397 897.201158 
L 406.896694 890.308042 
L 416.580992 883.883436 
L 426.265289 877.902564 
L 435.949587 872.340651 
L 445.633884 867.173849 
L 455.318182 862.382012 
L 465.002479 857.945924 
L 474.686777 853.846366 
L 484.371074 850.06412 
L 494.055372 846.579969 
L 503.739669 843.374694 
L 513.423967 840.429078 
L 523.108264 837.723903 
L 532.792562 835.239951 
L 542.47686 832.961985 
L 552.161157 830.890696 
L 561.845455 829.030754 
L 571.529752 827.386832 
L 581.21405 825.9636 
L 590.898347 824.76573 
L 600.582645 823.797893 
L 610.266942 823.064761 
L 619.95124 822.571005 
L 629.635537 822.321297 
L 639.319835 822.313387 
L 649.004132 822.517341 
L 658.68843 822.896307 
L 668.372727 823.413431 
L 678.057025 824.031858 
L 687.741322 824.714736 
L 697.42562 825.42521 
L 707.109917 826.126427 
L 716.794215 826.781533 
L 726.478512 827.353674 
L 736.16281 827.817122 
L 745.847107 828.190652 
L 755.531405 828.504164 
L 765.215702 828.787559 
L 774.9 829.070737 
L 784.584298 829.383598 
L 794.268595 829.756042 
L 803.952893 830.217971 
L 813.63719 830.799284 
L 823.321488 831.529881 
L 833.005785 832.429279 
L 842.690083 833.475458 
L 852.37438 834.636011 
L 862.058678 835.878535 
L 871.742975 837.170625 
L 881.427273 838.479875 
L 891.11157 839.773881 
L 900.795868 841.020238 
L 910.480165 842.18654 
L 920.164463 843.240384 
L 929.84876 844.159198 
L 939.533058 844.959751 
L 949.217355 845.668645 
L 958.901653 846.312482 
L 968.58595 846.917863 
L 978.270248 847.511393 
L 987.954545 848.119672 
L 997.638843 848.769303 
L 1007.32314 849.486888 
L 1017.007438 850.29903 
L 1026.691736 851.224952 
L 1036.376033 852.254365 
L 1046.060331 853.369601 
L 1055.744628 854.55299 
L 1065.428926 855.786866 
L 1075.113223 857.05356 
L 1084.797521 858.335403 
L 1094.481818 859.614728 
L 1104.166116 860.873866 
L 1113.850413 862.09515 
L 1123.534711 863.264589 
L 1133.219008 864.382906 
L 1142.903306 865.454503 
L 1152.587603 866.48378 
L 1162.271901 867.47514 
L 1171.956198 868.432982 
L 1181.640496 869.361709 
L 1191.324793 870.265722 
L 1201.009091 871.149422 
L 1210.693388 872.017209 
L 1220.377686 872.873486 
L 1230.061983 873.722653 
L 1239.746281 874.569112 
L 1249.430579 875.417264 
L 1259.114876 876.27151 
L 1268.799174 877.136251 
L 1278.483471 878.015889 
L 1288.167769 878.914825 
L 1297.852066 879.83746 
" style="fill:none;stroke:#d62728;stroke-linecap:square;stroke-width:4;"/>
   </g>
   <g id="line2d_32">
    <defs>
     <path d="M 5 0 
L -5 -0 
" id="m5967466790" style="stroke:#9467bd;"/>
    </defs>
    <g clip-path="url(#pe4def0eb04)">
     <use style="fill:#9467bd;stroke:#9467bd;" x="242.263636" xlink:href="#m5967466790" y="1211.988238"/>
     <use style="fill:#9467bd;stroke:#9467bd;" x="339.106612" xlink:href="#m5967466790" y="1137.876212"/>
     <use style="fill:#9467bd;stroke:#9467bd;" x="435.949587" xlink:href="#m5967466790" y="1101.275796"/>
     <use style="fill:#9467bd;stroke:#9467bd;" x="532.792562" xlink:href="#m5967466790" y="1085.622246"/>
     <use style="fill:#9467bd;stroke:#9467bd;" x="629.635537" xlink:href="#m5967466790" y="1078.73439"/>
     <use style="fill:#9467bd;stroke:#9467bd;" x="726.478512" xlink:href="#m5967466790" y="1077.929825"/>
     <use style="fill:#9467bd;stroke:#9467bd;" x="823.321488" xlink:href="#m5967466790" y="1082.952229"/>
     <use style="fill:#9467bd;stroke:#9467bd;" x="920.164463" xlink:href="#m5967466790" y="1088.692038"/>
     <use style="fill:#9467bd;stroke:#9467bd;" x="1017.007438" xlink:href="#m5967466790" y="1092.58347"/>
     <use style="fill:#9467bd;stroke:#9467bd;" x="1113.850413" xlink:href="#m5967466790" y="1094.718404"/>
     <use style="fill:#9467bd;stroke:#9467bd;" x="1210.693388" xlink:href="#m5967466790" y="1098.627162"/>
     <use style="fill:#9467bd;stroke:#9467bd;" x="1307.536364" xlink:href="#m5967466790" y="1104.586494"/>
    </g>
   </g>
   <g id="line2d_33">
    <g clip-path="url(#pe4def0eb04)">
     <use style="fill:#9467bd;stroke:#9467bd;" x="242.263636" xlink:href="#m5967466790" y="1205.033852"/>
     <use style="fill:#9467bd;stroke:#9467bd;" x="339.106612" xlink:href="#m5967466790" y="1132.055872"/>
     <use style="fill:#9467bd;stroke:#9467bd;" x="435.949587" xlink:href="#m5967466790" y="1093.427484"/>
     <use style="fill:#9467bd;stroke:#9467bd;" x="532.792562" xlink:href="#m5967466790" y="1075.557222"/>
     <use style="fill:#9467bd;stroke:#9467bd;" x="629.635537" xlink:href="#m5967466790" y="1067.909214"/>
     <use style="fill:#9467bd;stroke:#9467bd;" x="726.478512" xlink:href="#m5967466790" y="1068.999169"/>
     <use style="fill:#9467bd;stroke:#9467bd;" x="823.321488" xlink:href="#m5967466790" y="1073.984441"/>
     <use style="fill:#9467bd;stroke:#9467bd;" x="920.164463" xlink:href="#m5967466790" y="1078.899192"/>
     <use style="fill:#9467bd;stroke:#9467bd;" x="1017.007438" xlink:href="#m5967466790" y="1085.243748"/>
     <use style="fill:#9467bd;stroke:#9467bd;" x="1113.850413" xlink:href="#m5967466790" y="1089.330316"/>
     <use style="fill:#9467bd;stroke:#9467bd;" x="1210.693388" xlink:href="#m5967466790" y="1091.662086"/>
     <use style="fill:#9467bd;stroke:#9467bd;" x="1307.536364" xlink:href="#m5967466790" y="1096.357314"/>
    </g>
   </g>
   <g id="line2d_34">
    <path clip-path="url(#pe4def0eb04)" d="M 242.263636 1208.511045 
L 251.947934 1199.100298 
L 261.632231 1190.187605 
L 271.316529 1181.75755 
L 281.000826 1173.794716 
L 290.685124 1166.283688 
L 300.369421 1159.209048 
L 310.053719 1152.55538 
L 319.738017 1146.307267 
L 329.422314 1140.449293 
L 339.106612 1134.966042 
L 348.790909 1129.842097 
L 358.475207 1125.062041 
L 368.159504 1120.610459 
L 377.843802 1116.471932 
L 387.528099 1112.631046 
L 397.212397 1109.072384 
L 406.896694 1105.780529 
L 416.580992 1102.740064 
L 426.265289 1099.935573 
L 435.949587 1097.35164 
L 445.633884 1094.973186 
L 455.318182 1092.786488 
L 465.002479 1090.778158 
L 474.686777 1088.93481 
L 484.371074 1087.243059 
L 494.055372 1085.689519 
L 503.739669 1084.260802 
L 513.423967 1082.943523 
L 523.108264 1081.724296 
L 532.792562 1080.589734 
L 542.47686 1079.528818 
L 552.161157 1078.53999 
L 561.845455 1077.624063 
L 571.529752 1076.781845 
L 581.21405 1076.014146 
L 590.898347 1075.321778 
L 600.582645 1074.705549 
L 610.266942 1074.16627 
L 619.95124 1073.704751 
L 629.635537 1073.321802 
L 639.319835 1073.017706 
L 649.004132 1072.790636 
L 658.68843 1072.638237 
L 668.372727 1072.558156 
L 678.057025 1072.548038 
L 687.741322 1072.605529 
L 697.42562 1072.728275 
L 707.109917 1072.913921 
L 716.794215 1073.160113 
L 726.478512 1073.464497 
L 736.16281 1073.823996 
L 745.847107 1074.232643 
L 755.531405 1074.683748 
L 765.215702 1075.17062 
L 774.9 1075.68657 
L 784.584298 1076.224908 
L 794.268595 1076.778943 
L 803.952893 1077.341986 
L 813.63719 1077.907347 
L 823.321488 1078.468335 
L 833.005785 1079.019691 
L 842.690083 1079.561872 
L 852.37438 1080.096767 
L 862.058678 1080.626264 
L 871.742975 1081.152251 
L 881.427273 1081.676616 
L 891.11157 1082.201247 
L 900.795868 1082.728031 
L 910.480165 1083.258858 
L 920.164463 1083.795615 
L 929.84876 1084.339199 
L 939.533058 1084.886542 
L 949.217355 1085.433587 
L 958.901653 1085.976274 
L 968.58595 1086.510545 
L 978.270248 1087.032341 
L 987.954545 1087.537604 
L 997.638843 1088.022276 
L 1007.32314 1088.482297 
L 1017.007438 1088.913609 
L 1026.691736 1089.313423 
L 1036.376033 1089.684028 
L 1046.060331 1090.028983 
L 1055.744628 1090.351846 
L 1065.428926 1090.656175 
L 1075.113223 1090.945528 
L 1084.797521 1091.223465 
L 1094.481818 1091.493544 
L 1104.166116 1091.759323 
L 1113.850413 1092.02436 
L 1123.534711 1092.291942 
L 1133.219008 1092.564267 
L 1142.903306 1092.843259 
L 1152.587603 1093.130844 
L 1162.271901 1093.428947 
L 1171.956198 1093.739494 
L 1181.640496 1094.06441 
L 1191.324793 1094.40562 
L 1201.009091 1094.76505 
L 1210.693388 1095.144624 
L 1220.377686 1095.546269 
L 1230.061983 1095.971909 
L 1239.746281 1096.42347 
L 1249.430579 1096.902876 
L 1259.114876 1097.412055 
L 1268.799174 1097.95293 
L 1278.483471 1098.527427 
L 1288.167769 1099.137472 
L 1297.852066 1099.784989 
" style="fill:none;stroke:#8c564b;stroke-linecap:square;stroke-width:4;"/>
   </g>
   <g id="line2d_35">
    <defs>
     <path d="M 0 3 
C 0.795609 3 1.55874 2.683901 2.12132 2.12132 
C 2.683901 1.55874 3 0.795609 3 0 
C 3 -0.795609 2.683901 -1.55874 2.12132 -2.12132 
C 1.55874 -2.683901 0.795609 -3 0 -3 
C -0.795609 -3 -1.55874 -2.683901 -2.12132 -2.12132 
C -2.683901 -1.55874 -3 -0.795609 -3 0 
C -3 0.795609 -2.683901 1.55874 -2.12132 2.12132 
C -1.55874 2.683901 -0.795609 3 0 3 
z
" id="md5260b4945" style="stroke:#1f77b4;"/>
    </defs>
    <g clip-path="url(#pe4def0eb04)">
     <use style="fill:#1f77b4;stroke:#1f77b4;" x="242.263636" xlink:href="#md5260b4945" y="868.107366"/>
     <use style="fill:#1f77b4;stroke:#1f77b4;" x="339.106612" xlink:href="#md5260b4945" y="570.093615"/>
     <use style="fill:#1f77b4;stroke:#1f77b4;" x="435.949587" xlink:href="#md5260b4945" y="419.141331"/>
     <use style="fill:#1f77b4;stroke:#1f77b4;" x="532.792562" xlink:href="#md5260b4945" y="347.213538"/>
     <use style="fill:#1f77b4;stroke:#1f77b4;" x="629.635537" xlink:href="#md5260b4945" y="331.231698"/>
     <use style="fill:#1f77b4;stroke:#1f77b4;" x="726.478512" xlink:href="#md5260b4945" y="334.466118"/>
     <use style="fill:#1f77b4;stroke:#1f77b4;" x="823.321488" xlink:href="#md5260b4945" y="349.34445"/>
     <use style="fill:#1f77b4;stroke:#1f77b4;" x="920.164463" xlink:href="#md5260b4945" y="370.644057"/>
     <use style="fill:#1f77b4;stroke:#1f77b4;" x="1017.007438" xlink:href="#md5260b4945" y="386.549793"/>
     <use style="fill:#1f77b4;stroke:#1f77b4;" x="1113.850413" xlink:href="#md5260b4945" y="399.839454"/>
     <use style="fill:#1f77b4;stroke:#1f77b4;" x="1210.693388" xlink:href="#md5260b4945" y="418.475421"/>
     <use style="fill:#1f77b4;stroke:#1f77b4;" x="1307.536364" xlink:href="#md5260b4945" y="437.62509"/>
    </g>
   </g>
   <g id="line2d_36">
    <defs>
     <path d="M 0 3 
C 0.795609 3 1.55874 2.683901 2.12132 2.12132 
C 2.683901 1.55874 3 0.795609 3 0 
C 3 -0.795609 2.683901 -1.55874 2.12132 -2.12132 
C 1.55874 -2.683901 0.795609 -3 0 -3 
C -0.795609 -3 -1.55874 -2.683901 -2.12132 -2.12132 
C -2.683901 -1.55874 -3 -0.795609 -3 0 
C -3 0.795609 -2.683901 1.55874 -2.12132 2.12132 
C -1.55874 2.683901 -0.795609 3 0 3 
z
" id="mb9225e31d9" style="stroke:#2ca02c;"/>
    </defs>
    <g clip-path="url(#pe4def0eb04)">
     <use style="fill:#2ca02c;stroke:#2ca02c;" x="242.263636" xlink:href="#mb9225e31d9" y="1091.425041"/>
     <use style="fill:#2ca02c;stroke:#2ca02c;" x="339.106612" xlink:href="#mb9225e31d9" y="949.785984"/>
     <use style="fill:#2ca02c;stroke:#2ca02c;" x="435.949587" xlink:href="#mb9225e31d9" y="872.340651"/>
     <use style="fill:#2ca02c;stroke:#2ca02c;" x="532.792562" xlink:href="#mb9225e31d9" y="835.239951"/>
     <use style="fill:#2ca02c;stroke:#2ca02c;" x="629.635537" xlink:href="#mb9225e31d9" y="822.321297"/>
     <use style="fill:#2ca02c;stroke:#2ca02c;" x="726.478512" xlink:href="#mb9225e31d9" y="827.353674"/>
     <use style="fill:#2ca02c;stroke:#2ca02c;" x="823.321488" xlink:href="#mb9225e31d9" y="831.529881"/>
     <use style="fill:#2ca02c;stroke:#2ca02c;" x="920.164463" xlink:href="#mb9225e31d9" y="843.240384"/>
     <use style="fill:#2ca02c;stroke:#2ca02c;" x="1017.007438" xlink:href="#mb9225e31d9" y="850.29903"/>
     <use style="fill:#2ca02c;stroke:#2ca02c;" x="1113.850413" xlink:href="#mb9225e31d9" y="862.09515"/>
     <use style="fill:#2ca02c;stroke:#2ca02c;" x="1210.693388" xlink:href="#mb9225e31d9" y="872.017209"/>
     <use style="fill:#2ca02c;stroke:#2ca02c;" x="1307.536364" xlink:href="#mb9225e31d9" y="880.788195"/>
    </g>
   </g>
   <g id="line2d_37">
    <defs>
     <path d="M 0 3 
C 0.795609 3 1.55874 2.683901 2.12132 2.12132 
C 2.683901 1.55874 3 0.795609 3 0 
C 3 -0.795609 2.683901 -1.55874 2.12132 -2.12132 
C 1.55874 -2.683901 0.795609 -3 0 -3 
C -0.795609 -3 -1.55874 -2.683901 -2.12132 -2.12132 
C -2.683901 -1.55874 -3 -0.795609 -3 0 
C -3 0.795609 -2.683901 1.55874 -2.12132 2.12132 
C -1.55874 2.683901 -0.795609 3 0 3 
z
" id="mfb105e376f" style="stroke:#9467bd;"/>
    </defs>
    <g clip-path="url(#pe4def0eb04)">
     <use style="fill:#9467bd;stroke:#9467bd;" x="242.263636" xlink:href="#mfb105e376f" y="1208.511045"/>
     <use style="fill:#9467bd;stroke:#9467bd;" x="339.106612" xlink:href="#mfb105e376f" y="1134.966042"/>
     <use style="fill:#9467bd;stroke:#9467bd;" x="435.949587" xlink:href="#mfb105e376f" y="1097.35164"/>
     <use style="fill:#9467bd;stroke:#9467bd;" x="532.792562" xlink:href="#mfb105e376f" y="1080.589734"/>
     <use style="fill:#9467bd;stroke:#9467bd;" x="629.635537" xlink:href="#mfb105e376f" y="1073.321802"/>
     <use style="fill:#9467bd;stroke:#9467bd;" x="726.478512" xlink:href="#mfb105e376f" y="1073.464497"/>
     <use style="fill:#9467bd;stroke:#9467bd;" x="823.321488" xlink:href="#mfb105e376f" y="1078.468335"/>
     <use style="fill:#9467bd;stroke:#9467bd;" x="920.164463" xlink:href="#mfb105e376f" y="1083.795615"/>
     <use style="fill:#9467bd;stroke:#9467bd;" x="1017.007438" xlink:href="#mfb105e376f" y="1088.913609"/>
     <use style="fill:#9467bd;stroke:#9467bd;" x="1113.850413" xlink:href="#mfb105e376f" y="1092.02436"/>
     <use style="fill:#9467bd;stroke:#9467bd;" x="1210.693388" xlink:href="#mfb105e376f" y="1095.144624"/>
     <use style="fill:#9467bd;stroke:#9467bd;" x="1307.536364" xlink:href="#mfb105e376f" y="1100.471904"/>
    </g>
   </g>
   <g id="patch_3">
    <path d="M 189 1323 
L 189 181.44 
" style="fill:none;stroke:#000000;stroke-linecap:square;stroke-linejoin:miter;stroke-width:0.8;"/>
   </g>
   <g id="patch_4">
    <path d="M 1360.8 1323 
L 1360.8 181.44 
" style="fill:none;stroke:#000000;stroke-linecap:square;stroke-linejoin:miter;stroke-width:0.8;"/>
   </g>
   <g id="patch_5">
    <path d="M 189 1323 
L 1360.8 1323 
" style="fill:none;stroke:#000000;stroke-linecap:square;stroke-linejoin:miter;stroke-width:0.8;"/>
   </g>
   <g id="patch_6">
    <path d="M 189 181.44 
L 1360.8 181.44 
" style="fill:none;stroke:#000000;stroke-linecap:square;stroke-linejoin:miter;stroke-width:0.8;"/>
   </g>
   <g id="legend_1">
    <g id="patch_7">
     <path d="M 1088.119688 275.101875 
L 1348.2 275.101875 
Q 1351.8 275.101875 1351.8 271.501875 
L 1351.8 194.04 
Q 1351.8 190.44 1348.2 190.44 
L 1088.119688 190.44 
Q 1084.519688 190.44 1084.519688 194.04 
L 1084.519688 271.501875 
Q 1084.519688 275.101875 1088.119688 275.101875 
z
" style="fill:#ffffff;opacity:0.8;stroke:#cccccc;stroke-linejoin:miter;"/>
    </g>
    <g id="line2d_38">
     <path d="M 1091.719688 205.017188 
L 1127.719688 205.017188 
" style="fill:none;stroke:#ff7f0e;stroke-linecap:square;stroke-width:4;"/>
    </g>
    <g id="line2d_39"/>
    <g id="text_28">
     <!-- Vaccination rate=0.8 -->
     <defs>
      <path d="M 28.609375 0 
L 0.78125 72.90625 
L 11.078125 72.90625 
L 34.1875 11.53125 
L 57.328125 72.90625 
L 67.578125 72.90625 
L 39.796875 0 
z
" id="DejaVuSans-56"/>
      <path d="M 48.78125 52.59375 
L 48.78125 44.1875 
Q 44.96875 46.296875 41.140625 47.34375 
Q 37.3125 48.390625 33.40625 48.390625 
Q 24.65625 48.390625 19.8125 42.84375 
Q 14.984375 37.3125 14.984375 27.296875 
Q 14.984375 17.28125 19.8125 11.734375 
Q 24.65625 6.203125 33.40625 6.203125 
Q 37.3125 6.203125 41.140625 7.25 
Q 44.96875 8.296875 48.78125 10.40625 
L 48.78125 2.09375 
Q 45.015625 0.34375 40.984375 -0.53125 
Q 36.96875 -1.421875 32.421875 -1.421875 
Q 20.0625 -1.421875 12.78125 6.34375 
Q 5.515625 14.109375 5.515625 27.296875 
Q 5.515625 40.671875 12.859375 48.328125 
Q 20.21875 56 33.015625 56 
Q 37.15625 56 41.109375 55.140625 
Q 45.0625 54.296875 48.78125 52.59375 
z
" id="DejaVuSans-63"/>
      <path d="M 10.59375 45.40625 
L 73.1875 45.40625 
L 73.1875 37.203125 
L 10.59375 37.203125 
z
M 10.59375 25.484375 
L 73.1875 25.484375 
L 73.1875 17.1875 
L 10.59375 17.1875 
z
" id="DejaVuSans-3d"/>
     </defs>
     <g transform="translate(1142.119688 211.317188)scale(0.18 -0.18)">
      <use xlink:href="#DejaVuSans-56"/>
      <use x="68.298828" xlink:href="#DejaVuSans-61"/>
      <use x="129.578125" xlink:href="#DejaVuSans-63"/>
      <use x="184.558594" xlink:href="#DejaVuSans-63"/>
      <use x="239.539062" xlink:href="#DejaVuSans-69"/>
      <use x="267.322266" xlink:href="#DejaVuSans-6e"/>
      <use x="330.701172" xlink:href="#DejaVuSans-61"/>
      <use x="391.980469" xlink:href="#DejaVuSans-74"/>
      <use x="431.189453" xlink:href="#DejaVuSans-69"/>
      <use x="458.972656" xlink:href="#DejaVuSans-6f"/>
      <use x="520.154297" xlink:href="#DejaVuSans-6e"/>
      <use x="583.533203" xlink:href="#DejaVuSans-20"/>
      <use x="615.320312" xlink:href="#DejaVuSans-72"/>
      <use x="656.433594" xlink:href="#DejaVuSans-61"/>
      <use x="717.712891" xlink:href="#DejaVuSans-74"/>
      <use x="756.921875" xlink:href="#DejaVuSans-65"/>
      <use x="818.445312" xlink:href="#DejaVuSans-3d"/>
      <use x="902.234375" xlink:href="#DejaVuSans-30"/>
      <use x="965.857422" xlink:href="#DejaVuSans-2e"/>
      <use x="997.644531" xlink:href="#DejaVuSans-38"/>
     </g>
    </g>
    <g id="line2d_40">
     <path d="M 1091.719688 231.437813 
L 1127.719688 231.437813 
" style="fill:none;stroke:#d62728;stroke-linecap:square;stroke-width:4;"/>
    </g>
    <g id="line2d_41"/>
    <g id="text_29">
     <!-- Vaccination rate=0.9 -->
     <g transform="translate(1142.119688 237.737813)scale(0.18 -0.18)">
      <use xlink:href="#DejaVuSans-56"/>
      <use x="68.298828" xlink:href="#DejaVuSans-61"/>
      <use x="129.578125" xlink:href="#DejaVuSans-63"/>
      <use x="184.558594" xlink:href="#DejaVuSans-63"/>
      <use x="239.539062" xlink:href="#DejaVuSans-69"/>
      <use x="267.322266" xlink:href="#DejaVuSans-6e"/>
      <use x="330.701172" xlink:href="#DejaVuSans-61"/>
      <use x="391.980469" xlink:href="#DejaVuSans-74"/>
      <use x="431.189453" xlink:href="#DejaVuSans-69"/>
      <use x="458.972656" xlink:href="#DejaVuSans-6f"/>
      <use x="520.154297" xlink:href="#DejaVuSans-6e"/>
      <use x="583.533203" xlink:href="#DejaVuSans-20"/>
      <use x="615.320312" xlink:href="#DejaVuSans-72"/>
      <use x="656.433594" xlink:href="#DejaVuSans-61"/>
      <use x="717.712891" xlink:href="#DejaVuSans-74"/>
      <use x="756.921875" xlink:href="#DejaVuSans-65"/>
      <use x="818.445312" xlink:href="#DejaVuSans-3d"/>
      <use x="902.234375" xlink:href="#DejaVuSans-30"/>
      <use x="965.857422" xlink:href="#DejaVuSans-2e"/>
      <use x="997.644531" xlink:href="#DejaVuSans-39"/>
     </g>
    </g>
    <g id="line2d_42">
     <path d="M 1091.719688 257.858437 
L 1127.719688 257.858437 
" style="fill:none;stroke:#8c564b;stroke-linecap:square;stroke-width:4;"/>
    </g>
    <g id="line2d_43"/>
    <g id="text_30">
     <!-- Vaccination rate=0.95 -->
     <g transform="translate(1142.119688 264.158437)scale(0.18 -0.18)">
      <use xlink:href="#DejaVuSans-56"/>
      <use x="68.298828" xlink:href="#DejaVuSans-61"/>
      <use x="129.578125" xlink:href="#DejaVuSans-63"/>
      <use x="184.558594" xlink:href="#DejaVuSans-63"/>
      <use x="239.539062" xlink:href="#DejaVuSans-69"/>
      <use x="267.322266" xlink:href="#DejaVuSans-6e"/>
      <use x="330.701172" xlink:href="#DejaVuSans-61"/>
      <use x="391.980469" xlink:href="#DejaVuSans-74"/>
      <use x="431.189453" xlink:href="#DejaVuSans-69"/>
      <use x="458.972656" xlink:href="#DejaVuSans-6f"/>
      <use x="520.154297" xlink:href="#DejaVuSans-6e"/>
      <use x="583.533203" xlink:href="#DejaVuSans-20"/>
      <use x="615.320312" xlink:href="#DejaVuSans-72"/>
      <use x="656.433594" xlink:href="#DejaVuSans-61"/>
      <use x="717.712891" xlink:href="#DejaVuSans-74"/>
      <use x="756.921875" xlink:href="#DejaVuSans-65"/>
      <use x="818.445312" xlink:href="#DejaVuSans-3d"/>
      <use x="902.234375" xlink:href="#DejaVuSans-30"/>
      <use x="965.857422" xlink:href="#DejaVuSans-2e"/>
      <use x="997.644531" xlink:href="#DejaVuSans-39"/>
      <use x="1061.267578" xlink:href="#DejaVuSans-35"/>
     </g>
    </g>
   </g>
  </g>
 </g>
 <defs>
  <clipPath id="pe4def0eb04">
   <rect height="1141.56" width="1171.8" x="189" y="181.44"/>
  </clipPath>
 </defs>
</svg>
