<?xml version="1.0" encoding="utf-8" standalone="no"?>
<!DOCTYPE svg PUBLIC "-//W3C//DTD SVG 1.1//EN"
  "http://www.w3.org/Graphics/SVG/1.1/DTD/svg11.dtd">
<!-- Created with matplotlib (http://matplotlib.org/) -->
<svg height="1512pt" version="1.1" viewBox="0 0 1512 1512" width="1512pt" xmlns="http://www.w3.org/2000/svg" xmlns:xlink="http://www.w3.org/1999/xlink">
 <defs>
  <style type="text/css">
*{stroke-linecap:butt;stroke-linejoin:round;}
  </style>
 </defs>
 <g id="figure_1">
  <g id="patch_1">
   <path d="M 0 1512 
L 1512 1512 
L 1512 0 
L 0 0 
z
" style="fill:#ffffff;"/>
  </g>
  <g id="axes_1">
   <g id="patch_2">
    <path d="M 189 1323 
L 1360.8 1323 
L 1360.8 181.44 
L 189 181.44 
z
" style="fill:#ffffff;"/>
   </g>
   <g id="matplotlib.axis_1">
    <g id="xtick_1">
     <g id="line2d_1">
      <defs>
       <path d="M 0 0 
L 0 3.5 
" id="m09c7ecc933" style="stroke:#000000;stroke-width:0.8;"/>
      </defs>
      <g>
       <use style="stroke:#000000;stroke-width:0.8;" x="242.263636" xlink:href="#m09c7ecc933" y="1323"/>
      </g>
     </g>
     <g id="text_1">
      <!-- 2019 -->
      <defs>
       <path d="M 19.1875 8.296875 
L 53.609375 8.296875 
L 53.609375 0 
L 7.328125 0 
L 7.328125 8.296875 
Q 12.9375 14.109375 22.625 23.890625 
Q 32.328125 33.6875 34.8125 36.53125 
Q 39.546875 41.84375 41.421875 45.53125 
Q 43.3125 49.21875 43.3125 52.78125 
Q 43.3125 58.59375 39.234375 62.25 
Q 35.15625 65.921875 28.609375 65.921875 
Q 23.96875 65.921875 18.8125 64.3125 
Q 13.671875 62.703125 7.8125 59.421875 
L 7.8125 69.390625 
Q 13.765625 71.78125 18.9375 73 
Q 24.125 74.21875 28.421875 74.21875 
Q 39.75 74.21875 46.484375 68.546875 
Q 53.21875 62.890625 53.21875 53.421875 
Q 53.21875 48.921875 51.53125 44.890625 
Q 49.859375 40.875 45.40625 35.40625 
Q 44.1875 33.984375 37.640625 27.21875 
Q 31.109375 20.453125 19.1875 8.296875 
z
" id="DejaVuSans-32"/>
       <path d="M 31.78125 66.40625 
Q 24.171875 66.40625 20.328125 58.90625 
Q 16.5 51.421875 16.5 36.375 
Q 16.5 21.390625 20.328125 13.890625 
Q 24.171875 6.390625 31.78125 6.390625 
Q 39.453125 6.390625 43.28125 13.890625 
Q 47.125 21.390625 47.125 36.375 
Q 47.125 51.421875 43.28125 58.90625 
Q 39.453125 66.40625 31.78125 66.40625 
z
M 31.78125 74.21875 
Q 44.046875 74.21875 50.515625 64.515625 
Q 56.984375 54.828125 56.984375 36.375 
Q 56.984375 17.96875 50.515625 8.265625 
Q 44.046875 -1.421875 31.78125 -1.421875 
Q 19.53125 -1.421875 13.0625 8.265625 
Q 6.59375 17.96875 6.59375 36.375 
Q 6.59375 54.828125 13.0625 64.515625 
Q 19.53125 74.21875 31.78125 74.21875 
z
" id="DejaVuSans-30"/>
       <path d="M 12.40625 8.296875 
L 28.515625 8.296875 
L 28.515625 63.921875 
L 10.984375 60.40625 
L 10.984375 69.390625 
L 28.421875 72.90625 
L 38.28125 72.90625 
L 38.28125 8.296875 
L 54.390625 8.296875 
L 54.390625 0 
L 12.40625 0 
z
" id="DejaVuSans-31"/>
       <path d="M 10.984375 1.515625 
L 10.984375 10.5 
Q 14.703125 8.734375 18.5 7.8125 
Q 22.3125 6.890625 25.984375 6.890625 
Q 35.75 6.890625 40.890625 13.453125 
Q 46.046875 20.015625 46.78125 33.40625 
Q 43.953125 29.203125 39.59375 26.953125 
Q 35.25 24.703125 29.984375 24.703125 
Q 19.046875 24.703125 12.671875 31.3125 
Q 6.296875 37.9375 6.296875 49.421875 
Q 6.296875 60.640625 12.9375 67.421875 
Q 19.578125 74.21875 30.609375 74.21875 
Q 43.265625 74.21875 49.921875 64.515625 
Q 56.59375 54.828125 56.59375 36.375 
Q 56.59375 19.140625 48.40625 8.859375 
Q 40.234375 -1.421875 26.421875 -1.421875 
Q 22.703125 -1.421875 18.890625 -0.6875 
Q 15.09375 0.046875 10.984375 1.515625 
z
M 30.609375 32.421875 
Q 37.25 32.421875 41.125 36.953125 
Q 45.015625 41.5 45.015625 49.421875 
Q 45.015625 57.28125 41.125 61.84375 
Q 37.25 66.40625 30.609375 66.40625 
Q 23.96875 66.40625 20.09375 61.84375 
Q 16.21875 57.28125 16.21875 49.421875 
Q 16.21875 41.5 20.09375 36.953125 
Q 23.96875 32.421875 30.609375 32.421875 
z
" id="DejaVuSans-39"/>
      </defs>
      <g transform="translate(216.813636 1345.196875)scale(0.2 -0.2)">
       <use xlink:href="#DejaVuSans-32"/>
       <use x="63.623047" xlink:href="#DejaVuSans-30"/>
       <use x="127.246094" xlink:href="#DejaVuSans-31"/>
       <use x="190.869141" xlink:href="#DejaVuSans-39"/>
      </g>
     </g>
    </g>
    <g id="xtick_2">
     <g id="line2d_2">
      <g>
       <use style="stroke:#000000;stroke-width:0.8;" x="339.106612" xlink:href="#m09c7ecc933" y="1323"/>
      </g>
     </g>
     <g id="text_2">
      <!-- 2020 -->
      <g transform="translate(313.656612 1345.196875)scale(0.2 -0.2)">
       <use xlink:href="#DejaVuSans-32"/>
       <use x="63.623047" xlink:href="#DejaVuSans-30"/>
       <use x="127.246094" xlink:href="#DejaVuSans-32"/>
       <use x="190.869141" xlink:href="#DejaVuSans-30"/>
      </g>
     </g>
    </g>
    <g id="xtick_3">
     <g id="line2d_3">
      <g>
       <use style="stroke:#000000;stroke-width:0.8;" x="435.949587" xlink:href="#m09c7ecc933" y="1323"/>
      </g>
     </g>
     <g id="text_3">
      <!-- 2021 -->
      <g transform="translate(410.499587 1345.196875)scale(0.2 -0.2)">
       <use xlink:href="#DejaVuSans-32"/>
       <use x="63.623047" xlink:href="#DejaVuSans-30"/>
       <use x="127.246094" xlink:href="#DejaVuSans-32"/>
       <use x="190.869141" xlink:href="#DejaVuSans-31"/>
      </g>
     </g>
    </g>
    <g id="xtick_4">
     <g id="line2d_4">
      <g>
       <use style="stroke:#000000;stroke-width:0.8;" x="532.792562" xlink:href="#m09c7ecc933" y="1323"/>
      </g>
     </g>
     <g id="text_4">
      <!-- 2022 -->
      <g transform="translate(507.342562 1345.196875)scale(0.2 -0.2)">
       <use xlink:href="#DejaVuSans-32"/>
       <use x="63.623047" xlink:href="#DejaVuSans-30"/>
       <use x="127.246094" xlink:href="#DejaVuSans-32"/>
       <use x="190.869141" xlink:href="#DejaVuSans-32"/>
      </g>
     </g>
    </g>
    <g id="xtick_5">
     <g id="line2d_5">
      <g>
       <use style="stroke:#000000;stroke-width:0.8;" x="629.635537" xlink:href="#m09c7ecc933" y="1323"/>
      </g>
     </g>
     <g id="text_5">
      <!-- 2023 -->
      <defs>
       <path d="M 40.578125 39.3125 
Q 47.65625 37.796875 51.625 33 
Q 55.609375 28.21875 55.609375 21.1875 
Q 55.609375 10.40625 48.1875 4.484375 
Q 40.765625 -1.421875 27.09375 -1.421875 
Q 22.515625 -1.421875 17.65625 -0.515625 
Q 12.796875 0.390625 7.625 2.203125 
L 7.625 11.71875 
Q 11.71875 9.328125 16.59375 8.109375 
Q 21.484375 6.890625 26.8125 6.890625 
Q 36.078125 6.890625 40.9375 10.546875 
Q 45.796875 14.203125 45.796875 21.1875 
Q 45.796875 27.640625 41.28125 31.265625 
Q 36.765625 34.90625 28.71875 34.90625 
L 20.21875 34.90625 
L 20.21875 43.015625 
L 29.109375 43.015625 
Q 36.375 43.015625 40.234375 45.921875 
Q 44.09375 48.828125 44.09375 54.296875 
Q 44.09375 59.90625 40.109375 62.90625 
Q 36.140625 65.921875 28.71875 65.921875 
Q 24.65625 65.921875 20.015625 65.03125 
Q 15.375 64.15625 9.8125 62.3125 
L 9.8125 71.09375 
Q 15.4375 72.65625 20.34375 73.4375 
Q 25.25 74.21875 29.59375 74.21875 
Q 40.828125 74.21875 47.359375 69.109375 
Q 53.90625 64.015625 53.90625 55.328125 
Q 53.90625 49.265625 50.4375 45.09375 
Q 46.96875 40.921875 40.578125 39.3125 
z
" id="DejaVuSans-33"/>
      </defs>
      <g transform="translate(604.185537 1345.196875)scale(0.2 -0.2)">
       <use xlink:href="#DejaVuSans-32"/>
       <use x="63.623047" xlink:href="#DejaVuSans-30"/>
       <use x="127.246094" xlink:href="#DejaVuSans-32"/>
       <use x="190.869141" xlink:href="#DejaVuSans-33"/>
      </g>
     </g>
    </g>
    <g id="xtick_6">
     <g id="line2d_6">
      <g>
       <use style="stroke:#000000;stroke-width:0.8;" x="726.478512" xlink:href="#m09c7ecc933" y="1323"/>
      </g>
     </g>
     <g id="text_6">
      <!-- 2024 -->
      <defs>
       <path d="M 37.796875 64.3125 
L 12.890625 25.390625 
L 37.796875 25.390625 
z
M 35.203125 72.90625 
L 47.609375 72.90625 
L 47.609375 25.390625 
L 58.015625 25.390625 
L 58.015625 17.1875 
L 47.609375 17.1875 
L 47.609375 0 
L 37.796875 0 
L 37.796875 17.1875 
L 4.890625 17.1875 
L 4.890625 26.703125 
z
" id="DejaVuSans-34"/>
      </defs>
      <g transform="translate(701.028512 1345.196875)scale(0.2 -0.2)">
       <use xlink:href="#DejaVuSans-32"/>
       <use x="63.623047" xlink:href="#DejaVuSans-30"/>
       <use x="127.246094" xlink:href="#DejaVuSans-32"/>
       <use x="190.869141" xlink:href="#DejaVuSans-34"/>
      </g>
     </g>
    </g>
    <g id="xtick_7">
     <g id="line2d_7">
      <g>
       <use style="stroke:#000000;stroke-width:0.8;" x="823.321488" xlink:href="#m09c7ecc933" y="1323"/>
      </g>
     </g>
     <g id="text_7">
      <!-- 2025 -->
      <defs>
       <path d="M 10.796875 72.90625 
L 49.515625 72.90625 
L 49.515625 64.59375 
L 19.828125 64.59375 
L 19.828125 46.734375 
Q 21.96875 47.46875 24.109375 47.828125 
Q 26.265625 48.1875 28.421875 48.1875 
Q 40.625 48.1875 47.75 41.5 
Q 54.890625 34.8125 54.890625 23.390625 
Q 54.890625 11.625 47.5625 5.09375 
Q 40.234375 -1.421875 26.90625 -1.421875 
Q 22.3125 -1.421875 17.546875 -0.640625 
Q 12.796875 0.140625 7.71875 1.703125 
L 7.71875 11.625 
Q 12.109375 9.234375 16.796875 8.0625 
Q 21.484375 6.890625 26.703125 6.890625 
Q 35.15625 6.890625 40.078125 11.328125 
Q 45.015625 15.765625 45.015625 23.390625 
Q 45.015625 31 40.078125 35.4375 
Q 35.15625 39.890625 26.703125 39.890625 
Q 22.75 39.890625 18.8125 39.015625 
Q 14.890625 38.140625 10.796875 36.28125 
z
" id="DejaVuSans-35"/>
      </defs>
      <g transform="translate(797.871488 1345.196875)scale(0.2 -0.2)">
       <use xlink:href="#DejaVuSans-32"/>
       <use x="63.623047" xlink:href="#DejaVuSans-30"/>
       <use x="127.246094" xlink:href="#DejaVuSans-32"/>
       <use x="190.869141" xlink:href="#DejaVuSans-35"/>
      </g>
     </g>
    </g>
    <g id="xtick_8">
     <g id="line2d_8">
      <g>
       <use style="stroke:#000000;stroke-width:0.8;" x="920.164463" xlink:href="#m09c7ecc933" y="1323"/>
      </g>
     </g>
     <g id="text_8">
      <!-- 2026 -->
      <defs>
       <path d="M 33.015625 40.375 
Q 26.375 40.375 22.484375 35.828125 
Q 18.609375 31.296875 18.609375 23.390625 
Q 18.609375 15.53125 22.484375 10.953125 
Q 26.375 6.390625 33.015625 6.390625 
Q 39.65625 6.390625 43.53125 10.953125 
Q 47.40625 15.53125 47.40625 23.390625 
Q 47.40625 31.296875 43.53125 35.828125 
Q 39.65625 40.375 33.015625 40.375 
z
M 52.59375 71.296875 
L 52.59375 62.3125 
Q 48.875 64.0625 45.09375 64.984375 
Q 41.3125 65.921875 37.59375 65.921875 
Q 27.828125 65.921875 22.671875 59.328125 
Q 17.53125 52.734375 16.796875 39.40625 
Q 19.671875 43.65625 24.015625 45.921875 
Q 28.375 48.1875 33.59375 48.1875 
Q 44.578125 48.1875 50.953125 41.515625 
Q 57.328125 34.859375 57.328125 23.390625 
Q 57.328125 12.15625 50.6875 5.359375 
Q 44.046875 -1.421875 33.015625 -1.421875 
Q 20.359375 -1.421875 13.671875 8.265625 
Q 6.984375 17.96875 6.984375 36.375 
Q 6.984375 53.65625 15.1875 63.9375 
Q 23.390625 74.21875 37.203125 74.21875 
Q 40.921875 74.21875 44.703125 73.484375 
Q 48.484375 72.75 52.59375 71.296875 
z
" id="DejaVuSans-36"/>
      </defs>
      <g transform="translate(894.714463 1345.196875)scale(0.2 -0.2)">
       <use xlink:href="#DejaVuSans-32"/>
       <use x="63.623047" xlink:href="#DejaVuSans-30"/>
       <use x="127.246094" xlink:href="#DejaVuSans-32"/>
       <use x="190.869141" xlink:href="#DejaVuSans-36"/>
      </g>
     </g>
    </g>
    <g id="xtick_9">
     <g id="line2d_9">
      <g>
       <use style="stroke:#000000;stroke-width:0.8;" x="1017.007438" xlink:href="#m09c7ecc933" y="1323"/>
      </g>
     </g>
     <g id="text_9">
      <!-- 2027 -->
      <defs>
       <path d="M 8.203125 72.90625 
L 55.078125 72.90625 
L 55.078125 68.703125 
L 28.609375 0 
L 18.3125 0 
L 43.21875 64.59375 
L 8.203125 64.59375 
z
" id="DejaVuSans-37"/>
      </defs>
      <g transform="translate(991.557438 1345.196875)scale(0.2 -0.2)">
       <use xlink:href="#DejaVuSans-32"/>
       <use x="63.623047" xlink:href="#DejaVuSans-30"/>
       <use x="127.246094" xlink:href="#DejaVuSans-32"/>
       <use x="190.869141" xlink:href="#DejaVuSans-37"/>
      </g>
     </g>
    </g>
    <g id="xtick_10">
     <g id="line2d_10">
      <g>
       <use style="stroke:#000000;stroke-width:0.8;" x="1113.850413" xlink:href="#m09c7ecc933" y="1323"/>
      </g>
     </g>
     <g id="text_10">
      <!-- 2028 -->
      <defs>
       <path d="M 31.78125 34.625 
Q 24.75 34.625 20.71875 30.859375 
Q 16.703125 27.09375 16.703125 20.515625 
Q 16.703125 13.921875 20.71875 10.15625 
Q 24.75 6.390625 31.78125 6.390625 
Q 38.8125 6.390625 42.859375 10.171875 
Q 46.921875 13.96875 46.921875 20.515625 
Q 46.921875 27.09375 42.890625 30.859375 
Q 38.875 34.625 31.78125 34.625 
z
M 21.921875 38.8125 
Q 15.578125 40.375 12.03125 44.71875 
Q 8.5 49.078125 8.5 55.328125 
Q 8.5 64.0625 14.71875 69.140625 
Q 20.953125 74.21875 31.78125 74.21875 
Q 42.671875 74.21875 48.875 69.140625 
Q 55.078125 64.0625 55.078125 55.328125 
Q 55.078125 49.078125 51.53125 44.71875 
Q 48 40.375 41.703125 38.8125 
Q 48.828125 37.15625 52.796875 32.3125 
Q 56.78125 27.484375 56.78125 20.515625 
Q 56.78125 9.90625 50.3125 4.234375 
Q 43.84375 -1.421875 31.78125 -1.421875 
Q 19.734375 -1.421875 13.25 4.234375 
Q 6.78125 9.90625 6.78125 20.515625 
Q 6.78125 27.484375 10.78125 32.3125 
Q 14.796875 37.15625 21.921875 38.8125 
z
M 18.3125 54.390625 
Q 18.3125 48.734375 21.84375 45.5625 
Q 25.390625 42.390625 31.78125 42.390625 
Q 38.140625 42.390625 41.71875 45.5625 
Q 45.3125 48.734375 45.3125 54.390625 
Q 45.3125 60.0625 41.71875 63.234375 
Q 38.140625 66.40625 31.78125 66.40625 
Q 25.390625 66.40625 21.84375 63.234375 
Q 18.3125 60.0625 18.3125 54.390625 
z
" id="DejaVuSans-38"/>
      </defs>
      <g transform="translate(1088.400413 1345.196875)scale(0.2 -0.2)">
       <use xlink:href="#DejaVuSans-32"/>
       <use x="63.623047" xlink:href="#DejaVuSans-30"/>
       <use x="127.246094" xlink:href="#DejaVuSans-32"/>
       <use x="190.869141" xlink:href="#DejaVuSans-38"/>
      </g>
     </g>
    </g>
    <g id="xtick_11">
     <g id="line2d_11">
      <g>
       <use style="stroke:#000000;stroke-width:0.8;" x="1210.693388" xlink:href="#m09c7ecc933" y="1323"/>
      </g>
     </g>
     <g id="text_11">
      <!-- 2029 -->
      <g transform="translate(1185.243388 1345.196875)scale(0.2 -0.2)">
       <use xlink:href="#DejaVuSans-32"/>
       <use x="63.623047" xlink:href="#DejaVuSans-30"/>
       <use x="127.246094" xlink:href="#DejaVuSans-32"/>
       <use x="190.869141" xlink:href="#DejaVuSans-39"/>
      </g>
     </g>
    </g>
    <g id="xtick_12">
     <g id="line2d_12">
      <g>
       <use style="stroke:#000000;stroke-width:0.8;" x="1307.536364" xlink:href="#m09c7ecc933" y="1323"/>
      </g>
     </g>
     <g id="text_12">
      <!-- 2030 -->
      <g transform="translate(1282.086364 1345.196875)scale(0.2 -0.2)">
       <use xlink:href="#DejaVuSans-32"/>
       <use x="63.623047" xlink:href="#DejaVuSans-30"/>
       <use x="127.246094" xlink:href="#DejaVuSans-33"/>
       <use x="190.869141" xlink:href="#DejaVuSans-30"/>
      </g>
     </g>
    </g>
    <g id="text_13">
     <!-- Years -->
     <defs>
      <path d="M -0.203125 72.90625 
L 10.40625 72.90625 
L 30.609375 42.921875 
L 50.6875 72.90625 
L 61.28125 72.90625 
L 35.5 34.71875 
L 35.5 0 
L 25.59375 0 
L 25.59375 34.71875 
z
" id="DejaVuSans-59"/>
      <path d="M 56.203125 29.59375 
L 56.203125 25.203125 
L 14.890625 25.203125 
Q 15.484375 15.921875 20.484375 11.0625 
Q 25.484375 6.203125 34.421875 6.203125 
Q 39.59375 6.203125 44.453125 7.46875 
Q 49.3125 8.734375 54.109375 11.28125 
L 54.109375 2.78125 
Q 49.265625 0.734375 44.1875 -0.34375 
Q 39.109375 -1.421875 33.890625 -1.421875 
Q 20.796875 -1.421875 13.15625 6.1875 
Q 5.515625 13.8125 5.515625 26.8125 
Q 5.515625 40.234375 12.765625 48.109375 
Q 20.015625 56 32.328125 56 
Q 43.359375 56 49.78125 48.890625 
Q 56.203125 41.796875 56.203125 29.59375 
z
M 47.21875 32.234375 
Q 47.125 39.59375 43.09375 43.984375 
Q 39.0625 48.390625 32.421875 48.390625 
Q 24.90625 48.390625 20.390625 44.140625 
Q 15.875 39.890625 15.1875 32.171875 
z
" id="DejaVuSans-65"/>
      <path d="M 34.28125 27.484375 
Q 23.390625 27.484375 19.1875 25 
Q 14.984375 22.515625 14.984375 16.5 
Q 14.984375 11.71875 18.140625 8.90625 
Q 21.296875 6.109375 26.703125 6.109375 
Q 34.1875 6.109375 38.703125 11.40625 
Q 43.21875 16.703125 43.21875 25.484375 
L 43.21875 27.484375 
z
M 52.203125 31.203125 
L 52.203125 0 
L 43.21875 0 
L 43.21875 8.296875 
Q 40.140625 3.328125 35.546875 0.953125 
Q 30.953125 -1.421875 24.3125 -1.421875 
Q 15.921875 -1.421875 10.953125 3.296875 
Q 6 8.015625 6 15.921875 
Q 6 25.140625 12.171875 29.828125 
Q 18.359375 34.515625 30.609375 34.515625 
L 43.21875 34.515625 
L 43.21875 35.40625 
Q 43.21875 41.609375 39.140625 45 
Q 35.0625 48.390625 27.6875 48.390625 
Q 23 48.390625 18.546875 47.265625 
Q 14.109375 46.140625 10.015625 43.890625 
L 10.015625 52.203125 
Q 14.9375 54.109375 19.578125 55.046875 
Q 24.21875 56 28.609375 56 
Q 40.484375 56 46.34375 49.84375 
Q 52.203125 43.703125 52.203125 31.203125 
z
" id="DejaVuSans-61"/>
      <path d="M 41.109375 46.296875 
Q 39.59375 47.171875 37.8125 47.578125 
Q 36.03125 48 33.890625 48 
Q 26.265625 48 22.1875 43.046875 
Q 18.109375 38.09375 18.109375 28.8125 
L 18.109375 0 
L 9.078125 0 
L 9.078125 54.6875 
L 18.109375 54.6875 
L 18.109375 46.1875 
Q 20.953125 51.171875 25.484375 53.578125 
Q 30.03125 56 36.53125 56 
Q 37.453125 56 38.578125 55.875 
Q 39.703125 55.765625 41.0625 55.515625 
z
" id="DejaVuSans-72"/>
      <path d="M 44.28125 53.078125 
L 44.28125 44.578125 
Q 40.484375 46.53125 36.375 47.5 
Q 32.28125 48.484375 27.875 48.484375 
Q 21.1875 48.484375 17.84375 46.4375 
Q 14.5 44.390625 14.5 40.28125 
Q 14.5 37.15625 16.890625 35.375 
Q 19.28125 33.59375 26.515625 31.984375 
L 29.59375 31.296875 
Q 39.15625 29.25 43.1875 25.515625 
Q 47.21875 21.78125 47.21875 15.09375 
Q 47.21875 7.46875 41.1875 3.015625 
Q 35.15625 -1.421875 24.609375 -1.421875 
Q 20.21875 -1.421875 15.453125 -0.5625 
Q 10.6875 0.296875 5.421875 2 
L 5.421875 11.28125 
Q 10.40625 8.6875 15.234375 7.390625 
Q 20.0625 6.109375 24.8125 6.109375 
Q 31.15625 6.109375 34.5625 8.28125 
Q 37.984375 10.453125 37.984375 14.40625 
Q 37.984375 18.0625 35.515625 20.015625 
Q 33.0625 21.96875 24.703125 23.78125 
L 21.578125 24.515625 
Q 13.234375 26.265625 9.515625 29.90625 
Q 5.8125 33.546875 5.8125 39.890625 
Q 5.8125 47.609375 11.28125 51.796875 
Q 16.75 56 26.8125 56 
Q 31.78125 56 36.171875 55.265625 
Q 40.578125 54.546875 44.28125 53.078125 
z
" id="DejaVuSans-73"/>
     </defs>
     <g transform="translate(747.210938 1368.553125)scale(0.2 -0.2)">
      <use xlink:href="#DejaVuSans-59"/>
      <use x="60.880859" xlink:href="#DejaVuSans-65"/>
      <use x="122.404297" xlink:href="#DejaVuSans-61"/>
      <use x="183.683594" xlink:href="#DejaVuSans-72"/>
      <use x="224.796875" xlink:href="#DejaVuSans-73"/>
     </g>
    </g>
   </g>
   <g id="matplotlib.axis_2">
    <g id="ytick_1">
     <g id="line2d_13">
      <defs>
       <path d="M 0 0 
L -3.5 0 
" id="mf1ba12d35a" style="stroke:#000000;stroke-width:0.8;"/>
      </defs>
      <g>
       <use style="stroke:#000000;stroke-width:0.8;" x="189" xlink:href="#mf1ba12d35a" y="1323"/>
      </g>
     </g>
     <g id="text_14">
      <!-- 0.0 -->
      <defs>
       <path d="M 10.6875 12.40625 
L 21 12.40625 
L 21 0 
L 10.6875 0 
z
" id="DejaVuSans-2e"/>
      </defs>
      <g transform="translate(150.19375 1330.598438)scale(0.2 -0.2)">
       <use xlink:href="#DejaVuSans-30"/>
       <use x="63.623047" xlink:href="#DejaVuSans-2e"/>
       <use x="95.410156" xlink:href="#DejaVuSans-30"/>
      </g>
     </g>
    </g>
    <g id="ytick_2">
     <g id="line2d_14">
      <g>
       <use style="stroke:#000000;stroke-width:0.8;" x="189" xlink:href="#mf1ba12d35a" y="1094.688"/>
      </g>
     </g>
     <g id="text_15">
      <!-- 10.0 -->
      <g transform="translate(137.46875 1102.286437)scale(0.2 -0.2)">
       <use xlink:href="#DejaVuSans-31"/>
       <use x="63.623047" xlink:href="#DejaVuSans-30"/>
       <use x="127.246094" xlink:href="#DejaVuSans-2e"/>
       <use x="159.033203" xlink:href="#DejaVuSans-30"/>
      </g>
     </g>
    </g>
    <g id="ytick_3">
     <g id="line2d_15">
      <g>
       <use style="stroke:#000000;stroke-width:0.8;" x="189" xlink:href="#mf1ba12d35a" y="866.376"/>
      </g>
     </g>
     <g id="text_16">
      <!-- 20.0 -->
      <g transform="translate(137.46875 873.974438)scale(0.2 -0.2)">
       <use xlink:href="#DejaVuSans-32"/>
       <use x="63.623047" xlink:href="#DejaVuSans-30"/>
       <use x="127.246094" xlink:href="#DejaVuSans-2e"/>
       <use x="159.033203" xlink:href="#DejaVuSans-30"/>
      </g>
     </g>
    </g>
    <g id="ytick_4">
     <g id="line2d_16">
      <g>
       <use style="stroke:#000000;stroke-width:0.8;" x="189" xlink:href="#mf1ba12d35a" y="638.064"/>
      </g>
     </g>
     <g id="text_17">
      <!-- 30.0 -->
      <g transform="translate(137.46875 645.662438)scale(0.2 -0.2)">
       <use xlink:href="#DejaVuSans-33"/>
       <use x="63.623047" xlink:href="#DejaVuSans-30"/>
       <use x="127.246094" xlink:href="#DejaVuSans-2e"/>
       <use x="159.033203" xlink:href="#DejaVuSans-30"/>
      </g>
     </g>
    </g>
    <g id="ytick_5">
     <g id="line2d_17">
      <g>
       <use style="stroke:#000000;stroke-width:0.8;" x="189" xlink:href="#mf1ba12d35a" y="409.752"/>
      </g>
     </g>
     <g id="text_18">
      <!-- 40.0 -->
      <g transform="translate(137.46875 417.350437)scale(0.2 -0.2)">
       <use xlink:href="#DejaVuSans-34"/>
       <use x="63.623047" xlink:href="#DejaVuSans-30"/>
       <use x="127.246094" xlink:href="#DejaVuSans-2e"/>
       <use x="159.033203" xlink:href="#DejaVuSans-30"/>
      </g>
     </g>
    </g>
    <g id="ytick_6">
     <g id="line2d_18">
      <g>
       <use style="stroke:#000000;stroke-width:0.8;" x="189" xlink:href="#mf1ba12d35a" y="181.44"/>
      </g>
     </g>
     <g id="text_19">
      <!-- 50.0 -->
      <g transform="translate(137.46875 189.038438)scale(0.2 -0.2)">
       <use xlink:href="#DejaVuSans-35"/>
       <use x="63.623047" xlink:href="#DejaVuSans-30"/>
       <use x="127.246094" xlink:href="#DejaVuSans-2e"/>
       <use x="159.033203" xlink:href="#DejaVuSans-30"/>
      </g>
     </g>
    </g>
    <g id="text_20">
     <!-- Population Number (in Hundreds) -->
     <defs>
      <path d="M 19.671875 64.796875 
L 19.671875 37.40625 
L 32.078125 37.40625 
Q 38.96875 37.40625 42.71875 40.96875 
Q 46.484375 44.53125 46.484375 51.125 
Q 46.484375 57.671875 42.71875 61.234375 
Q 38.96875 64.796875 32.078125 64.796875 
z
M 9.8125 72.90625 
L 32.078125 72.90625 
Q 44.34375 72.90625 50.609375 67.359375 
Q 56.890625 61.8125 56.890625 51.125 
Q 56.890625 40.328125 50.609375 34.8125 
Q 44.34375 29.296875 32.078125 29.296875 
L 19.671875 29.296875 
L 19.671875 0 
L 9.8125 0 
z
" id="DejaVuSans-50"/>
      <path d="M 30.609375 48.390625 
Q 23.390625 48.390625 19.1875 42.75 
Q 14.984375 37.109375 14.984375 27.296875 
Q 14.984375 17.484375 19.15625 11.84375 
Q 23.34375 6.203125 30.609375 6.203125 
Q 37.796875 6.203125 41.984375 11.859375 
Q 46.1875 17.53125 46.1875 27.296875 
Q 46.1875 37.015625 41.984375 42.703125 
Q 37.796875 48.390625 30.609375 48.390625 
z
M 30.609375 56 
Q 42.328125 56 49.015625 48.375 
Q 55.71875 40.765625 55.71875 27.296875 
Q 55.71875 13.875 49.015625 6.21875 
Q 42.328125 -1.421875 30.609375 -1.421875 
Q 18.84375 -1.421875 12.171875 6.21875 
Q 5.515625 13.875 5.515625 27.296875 
Q 5.515625 40.765625 12.171875 48.375 
Q 18.84375 56 30.609375 56 
z
" id="DejaVuSans-6f"/>
      <path d="M 18.109375 8.203125 
L 18.109375 -20.796875 
L 9.078125 -20.796875 
L 9.078125 54.6875 
L 18.109375 54.6875 
L 18.109375 46.390625 
Q 20.953125 51.265625 25.265625 53.625 
Q 29.59375 56 35.59375 56 
Q 45.5625 56 51.78125 48.09375 
Q 58.015625 40.1875 58.015625 27.296875 
Q 58.015625 14.40625 51.78125 6.484375 
Q 45.5625 -1.421875 35.59375 -1.421875 
Q 29.59375 -1.421875 25.265625 0.953125 
Q 20.953125 3.328125 18.109375 8.203125 
z
M 48.6875 27.296875 
Q 48.6875 37.203125 44.609375 42.84375 
Q 40.53125 48.484375 33.40625 48.484375 
Q 26.265625 48.484375 22.1875 42.84375 
Q 18.109375 37.203125 18.109375 27.296875 
Q 18.109375 17.390625 22.1875 11.75 
Q 26.265625 6.109375 33.40625 6.109375 
Q 40.53125 6.109375 44.609375 11.75 
Q 48.6875 17.390625 48.6875 27.296875 
z
" id="DejaVuSans-70"/>
      <path d="M 8.5 21.578125 
L 8.5 54.6875 
L 17.484375 54.6875 
L 17.484375 21.921875 
Q 17.484375 14.15625 20.5 10.265625 
Q 23.53125 6.390625 29.59375 6.390625 
Q 36.859375 6.390625 41.078125 11.03125 
Q 45.3125 15.671875 45.3125 23.6875 
L 45.3125 54.6875 
L 54.296875 54.6875 
L 54.296875 0 
L 45.3125 0 
L 45.3125 8.40625 
Q 42.046875 3.421875 37.71875 1 
Q 33.40625 -1.421875 27.6875 -1.421875 
Q 18.265625 -1.421875 13.375 4.4375 
Q 8.5 10.296875 8.5 21.578125 
z
M 31.109375 56 
z
" id="DejaVuSans-75"/>
      <path d="M 9.421875 75.984375 
L 18.40625 75.984375 
L 18.40625 0 
L 9.421875 0 
z
" id="DejaVuSans-6c"/>
      <path d="M 18.3125 70.21875 
L 18.3125 54.6875 
L 36.8125 54.6875 
L 36.8125 47.703125 
L 18.3125 47.703125 
L 18.3125 18.015625 
Q 18.3125 11.328125 20.140625 9.421875 
Q 21.96875 7.515625 27.59375 7.515625 
L 36.8125 7.515625 
L 36.8125 0 
L 27.59375 0 
Q 17.1875 0 13.234375 3.875 
Q 9.28125 7.765625 9.28125 18.015625 
L 9.28125 47.703125 
L 2.6875 47.703125 
L 2.6875 54.6875 
L 9.28125 54.6875 
L 9.28125 70.21875 
z
" id="DejaVuSans-74"/>
      <path d="M 9.421875 54.6875 
L 18.40625 54.6875 
L 18.40625 0 
L 9.421875 0 
z
M 9.421875 75.984375 
L 18.40625 75.984375 
L 18.40625 64.59375 
L 9.421875 64.59375 
z
" id="DejaVuSans-69"/>
      <path d="M 54.890625 33.015625 
L 54.890625 0 
L 45.90625 0 
L 45.90625 32.71875 
Q 45.90625 40.484375 42.875 44.328125 
Q 39.84375 48.1875 33.796875 48.1875 
Q 26.515625 48.1875 22.3125 43.546875 
Q 18.109375 38.921875 18.109375 30.90625 
L 18.109375 0 
L 9.078125 0 
L 9.078125 54.6875 
L 18.109375 54.6875 
L 18.109375 46.1875 
Q 21.34375 51.125 25.703125 53.5625 
Q 30.078125 56 35.796875 56 
Q 45.21875 56 50.046875 50.171875 
Q 54.890625 44.34375 54.890625 33.015625 
z
" id="DejaVuSans-6e"/>
      <path id="DejaVuSans-20"/>
      <path d="M 9.8125 72.90625 
L 23.09375 72.90625 
L 55.421875 11.921875 
L 55.421875 72.90625 
L 64.984375 72.90625 
L 64.984375 0 
L 51.703125 0 
L 19.390625 60.984375 
L 19.390625 0 
L 9.8125 0 
z
" id="DejaVuSans-4e"/>
      <path d="M 52 44.1875 
Q 55.375 50.25 60.0625 53.125 
Q 64.75 56 71.09375 56 
Q 79.640625 56 84.28125 50.015625 
Q 88.921875 44.046875 88.921875 33.015625 
L 88.921875 0 
L 79.890625 0 
L 79.890625 32.71875 
Q 79.890625 40.578125 77.09375 44.375 
Q 74.3125 48.1875 68.609375 48.1875 
Q 61.625 48.1875 57.5625 43.546875 
Q 53.515625 38.921875 53.515625 30.90625 
L 53.515625 0 
L 44.484375 0 
L 44.484375 32.71875 
Q 44.484375 40.625 41.703125 44.40625 
Q 38.921875 48.1875 33.109375 48.1875 
Q 26.21875 48.1875 22.15625 43.53125 
Q 18.109375 38.875 18.109375 30.90625 
L 18.109375 0 
L 9.078125 0 
L 9.078125 54.6875 
L 18.109375 54.6875 
L 18.109375 46.1875 
Q 21.1875 51.21875 25.484375 53.609375 
Q 29.78125 56 35.6875 56 
Q 41.65625 56 45.828125 52.96875 
Q 50 49.953125 52 44.1875 
z
" id="DejaVuSans-6d"/>
      <path d="M 48.6875 27.296875 
Q 48.6875 37.203125 44.609375 42.84375 
Q 40.53125 48.484375 33.40625 48.484375 
Q 26.265625 48.484375 22.1875 42.84375 
Q 18.109375 37.203125 18.109375 27.296875 
Q 18.109375 17.390625 22.1875 11.75 
Q 26.265625 6.109375 33.40625 6.109375 
Q 40.53125 6.109375 44.609375 11.75 
Q 48.6875 17.390625 48.6875 27.296875 
z
M 18.109375 46.390625 
Q 20.953125 51.265625 25.265625 53.625 
Q 29.59375 56 35.59375 56 
Q 45.5625 56 51.78125 48.09375 
Q 58.015625 40.1875 58.015625 27.296875 
Q 58.015625 14.40625 51.78125 6.484375 
Q 45.5625 -1.421875 35.59375 -1.421875 
Q 29.59375 -1.421875 25.265625 0.953125 
Q 20.953125 3.328125 18.109375 8.203125 
L 18.109375 0 
L 9.078125 0 
L 9.078125 75.984375 
L 18.109375 75.984375 
z
" id="DejaVuSans-62"/>
      <path d="M 31 75.875 
Q 24.46875 64.65625 21.28125 53.65625 
Q 18.109375 42.671875 18.109375 31.390625 
Q 18.109375 20.125 21.3125 9.0625 
Q 24.515625 -2 31 -13.1875 
L 23.1875 -13.1875 
Q 15.875 -1.703125 12.234375 9.375 
Q 8.59375 20.453125 8.59375 31.390625 
Q 8.59375 42.28125 12.203125 53.3125 
Q 15.828125 64.359375 23.1875 75.875 
z
" id="DejaVuSans-28"/>
      <path d="M 9.8125 72.90625 
L 19.671875 72.90625 
L 19.671875 43.015625 
L 55.515625 43.015625 
L 55.515625 72.90625 
L 65.375 72.90625 
L 65.375 0 
L 55.515625 0 
L 55.515625 34.71875 
L 19.671875 34.71875 
L 19.671875 0 
L 9.8125 0 
z
" id="DejaVuSans-48"/>
      <path d="M 45.40625 46.390625 
L 45.40625 75.984375 
L 54.390625 75.984375 
L 54.390625 0 
L 45.40625 0 
L 45.40625 8.203125 
Q 42.578125 3.328125 38.25 0.953125 
Q 33.9375 -1.421875 27.875 -1.421875 
Q 17.96875 -1.421875 11.734375 6.484375 
Q 5.515625 14.40625 5.515625 27.296875 
Q 5.515625 40.1875 11.734375 48.09375 
Q 17.96875 56 27.875 56 
Q 33.9375 56 38.25 53.625 
Q 42.578125 51.265625 45.40625 46.390625 
z
M 14.796875 27.296875 
Q 14.796875 17.390625 18.875 11.75 
Q 22.953125 6.109375 30.078125 6.109375 
Q 37.203125 6.109375 41.296875 11.75 
Q 45.40625 17.390625 45.40625 27.296875 
Q 45.40625 37.203125 41.296875 42.84375 
Q 37.203125 48.484375 30.078125 48.484375 
Q 22.953125 48.484375 18.875 42.84375 
Q 14.796875 37.203125 14.796875 27.296875 
z
" id="DejaVuSans-64"/>
      <path d="M 8.015625 75.875 
L 15.828125 75.875 
Q 23.140625 64.359375 26.78125 53.3125 
Q 30.421875 42.28125 30.421875 31.390625 
Q 30.421875 20.453125 26.78125 9.375 
Q 23.140625 -1.703125 15.828125 -13.1875 
L 8.015625 -13.1875 
Q 14.5 -2 17.703125 9.0625 
Q 20.90625 20.125 20.90625 31.390625 
Q 20.90625 42.671875 17.703125 53.65625 
Q 14.5 64.65625 8.015625 75.875 
z
" id="DejaVuSans-29"/>
     </defs>
     <g transform="translate(129.309375 920.098125)rotate(-90)scale(0.2 -0.2)">
      <use xlink:href="#DejaVuSans-50"/>
      <use x="60.255859" xlink:href="#DejaVuSans-6f"/>
      <use x="121.4375" xlink:href="#DejaVuSans-70"/>
      <use x="184.914062" xlink:href="#DejaVuSans-75"/>
      <use x="248.292969" xlink:href="#DejaVuSans-6c"/>
      <use x="276.076172" xlink:href="#DejaVuSans-61"/>
      <use x="337.355469" xlink:href="#DejaVuSans-74"/>
      <use x="376.564453" xlink:href="#DejaVuSans-69"/>
      <use x="404.347656" xlink:href="#DejaVuSans-6f"/>
      <use x="465.529297" xlink:href="#DejaVuSans-6e"/>
      <use x="528.908203" xlink:href="#DejaVuSans-20"/>
      <use x="560.695312" xlink:href="#DejaVuSans-4e"/>
      <use x="635.5" xlink:href="#DejaVuSans-75"/>
      <use x="698.878906" xlink:href="#DejaVuSans-6d"/>
      <use x="796.291016" xlink:href="#DejaVuSans-62"/>
      <use x="859.767578" xlink:href="#DejaVuSans-65"/>
      <use x="921.291016" xlink:href="#DejaVuSans-72"/>
      <use x="962.404297" xlink:href="#DejaVuSans-20"/>
      <use x="994.191406" xlink:href="#DejaVuSans-28"/>
      <use x="1033.205078" xlink:href="#DejaVuSans-69"/>
      <use x="1060.988281" xlink:href="#DejaVuSans-6e"/>
      <use x="1124.367188" xlink:href="#DejaVuSans-20"/>
      <use x="1156.154297" xlink:href="#DejaVuSans-48"/>
      <use x="1231.349609" xlink:href="#DejaVuSans-75"/>
      <use x="1294.728516" xlink:href="#DejaVuSans-6e"/>
      <use x="1358.107422" xlink:href="#DejaVuSans-64"/>
      <use x="1421.583984" xlink:href="#DejaVuSans-72"/>
      <use x="1462.666016" xlink:href="#DejaVuSans-65"/>
      <use x="1524.189453" xlink:href="#DejaVuSans-64"/>
      <use x="1587.666016" xlink:href="#DejaVuSans-73"/>
      <use x="1639.765625" xlink:href="#DejaVuSans-29"/>
     </g>
    </g>
   </g>
   <g id="LineCollection_1">
    <path clip-path="url(#p699edc82b4)" d="M 242.263636 1323 
L 242.263636 1323 
" style="fill:none;stroke:#1f77b4;stroke-width:3;"/>
    <path clip-path="url(#p699edc82b4)" d="M 339.106612 1316.930025 
L 339.106612 1313.590421 
" style="fill:none;stroke:#1f77b4;stroke-width:3;"/>
    <path clip-path="url(#p699edc82b4)" d="M 435.949587 1264.161435 
L 435.949587 1257.043225 
" style="fill:none;stroke:#1f77b4;stroke-width:3;"/>
    <path clip-path="url(#p699edc82b4)" d="M 532.792562 1187.202084 
L 532.792562 1173.042617 
" style="fill:none;stroke:#1f77b4;stroke-width:3;"/>
    <path clip-path="url(#p699edc82b4)" d="M 629.635537 1095.138684 
L 629.635537 1080.401609 
" style="fill:none;stroke:#1f77b4;stroke-width:3;"/>
    <path clip-path="url(#p699edc82b4)" d="M 726.478512 1005.737755 
L 726.478512 986.833301 
" style="fill:none;stroke:#1f77b4;stroke-width:3;"/>
    <path clip-path="url(#p699edc82b4)" d="M 823.321488 911.794453 
L 823.321488 894.474011 
" style="fill:none;stroke:#1f77b4;stroke-width:3;"/>
    <path clip-path="url(#p699edc82b4)" d="M 920.164463 826.963868 
L 920.164463 806.42675 
" style="fill:none;stroke:#1f77b4;stroke-width:3;"/>
    <path clip-path="url(#p699edc82b4)" d="M 1017.007438 746.104581 
L 1017.007438 724.271268 
" style="fill:none;stroke:#1f77b4;stroke-width:3;"/>
    <path clip-path="url(#p699edc82b4)" d="M 1113.850413 670.409886 
L 1113.850413 642.522008 
" style="fill:none;stroke:#1f77b4;stroke-width:3;"/>
    <path clip-path="url(#p699edc82b4)" d="M 1210.693388 597.578651 
L 1210.693388 567.498392 
" style="fill:none;stroke:#1f77b4;stroke-width:3;"/>
    <path clip-path="url(#p699edc82b4)" d="M 1307.536364 527.033502 
L 1307.536364 494.298306 
" style="fill:none;stroke:#1f77b4;stroke-width:3;"/>
   </g>
   <g id="LineCollection_2">
    <path clip-path="url(#p699edc82b4)" d="M 242.263636 1323 
L 242.263636 1323 
" style="fill:none;stroke:#2ca02c;stroke-width:3;"/>
    <path clip-path="url(#p699edc82b4)" d="M 339.106612 1320.508596 
L 339.106612 1318.094095 
" style="fill:none;stroke:#2ca02c;stroke-width:3;"/>
    <path clip-path="url(#p699edc82b4)" d="M 435.949587 1293.85442 
L 435.949587 1288.400869 
" style="fill:none;stroke:#2ca02c;stroke-width:3;"/>
    <path clip-path="url(#p699edc82b4)" d="M 532.792562 1252.720252 
L 532.792562 1246.840431 
" style="fill:none;stroke:#2ca02c;stroke-width:3;"/>
    <path clip-path="url(#p699edc82b4)" d="M 629.635537 1208.943235 
L 629.635537 1201.027819 
" style="fill:none;stroke:#2ca02c;stroke-width:3;"/>
    <path clip-path="url(#p699edc82b4)" d="M 726.478512 1163.554332 
L 726.478512 1153.448076 
" style="fill:none;stroke:#2ca02c;stroke-width:3;"/>
    <path clip-path="url(#p699edc82b4)" d="M 823.321488 1121.305228 
L 823.321488 1108.116697 
" style="fill:none;stroke:#2ca02c;stroke-width:3;"/>
    <path clip-path="url(#p699edc82b4)" d="M 920.164463 1074.286601 
L 920.164463 1061.801378 
" style="fill:none;stroke:#2ca02c;stroke-width:3;"/>
    <path clip-path="url(#p699edc82b4)" d="M 1017.007438 1032.803064 
L 1017.007438 1021.36657 
" style="fill:none;stroke:#2ca02c;stroke-width:3;"/>
    <path clip-path="url(#p699edc82b4)" d="M 1113.850413 995.803363 
L 1113.850413 981.379464 
" style="fill:none;stroke:#2ca02c;stroke-width:3;"/>
    <path clip-path="url(#p699edc82b4)" d="M 1210.693388 961.252016 
L 1210.693388 940.313876 
" style="fill:none;stroke:#2ca02c;stroke-width:3;"/>
    <path clip-path="url(#p699edc82b4)" d="M 1307.536364 928.109658 
L 1307.536364 907.33708 
" style="fill:none;stroke:#2ca02c;stroke-width:3;"/>
   </g>
   <g id="LineCollection_3">
    <path clip-path="url(#p699edc82b4)" d="M 242.263636 1323 
L 242.263636 1323 
" style="fill:none;stroke:#9467bd;stroke-width:3;"/>
    <path clip-path="url(#p699edc82b4)" d="M 339.106612 1321.995427 
L 339.106612 1321.219166 
" style="fill:none;stroke:#9467bd;stroke-width:3;"/>
    <path clip-path="url(#p699edc82b4)" d="M 435.949587 1309.020595 
L 435.949587 1305.609336 
" style="fill:none;stroke:#9467bd;stroke-width:3;"/>
    <path clip-path="url(#p699edc82b4)" d="M 532.792562 1289.179741 
L 532.792562 1285.952214 
" style="fill:none;stroke:#9467bd;stroke-width:3;"/>
    <path clip-path="url(#p699edc82b4)" d="M 629.635537 1266.216339 
L 629.635537 1262.202981 
" style="fill:none;stroke:#9467bd;stroke-width:3;"/>
    <path clip-path="url(#p699edc82b4)" d="M 726.478512 1243.226201 
L 726.478512 1236.653987 
" style="fill:none;stroke:#9467bd;stroke-width:3;"/>
    <path clip-path="url(#p699edc82b4)" d="M 823.321488 1221.569579 
L 823.321488 1213.378808 
" style="fill:none;stroke:#9467bd;stroke-width:3;"/>
    <path clip-path="url(#p699edc82b4)" d="M 920.164463 1200.59672 
L 920.164463 1191.109374 
" style="fill:none;stroke:#9467bd;stroke-width:3;"/>
    <path clip-path="url(#p699edc82b4)" d="M 1017.007438 1181.387006 
L 1017.007438 1168.49233 
" style="fill:none;stroke:#9467bd;stroke-width:3;"/>
    <path clip-path="url(#p699edc82b4)" d="M 1113.850413 1161.071174 
L 1113.850413 1148.305613 
" style="fill:none;stroke:#9467bd;stroke-width:3;"/>
    <path clip-path="url(#p699edc82b4)" d="M 1210.693388 1144.39886 
L 1210.693388 1130.822452 
" style="fill:none;stroke:#9467bd;stroke-width:3;"/>
    <path clip-path="url(#p699edc82b4)" d="M 1307.536364 1125.32747 
L 1307.536364 1114.185845 
" style="fill:none;stroke:#9467bd;stroke-width:3;"/>
   </g>
   <g id="line2d_19">
    <defs>
     <path d="M 5 0 
L -5 -0 
" id="m5172772829" style="stroke:#1f77b4;"/>
    </defs>
    <g clip-path="url(#p699edc82b4)">
     <use style="fill:#1f77b4;stroke:#1f77b4;" x="242.263636" xlink:href="#m5172772829" y="1323"/>
     <use style="fill:#1f77b4;stroke:#1f77b4;" x="339.106612" xlink:href="#m5172772829" y="1316.930025"/>
     <use style="fill:#1f77b4;stroke:#1f77b4;" x="435.949587" xlink:href="#m5172772829" y="1264.161435"/>
     <use style="fill:#1f77b4;stroke:#1f77b4;" x="532.792562" xlink:href="#m5172772829" y="1187.202084"/>
     <use style="fill:#1f77b4;stroke:#1f77b4;" x="629.635537" xlink:href="#m5172772829" y="1095.138684"/>
     <use style="fill:#1f77b4;stroke:#1f77b4;" x="726.478512" xlink:href="#m5172772829" y="1005.737755"/>
     <use style="fill:#1f77b4;stroke:#1f77b4;" x="823.321488" xlink:href="#m5172772829" y="911.794453"/>
     <use style="fill:#1f77b4;stroke:#1f77b4;" x="920.164463" xlink:href="#m5172772829" y="826.963868"/>
     <use style="fill:#1f77b4;stroke:#1f77b4;" x="1017.007438" xlink:href="#m5172772829" y="746.104581"/>
     <use style="fill:#1f77b4;stroke:#1f77b4;" x="1113.850413" xlink:href="#m5172772829" y="670.409886"/>
     <use style="fill:#1f77b4;stroke:#1f77b4;" x="1210.693388" xlink:href="#m5172772829" y="597.578651"/>
     <use style="fill:#1f77b4;stroke:#1f77b4;" x="1307.536364" xlink:href="#m5172772829" y="527.033502"/>
    </g>
   </g>
   <g id="line2d_20">
    <g clip-path="url(#p699edc82b4)">
     <use style="fill:#1f77b4;stroke:#1f77b4;" x="242.263636" xlink:href="#m5172772829" y="1323"/>
     <use style="fill:#1f77b4;stroke:#1f77b4;" x="339.106612" xlink:href="#m5172772829" y="1313.590421"/>
     <use style="fill:#1f77b4;stroke:#1f77b4;" x="435.949587" xlink:href="#m5172772829" y="1257.043225"/>
     <use style="fill:#1f77b4;stroke:#1f77b4;" x="532.792562" xlink:href="#m5172772829" y="1173.042617"/>
     <use style="fill:#1f77b4;stroke:#1f77b4;" x="629.635537" xlink:href="#m5172772829" y="1080.401609"/>
     <use style="fill:#1f77b4;stroke:#1f77b4;" x="726.478512" xlink:href="#m5172772829" y="986.833301"/>
     <use style="fill:#1f77b4;stroke:#1f77b4;" x="823.321488" xlink:href="#m5172772829" y="894.474011"/>
     <use style="fill:#1f77b4;stroke:#1f77b4;" x="920.164463" xlink:href="#m5172772829" y="806.42675"/>
     <use style="fill:#1f77b4;stroke:#1f77b4;" x="1017.007438" xlink:href="#m5172772829" y="724.271268"/>
     <use style="fill:#1f77b4;stroke:#1f77b4;" x="1113.850413" xlink:href="#m5172772829" y="642.522008"/>
     <use style="fill:#1f77b4;stroke:#1f77b4;" x="1210.693388" xlink:href="#m5172772829" y="567.498392"/>
     <use style="fill:#1f77b4;stroke:#1f77b4;" x="1307.536364" xlink:href="#m5172772829" y="494.298306"/>
    </g>
   </g>
   <g id="line2d_21">
    <path clip-path="url(#p699edc82b4)" d="M 242.263636 1323 
L 251.947934 1325.001029 
L 261.632231 1326.32329 
L 271.316529 1326.990071 
L 281.000826 1327.024659 
L 290.685124 1326.45034 
L 300.369421 1325.290404 
L 310.053719 1323.568136 
L 319.738017 1321.306826 
L 329.422314 1318.529759 
L 339.106612 1315.260223 
L 348.790909 1311.521507 
L 358.475207 1307.336896 
L 368.159504 1302.72968 
L 377.843802 1297.723144 
L 387.528099 1292.340577 
L 397.212397 1286.605266 
L 406.896694 1280.540499 
L 416.580992 1274.169562 
L 426.265289 1267.515743 
L 435.949587 1260.60233 
L 445.633884 1253.450419 
L 455.318182 1246.07234 
L 465.002479 1238.478233 
L 474.686777 1230.678235 
L 484.371074 1222.682487 
L 494.055372 1214.501127 
L 503.739669 1206.144294 
L 513.423967 1197.622128 
L 523.108264 1188.944767 
L 532.792562 1180.12235 
L 542.47686 1171.166637 
L 552.161157 1162.095862 
L 561.845455 1152.929883 
L 571.529752 1143.688553 
L 581.21405 1134.39173 
L 590.898347 1125.059268 
L 600.582645 1115.711023 
L 610.266942 1106.36685 
L 619.95124 1097.046606 
L 629.635537 1087.770146 
L 639.319835 1078.551829 
L 649.004132 1069.384029 
L 658.68843 1060.253624 
L 668.372727 1051.14749 
L 678.057025 1042.052505 
L 687.741322 1032.955547 
L 697.42562 1023.843493 
L 707.109917 1014.70322 
L 716.794215 1005.521606 
L 726.478512 996.285528 
L 736.16281 986.986956 
L 745.847107 977.638227 
L 755.531405 968.256769 
L 765.215702 958.860013 
L 774.9 949.465387 
L 784.584298 940.09032 
L 794.268595 930.752243 
L 803.952893 921.468582 
L 813.63719 912.256769 
L 823.321488 903.134232 
L 833.005785 894.114442 
L 842.690083 885.195037 
L 852.37438 876.369699 
L 862.058678 867.632106 
L 871.742975 858.975939 
L 881.427273 850.394879 
L 891.11157 841.882606 
L 900.795868 833.432799 
L 910.480165 825.03914 
L 920.164463 816.695309 
L 929.84876 808.395566 
L 939.533058 800.136495 
L 949.217355 791.915262 
L 958.901653 783.729031 
L 968.58595 775.574968 
L 978.270248 767.450236 
L 987.954545 759.352001 
L 997.638843 751.277428 
L 1007.32314 743.223681 
L 1017.007438 735.187925 
L 1026.691736 727.168595 
L 1036.376033 719.169205 
L 1046.060331 711.194538 
L 1055.744628 703.249378 
L 1065.428926 695.338509 
L 1075.113223 687.466714 
L 1084.797521 679.638776 
L 1094.481818 671.85948 
L 1104.166116 664.13361 
L 1113.850413 656.465947 
L 1123.534711 648.859772 
L 1133.219008 641.312345 
L 1142.903306 633.819422 
L 1152.587603 626.376757 
L 1162.271901 618.980107 
L 1171.956198 611.625228 
L 1181.640496 604.307874 
L 1191.324793 597.023801 
L 1201.009091 589.768765 
L 1210.693388 582.538522 
L 1220.377686 575.328826 
L 1230.061983 568.135435 
L 1239.746281 560.954102 
L 1249.430579 553.780585 
L 1259.114876 546.610638 
L 1268.799174 539.440017 
L 1278.483471 532.264477 
L 1288.167769 525.079775 
L 1297.852066 517.881665 
" style="fill:none;stroke:#ff7f0e;stroke-linecap:square;stroke-width:4;"/>
   </g>
   <g id="line2d_22">
    <defs>
     <path d="M 5 0 
L -5 -0 
" id="mb41f81a2c1" style="stroke:#2ca02c;"/>
    </defs>
    <g clip-path="url(#p699edc82b4)">
     <use style="fill:#2ca02c;stroke:#2ca02c;" x="242.263636" xlink:href="#mb41f81a2c1" y="1323"/>
     <use style="fill:#2ca02c;stroke:#2ca02c;" x="339.106612" xlink:href="#mb41f81a2c1" y="1320.508596"/>
     <use style="fill:#2ca02c;stroke:#2ca02c;" x="435.949587" xlink:href="#mb41f81a2c1" y="1293.85442"/>
     <use style="fill:#2ca02c;stroke:#2ca02c;" x="532.792562" xlink:href="#mb41f81a2c1" y="1252.720252"/>
     <use style="fill:#2ca02c;stroke:#2ca02c;" x="629.635537" xlink:href="#mb41f81a2c1" y="1208.943235"/>
     <use style="fill:#2ca02c;stroke:#2ca02c;" x="726.478512" xlink:href="#mb41f81a2c1" y="1163.554332"/>
     <use style="fill:#2ca02c;stroke:#2ca02c;" x="823.321488" xlink:href="#mb41f81a2c1" y="1121.305228"/>
     <use style="fill:#2ca02c;stroke:#2ca02c;" x="920.164463" xlink:href="#mb41f81a2c1" y="1074.286601"/>
     <use style="fill:#2ca02c;stroke:#2ca02c;" x="1017.007438" xlink:href="#mb41f81a2c1" y="1032.803064"/>
     <use style="fill:#2ca02c;stroke:#2ca02c;" x="1113.850413" xlink:href="#mb41f81a2c1" y="995.803363"/>
     <use style="fill:#2ca02c;stroke:#2ca02c;" x="1210.693388" xlink:href="#mb41f81a2c1" y="961.252016"/>
     <use style="fill:#2ca02c;stroke:#2ca02c;" x="1307.536364" xlink:href="#mb41f81a2c1" y="928.109658"/>
    </g>
   </g>
   <g id="line2d_23">
    <g clip-path="url(#p699edc82b4)">
     <use style="fill:#2ca02c;stroke:#2ca02c;" x="242.263636" xlink:href="#mb41f81a2c1" y="1323"/>
     <use style="fill:#2ca02c;stroke:#2ca02c;" x="339.106612" xlink:href="#mb41f81a2c1" y="1318.094095"/>
     <use style="fill:#2ca02c;stroke:#2ca02c;" x="435.949587" xlink:href="#mb41f81a2c1" y="1288.400869"/>
     <use style="fill:#2ca02c;stroke:#2ca02c;" x="532.792562" xlink:href="#mb41f81a2c1" y="1246.840431"/>
     <use style="fill:#2ca02c;stroke:#2ca02c;" x="629.635537" xlink:href="#mb41f81a2c1" y="1201.027819"/>
     <use style="fill:#2ca02c;stroke:#2ca02c;" x="726.478512" xlink:href="#mb41f81a2c1" y="1153.448076"/>
     <use style="fill:#2ca02c;stroke:#2ca02c;" x="823.321488" xlink:href="#mb41f81a2c1" y="1108.116697"/>
     <use style="fill:#2ca02c;stroke:#2ca02c;" x="920.164463" xlink:href="#mb41f81a2c1" y="1061.801378"/>
     <use style="fill:#2ca02c;stroke:#2ca02c;" x="1017.007438" xlink:href="#mb41f81a2c1" y="1021.36657"/>
     <use style="fill:#2ca02c;stroke:#2ca02c;" x="1113.850413" xlink:href="#mb41f81a2c1" y="981.379464"/>
     <use style="fill:#2ca02c;stroke:#2ca02c;" x="1210.693388" xlink:href="#mb41f81a2c1" y="940.313876"/>
     <use style="fill:#2ca02c;stroke:#2ca02c;" x="1307.536364" xlink:href="#mb41f81a2c1" y="907.33708"/>
    </g>
   </g>
   <g id="line2d_24">
    <path clip-path="url(#p699edc82b4)" d="M 242.263636 1323 
L 251.947934 1324.045745 
L 261.632231 1324.747508 
L 271.316529 1325.116314 
L 281.000826 1325.16319 
L 290.685124 1324.899161 
L 300.369421 1324.335254 
L 310.053719 1323.482492 
L 319.738017 1322.351903 
L 329.422314 1320.954513 
L 339.106612 1319.301346 
L 348.790909 1317.403428 
L 358.475207 1315.271786 
L 368.159504 1312.917445 
L 377.843802 1310.35143 
L 387.528099 1307.584768 
L 397.212397 1304.628484 
L 406.896694 1301.493604 
L 416.580992 1298.191154 
L 426.265289 1294.732159 
L 435.949587 1291.127645 
L 445.633884 1287.388913 
L 455.318182 1283.528369 
L 465.002479 1279.558691 
L 474.686777 1275.49256 
L 484.371074 1271.342656 
L 494.055372 1267.121659 
L 503.739669 1262.842249 
L 513.423967 1258.517106 
L 523.108264 1254.15891 
L 532.792562 1249.780342 
L 542.47686 1245.391402 
L 552.161157 1240.99138 
L 561.845455 1236.576886 
L 571.529752 1232.144532 
L 581.21405 1227.690928 
L 590.898347 1223.212684 
L 600.582645 1218.706411 
L 610.266942 1214.16872 
L 619.95124 1209.596222 
L 629.635537 1204.985527 
L 639.319835 1200.335715 
L 649.004132 1195.655743 
L 658.68843 1190.957034 
L 668.372727 1186.251016 
L 678.057025 1181.549112 
L 687.741322 1176.862749 
L 697.42562 1172.203351 
L 707.109917 1167.582344 
L 716.794215 1163.011154 
L 726.478512 1158.501204 
L 736.16281 1154.059348 
L 745.847107 1149.674149 
L 755.531405 1145.329596 
L 765.215702 1141.009679 
L 774.9 1136.698388 
L 784.584298 1132.379712 
L 794.268595 1128.037642 
L 803.952893 1123.656167 
L 813.63719 1119.219277 
L 823.321488 1114.710962 
L 833.005785 1110.121079 
L 842.690083 1105.46295 
L 852.37438 1100.755768 
L 862.058678 1096.018722 
L 871.742975 1091.271004 
L 881.427273 1086.531803 
L 891.11157 1081.82031 
L 900.795868 1077.155717 
L 910.480165 1072.557213 
L 920.164463 1068.04399 
L 929.84876 1063.630498 
L 939.533058 1059.312232 
L 949.217355 1055.079947 
L 958.901653 1050.924397 
L 968.58595 1046.836337 
L 978.270248 1042.806523 
L 987.954545 1038.825709 
L 997.638843 1034.88465 
L 1007.32314 1030.974101 
L 1017.007438 1027.084817 
L 1026.691736 1023.208816 
L 1036.376033 1019.343172 
L 1046.060331 1015.486223 
L 1055.744628 1011.636307 
L 1065.428926 1007.791762 
L 1075.113223 1003.950925 
L 1084.797521 1000.112134 
L 1094.481818 996.273726 
L 1104.166116 992.43404 
L 1113.850413 988.591414 
L 1123.534711 984.745329 
L 1133.219008 980.89985 
L 1142.903306 977.060187 
L 1152.587603 973.231549 
L 1162.271901 969.419144 
L 1171.956198 965.628182 
L 1181.640496 961.863872 
L 1191.324793 958.131423 
L 1201.009091 954.436045 
L 1210.693388 950.782946 
L 1220.377686 947.177337 
L 1230.061983 943.624425 
L 1239.746281 940.129421 
L 1249.430579 936.697534 
L 1259.114876 933.333972 
L 1268.799174 930.043944 
L 1278.483471 926.832661 
L 1288.167769 923.705332 
L 1297.852066 920.667164 
" style="fill:none;stroke:#d62728;stroke-linecap:square;stroke-width:4;"/>
   </g>
   <g id="line2d_25">
    <defs>
     <path d="M 5 0 
L -5 -0 
" id="mb45eac5c11" style="stroke:#9467bd;"/>
    </defs>
    <g clip-path="url(#p699edc82b4)">
     <use style="fill:#9467bd;stroke:#9467bd;" x="242.263636" xlink:href="#mb45eac5c11" y="1323"/>
     <use style="fill:#9467bd;stroke:#9467bd;" x="339.106612" xlink:href="#mb45eac5c11" y="1321.995427"/>
     <use style="fill:#9467bd;stroke:#9467bd;" x="435.949587" xlink:href="#mb45eac5c11" y="1309.020595"/>
     <use style="fill:#9467bd;stroke:#9467bd;" x="532.792562" xlink:href="#mb45eac5c11" y="1289.179741"/>
     <use style="fill:#9467bd;stroke:#9467bd;" x="629.635537" xlink:href="#mb45eac5c11" y="1266.216339"/>
     <use style="fill:#9467bd;stroke:#9467bd;" x="726.478512" xlink:href="#mb45eac5c11" y="1243.226201"/>
     <use style="fill:#9467bd;stroke:#9467bd;" x="823.321488" xlink:href="#mb45eac5c11" y="1221.569579"/>
     <use style="fill:#9467bd;stroke:#9467bd;" x="920.164463" xlink:href="#mb45eac5c11" y="1200.59672"/>
     <use style="fill:#9467bd;stroke:#9467bd;" x="1017.007438" xlink:href="#mb45eac5c11" y="1181.387006"/>
     <use style="fill:#9467bd;stroke:#9467bd;" x="1113.850413" xlink:href="#mb45eac5c11" y="1161.071174"/>
     <use style="fill:#9467bd;stroke:#9467bd;" x="1210.693388" xlink:href="#mb45eac5c11" y="1144.39886"/>
     <use style="fill:#9467bd;stroke:#9467bd;" x="1307.536364" xlink:href="#mb45eac5c11" y="1125.32747"/>
    </g>
   </g>
   <g id="line2d_26">
    <g clip-path="url(#p699edc82b4)">
     <use style="fill:#9467bd;stroke:#9467bd;" x="242.263636" xlink:href="#mb45eac5c11" y="1323"/>
     <use style="fill:#9467bd;stroke:#9467bd;" x="339.106612" xlink:href="#mb45eac5c11" y="1321.219166"/>
     <use style="fill:#9467bd;stroke:#9467bd;" x="435.949587" xlink:href="#mb45eac5c11" y="1305.609336"/>
     <use style="fill:#9467bd;stroke:#9467bd;" x="532.792562" xlink:href="#mb45eac5c11" y="1285.952214"/>
     <use style="fill:#9467bd;stroke:#9467bd;" x="629.635537" xlink:href="#mb45eac5c11" y="1262.202981"/>
     <use style="fill:#9467bd;stroke:#9467bd;" x="726.478512" xlink:href="#mb45eac5c11" y="1236.653987"/>
     <use style="fill:#9467bd;stroke:#9467bd;" x="823.321488" xlink:href="#mb45eac5c11" y="1213.378808"/>
     <use style="fill:#9467bd;stroke:#9467bd;" x="920.164463" xlink:href="#mb45eac5c11" y="1191.109374"/>
     <use style="fill:#9467bd;stroke:#9467bd;" x="1017.007438" xlink:href="#mb45eac5c11" y="1168.49233"/>
     <use style="fill:#9467bd;stroke:#9467bd;" x="1113.850413" xlink:href="#mb45eac5c11" y="1148.305613"/>
     <use style="fill:#9467bd;stroke:#9467bd;" x="1210.693388" xlink:href="#mb45eac5c11" y="1130.822452"/>
     <use style="fill:#9467bd;stroke:#9467bd;" x="1307.536364" xlink:href="#mb45eac5c11" y="1114.185845"/>
    </g>
   </g>
   <g id="line2d_27">
    <path clip-path="url(#p699edc82b4)" d="M 242.263636 1323 
L 251.947934 1323.697187 
L 261.632231 1324.184543 
L 271.316529 1324.471051 
L 281.000826 1324.565692 
L 290.685124 1324.477448 
L 300.369421 1324.215299 
L 310.053719 1323.788228 
L 319.738017 1323.205217 
L 329.422314 1322.475246 
L 339.106612 1321.607297 
L 348.790909 1320.610352 
L 358.475207 1319.493392 
L 368.159504 1318.265399 
L 377.843802 1316.935354 
L 387.528099 1315.512239 
L 397.212397 1314.005035 
L 406.896694 1312.422725 
L 416.580992 1310.774288 
L 426.265289 1309.068708 
L 435.949587 1307.314966 
L 445.633884 1305.520503 
L 455.318182 1303.68661 
L 465.002479 1301.813037 
L 474.686777 1299.899533 
L 484.371074 1297.945849 
L 494.055372 1295.951734 
L 503.739669 1293.91694 
L 513.423967 1291.841215 
L 523.108264 1289.724311 
L 532.792562 1287.565978 
L 542.47686 1285.366525 
L 552.161157 1283.128507 
L 561.845455 1280.855038 
L 571.529752 1278.54923 
L 581.21405 1276.214198 
L 590.898347 1273.853056 
L 600.582645 1271.468918 
L 610.266942 1269.064896 
L 619.95124 1266.644106 
L 629.635537 1264.20966 
L 639.319835 1261.764814 
L 649.004132 1259.313386 
L 658.68843 1256.859334 
L 668.372727 1254.406619 
L 678.057025 1251.959198 
L 687.741322 1249.521032 
L 697.42562 1247.09608 
L 707.109917 1244.6883 
L 716.794215 1242.301652 
L 726.478512 1239.940094 
L 736.16281 1237.606486 
L 745.847107 1235.299278 
L 755.531405 1233.015823 
L 765.215702 1230.753471 
L 774.9 1228.509573 
L 784.584298 1226.281482 
L 794.268595 1224.066547 
L 803.952893 1221.862119 
L 813.63719 1219.665551 
L 823.321488 1217.474194 
L 833.005785 1215.285986 
L 842.690083 1213.101222 
L 852.37438 1210.920785 
L 862.058678 1208.745559 
L 871.742975 1206.576425 
L 881.427273 1204.414266 
L 891.11157 1202.259967 
L 900.795868 1200.114408 
L 910.480165 1197.978474 
L 920.164463 1195.853047 
L 929.84876 1193.738579 
L 939.533058 1191.633796 
L 949.217355 1189.536995 
L 958.901653 1187.446469 
L 968.58595 1185.360516 
L 978.270248 1183.27743 
L 987.954545 1181.195506 
L 997.638843 1179.113041 
L 1007.32314 1177.02833 
L 1017.007438 1174.939668 
L 1026.691736 1172.846578 
L 1036.376033 1170.753495 
L 1046.060331 1168.666078 
L 1055.744628 1166.58999 
L 1065.428926 1164.530892 
L 1075.113223 1162.494445 
L 1084.797521 1160.48631 
L 1094.481818 1158.512149 
L 1104.166116 1156.577623 
L 1113.850413 1154.688394 
L 1123.534711 1152.848199 
L 1133.219008 1151.05309 
L 1142.903306 1149.297195 
L 1152.587603 1147.574641 
L 1162.271901 1145.879557 
L 1171.956198 1144.20607 
L 1181.640496 1142.548308 
L 1191.324793 1140.9004 
L 1201.009091 1139.256473 
L 1210.693388 1137.610656 
L 1220.377686 1135.957076 
L 1230.061983 1134.289862 
L 1239.746281 1132.603141 
L 1249.430579 1130.891041 
L 1259.114876 1129.14769 
L 1268.799174 1127.367217 
L 1278.483471 1125.543749 
L 1288.167769 1123.671415 
L 1297.852066 1121.744342 
" style="fill:none;stroke:#8c564b;stroke-linecap:square;stroke-width:4;"/>
   </g>
   <g id="line2d_28">
    <defs>
     <path d="M 0 3 
C 0.795609 3 1.55874 2.683901 2.12132 2.12132 
C 2.683901 1.55874 3 0.795609 3 0 
C 3 -0.795609 2.683901 -1.55874 2.12132 -2.12132 
C 1.55874 -2.683901 0.795609 -3 0 -3 
C -0.795609 -3 -1.55874 -2.683901 -2.12132 -2.12132 
C -2.683901 -1.55874 -3 -0.795609 -3 0 
C -3 0.795609 -2.683901 1.55874 -2.12132 2.12132 
C -1.55874 2.683901 -0.795609 3 0 3 
z
" id="m3eb89ad5e1" style="stroke:#1f77b4;"/>
    </defs>
    <g clip-path="url(#p699edc82b4)">
     <use style="fill:#1f77b4;stroke:#1f77b4;" x="242.263636" xlink:href="#m3eb89ad5e1" y="1323"/>
     <use style="fill:#1f77b4;stroke:#1f77b4;" x="339.106612" xlink:href="#m3eb89ad5e1" y="1315.260223"/>
     <use style="fill:#1f77b4;stroke:#1f77b4;" x="435.949587" xlink:href="#m3eb89ad5e1" y="1260.60233"/>
     <use style="fill:#1f77b4;stroke:#1f77b4;" x="532.792562" xlink:href="#m3eb89ad5e1" y="1180.12235"/>
     <use style="fill:#1f77b4;stroke:#1f77b4;" x="629.635537" xlink:href="#m3eb89ad5e1" y="1087.770146"/>
     <use style="fill:#1f77b4;stroke:#1f77b4;" x="726.478512" xlink:href="#m3eb89ad5e1" y="996.285528"/>
     <use style="fill:#1f77b4;stroke:#1f77b4;" x="823.321488" xlink:href="#m3eb89ad5e1" y="903.134232"/>
     <use style="fill:#1f77b4;stroke:#1f77b4;" x="920.164463" xlink:href="#m3eb89ad5e1" y="816.695309"/>
     <use style="fill:#1f77b4;stroke:#1f77b4;" x="1017.007438" xlink:href="#m3eb89ad5e1" y="735.187925"/>
     <use style="fill:#1f77b4;stroke:#1f77b4;" x="1113.850413" xlink:href="#m3eb89ad5e1" y="656.465947"/>
     <use style="fill:#1f77b4;stroke:#1f77b4;" x="1210.693388" xlink:href="#m3eb89ad5e1" y="582.538522"/>
     <use style="fill:#1f77b4;stroke:#1f77b4;" x="1307.536364" xlink:href="#m3eb89ad5e1" y="510.665904"/>
    </g>
   </g>
   <g id="line2d_29">
    <defs>
     <path d="M 0 3 
C 0.795609 3 1.55874 2.683901 2.12132 2.12132 
C 2.683901 1.55874 3 0.795609 3 0 
C 3 -0.795609 2.683901 -1.55874 2.12132 -2.12132 
C 1.55874 -2.683901 0.795609 -3 0 -3 
C -0.795609 -3 -1.55874 -2.683901 -2.12132 -2.12132 
C -2.683901 -1.55874 -3 -0.795609 -3 0 
C -3 0.795609 -2.683901 1.55874 -2.12132 2.12132 
C -1.55874 2.683901 -0.795609 3 0 3 
z
" id="m66544cf915" style="stroke:#2ca02c;"/>
    </defs>
    <g clip-path="url(#p699edc82b4)">
     <use style="fill:#2ca02c;stroke:#2ca02c;" x="242.263636" xlink:href="#m66544cf915" y="1323"/>
     <use style="fill:#2ca02c;stroke:#2ca02c;" x="339.106612" xlink:href="#m66544cf915" y="1319.301346"/>
     <use style="fill:#2ca02c;stroke:#2ca02c;" x="435.949587" xlink:href="#m66544cf915" y="1291.127645"/>
     <use style="fill:#2ca02c;stroke:#2ca02c;" x="532.792562" xlink:href="#m66544cf915" y="1249.780342"/>
     <use style="fill:#2ca02c;stroke:#2ca02c;" x="629.635537" xlink:href="#m66544cf915" y="1204.985527"/>
     <use style="fill:#2ca02c;stroke:#2ca02c;" x="726.478512" xlink:href="#m66544cf915" y="1158.501204"/>
     <use style="fill:#2ca02c;stroke:#2ca02c;" x="823.321488" xlink:href="#m66544cf915" y="1114.710962"/>
     <use style="fill:#2ca02c;stroke:#2ca02c;" x="920.164463" xlink:href="#m66544cf915" y="1068.04399"/>
     <use style="fill:#2ca02c;stroke:#2ca02c;" x="1017.007438" xlink:href="#m66544cf915" y="1027.084817"/>
     <use style="fill:#2ca02c;stroke:#2ca02c;" x="1113.850413" xlink:href="#m66544cf915" y="988.591414"/>
     <use style="fill:#2ca02c;stroke:#2ca02c;" x="1210.693388" xlink:href="#m66544cf915" y="950.782946"/>
     <use style="fill:#2ca02c;stroke:#2ca02c;" x="1307.536364" xlink:href="#m66544cf915" y="917.723369"/>
    </g>
   </g>
   <g id="line2d_30">
    <defs>
     <path d="M 0 3 
C 0.795609 3 1.55874 2.683901 2.12132 2.12132 
C 2.683901 1.55874 3 0.795609 3 0 
C 3 -0.795609 2.683901 -1.55874 2.12132 -2.12132 
C 1.55874 -2.683901 0.795609 -3 0 -3 
C -0.795609 -3 -1.55874 -2.683901 -2.12132 -2.12132 
C -2.683901 -1.55874 -3 -0.795609 -3 0 
C -3 0.795609 -2.683901 1.55874 -2.12132 2.12132 
C -1.55874 2.683901 -0.795609 3 0 3 
z
" id="m08ec76ca9c" style="stroke:#9467bd;"/>
    </defs>
    <g clip-path="url(#p699edc82b4)">
     <use style="fill:#9467bd;stroke:#9467bd;" x="242.263636" xlink:href="#m08ec76ca9c" y="1323"/>
     <use style="fill:#9467bd;stroke:#9467bd;" x="339.106612" xlink:href="#m08ec76ca9c" y="1321.607297"/>
     <use style="fill:#9467bd;stroke:#9467bd;" x="435.949587" xlink:href="#m08ec76ca9c" y="1307.314966"/>
     <use style="fill:#9467bd;stroke:#9467bd;" x="532.792562" xlink:href="#m08ec76ca9c" y="1287.565978"/>
     <use style="fill:#9467bd;stroke:#9467bd;" x="629.635537" xlink:href="#m08ec76ca9c" y="1264.20966"/>
     <use style="fill:#9467bd;stroke:#9467bd;" x="726.478512" xlink:href="#m08ec76ca9c" y="1239.940094"/>
     <use style="fill:#9467bd;stroke:#9467bd;" x="823.321488" xlink:href="#m08ec76ca9c" y="1217.474194"/>
     <use style="fill:#9467bd;stroke:#9467bd;" x="920.164463" xlink:href="#m08ec76ca9c" y="1195.853047"/>
     <use style="fill:#9467bd;stroke:#9467bd;" x="1017.007438" xlink:href="#m08ec76ca9c" y="1174.939668"/>
     <use style="fill:#9467bd;stroke:#9467bd;" x="1113.850413" xlink:href="#m08ec76ca9c" y="1154.688394"/>
     <use style="fill:#9467bd;stroke:#9467bd;" x="1210.693388" xlink:href="#m08ec76ca9c" y="1137.610656"/>
     <use style="fill:#9467bd;stroke:#9467bd;" x="1307.536364" xlink:href="#m08ec76ca9c" y="1119.756658"/>
    </g>
   </g>
   <g id="patch_3">
    <path d="M 189 1323 
L 189 181.44 
" style="fill:none;stroke:#000000;stroke-linecap:square;stroke-linejoin:miter;stroke-width:0.8;"/>
   </g>
   <g id="patch_4">
    <path d="M 1360.8 1323 
L 1360.8 181.44 
" style="fill:none;stroke:#000000;stroke-linecap:square;stroke-linejoin:miter;stroke-width:0.8;"/>
   </g>
   <g id="patch_5">
    <path d="M 189 1323 
L 1360.8 1323 
" style="fill:none;stroke:#000000;stroke-linecap:square;stroke-linejoin:miter;stroke-width:0.8;"/>
   </g>
   <g id="patch_6">
    <path d="M 189 181.44 
L 1360.8 181.44 
" style="fill:none;stroke:#000000;stroke-linecap:square;stroke-linejoin:miter;stroke-width:0.8;"/>
   </g>
   <g id="legend_1">
    <g id="patch_7">
     <path d="M 1088.119688 275.101875 
L 1348.2 275.101875 
Q 1351.8 275.101875 1351.8 271.501875 
L 1351.8 194.04 
Q 1351.8 190.44 1348.2 190.44 
L 1088.119688 190.44 
Q 1084.519688 190.44 1084.519688 194.04 
L 1084.519688 271.501875 
Q 1084.519688 275.101875 1088.119688 275.101875 
z
" style="fill:#ffffff;opacity:0.8;stroke:#cccccc;stroke-linejoin:miter;"/>
    </g>
    <g id="line2d_31">
     <path d="M 1091.719688 205.017188 
L 1127.719688 205.017188 
" style="fill:none;stroke:#ff7f0e;stroke-linecap:square;stroke-width:4;"/>
    </g>
    <g id="line2d_32"/>
    <g id="text_21">
     <!-- Vaccination rate=0.8 -->
     <defs>
      <path d="M 28.609375 0 
L 0.78125 72.90625 
L 11.078125 72.90625 
L 34.1875 11.53125 
L 57.328125 72.90625 
L 67.578125 72.90625 
L 39.796875 0 
z
" id="DejaVuSans-56"/>
      <path d="M 48.78125 52.59375 
L 48.78125 44.1875 
Q 44.96875 46.296875 41.140625 47.34375 
Q 37.3125 48.390625 33.40625 48.390625 
Q 24.65625 48.390625 19.8125 42.84375 
Q 14.984375 37.3125 14.984375 27.296875 
Q 14.984375 17.28125 19.8125 11.734375 
Q 24.65625 6.203125 33.40625 6.203125 
Q 37.3125 6.203125 41.140625 7.25 
Q 44.96875 8.296875 48.78125 10.40625 
L 48.78125 2.09375 
Q 45.015625 0.34375 40.984375 -0.53125 
Q 36.96875 -1.421875 32.421875 -1.421875 
Q 20.0625 -1.421875 12.78125 6.34375 
Q 5.515625 14.109375 5.515625 27.296875 
Q 5.515625 40.671875 12.859375 48.328125 
Q 20.21875 56 33.015625 56 
Q 37.15625 56 41.109375 55.140625 
Q 45.0625 54.296875 48.78125 52.59375 
z
" id="DejaVuSans-63"/>
      <path d="M 10.59375 45.40625 
L 73.1875 45.40625 
L 73.1875 37.203125 
L 10.59375 37.203125 
z
M 10.59375 25.484375 
L 73.1875 25.484375 
L 73.1875 17.1875 
L 10.59375 17.1875 
z
" id="DejaVuSans-3d"/>
     </defs>
     <g transform="translate(1142.119688 211.317188)scale(0.18 -0.18)">
      <use xlink:href="#DejaVuSans-56"/>
      <use x="68.298828" xlink:href="#DejaVuSans-61"/>
      <use x="129.578125" xlink:href="#DejaVuSans-63"/>
      <use x="184.558594" xlink:href="#DejaVuSans-63"/>
      <use x="239.539062" xlink:href="#DejaVuSans-69"/>
      <use x="267.322266" xlink:href="#DejaVuSans-6e"/>
      <use x="330.701172" xlink:href="#DejaVuSans-61"/>
      <use x="391.980469" xlink:href="#DejaVuSans-74"/>
      <use x="431.189453" xlink:href="#DejaVuSans-69"/>
      <use x="458.972656" xlink:href="#DejaVuSans-6f"/>
      <use x="520.154297" xlink:href="#DejaVuSans-6e"/>
      <use x="583.533203" xlink:href="#DejaVuSans-20"/>
      <use x="615.320312" xlink:href="#DejaVuSans-72"/>
      <use x="656.433594" xlink:href="#DejaVuSans-61"/>
      <use x="717.712891" xlink:href="#DejaVuSans-74"/>
      <use x="756.921875" xlink:href="#DejaVuSans-65"/>
      <use x="818.445312" xlink:href="#DejaVuSans-3d"/>
      <use x="902.234375" xlink:href="#DejaVuSans-30"/>
      <use x="965.857422" xlink:href="#DejaVuSans-2e"/>
      <use x="997.644531" xlink:href="#DejaVuSans-38"/>
     </g>
    </g>
    <g id="line2d_33">
     <path d="M 1091.719688 231.437813 
L 1127.719688 231.437813 
" style="fill:none;stroke:#d62728;stroke-linecap:square;stroke-width:4;"/>
    </g>
    <g id="line2d_34"/>
    <g id="text_22">
     <!-- Vaccination rate=0.9 -->
     <g transform="translate(1142.119688 237.737813)scale(0.18 -0.18)">
      <use xlink:href="#DejaVuSans-56"/>
      <use x="68.298828" xlink:href="#DejaVuSans-61"/>
      <use x="129.578125" xlink:href="#DejaVuSans-63"/>
      <use x="184.558594" xlink:href="#DejaVuSans-63"/>
      <use x="239.539062" xlink:href="#DejaVuSans-69"/>
      <use x="267.322266" xlink:href="#DejaVuSans-6e"/>
      <use x="330.701172" xlink:href="#DejaVuSans-61"/>
      <use x="391.980469" xlink:href="#DejaVuSans-74"/>
      <use x="431.189453" xlink:href="#DejaVuSans-69"/>
      <use x="458.972656" xlink:href="#DejaVuSans-6f"/>
      <use x="520.154297" xlink:href="#DejaVuSans-6e"/>
      <use x="583.533203" xlink:href="#DejaVuSans-20"/>
      <use x="615.320312" xlink:href="#DejaVuSans-72"/>
      <use x="656.433594" xlink:href="#DejaVuSans-61"/>
      <use x="717.712891" xlink:href="#DejaVuSans-74"/>
      <use x="756.921875" xlink:href="#DejaVuSans-65"/>
      <use x="818.445312" xlink:href="#DejaVuSans-3d"/>
      <use x="902.234375" xlink:href="#DejaVuSans-30"/>
      <use x="965.857422" xlink:href="#DejaVuSans-2e"/>
      <use x="997.644531" xlink:href="#DejaVuSans-39"/>
     </g>
    </g>
    <g id="line2d_35">
     <path d="M 1091.719688 257.858437 
L 1127.719688 257.858437 
" style="fill:none;stroke:#8c564b;stroke-linecap:square;stroke-width:4;"/>
    </g>
    <g id="line2d_36"/>
    <g id="text_23">
     <!-- Vaccination rate=0.95 -->
     <g transform="translate(1142.119688 264.158437)scale(0.18 -0.18)">
      <use xlink:href="#DejaVuSans-56"/>
      <use x="68.298828" xlink:href="#DejaVuSans-61"/>
      <use x="129.578125" xlink:href="#DejaVuSans-63"/>
      <use x="184.558594" xlink:href="#DejaVuSans-63"/>
      <use x="239.539062" xlink:href="#DejaVuSans-69"/>
      <use x="267.322266" xlink:href="#DejaVuSans-6e"/>
      <use x="330.701172" xlink:href="#DejaVuSans-61"/>
      <use x="391.980469" xlink:href="#DejaVuSans-74"/>
      <use x="431.189453" xlink:href="#DejaVuSans-69"/>
      <use x="458.972656" xlink:href="#DejaVuSans-6f"/>
      <use x="520.154297" xlink:href="#DejaVuSans-6e"/>
      <use x="583.533203" xlink:href="#DejaVuSans-20"/>
      <use x="615.320312" xlink:href="#DejaVuSans-72"/>
      <use x="656.433594" xlink:href="#DejaVuSans-61"/>
      <use x="717.712891" xlink:href="#DejaVuSans-74"/>
      <use x="756.921875" xlink:href="#DejaVuSans-65"/>
      <use x="818.445312" xlink:href="#DejaVuSans-3d"/>
      <use x="902.234375" xlink:href="#DejaVuSans-30"/>
      <use x="965.857422" xlink:href="#DejaVuSans-2e"/>
      <use x="997.644531" xlink:href="#DejaVuSans-39"/>
      <use x="1061.267578" xlink:href="#DejaVuSans-35"/>
     </g>
    </g>
   </g>
  </g>
 </g>
 <defs>
  <clipPath id="p699edc82b4">
   <rect height="1141.56" width="1171.8" x="189" y="181.44"/>
  </clipPath>
 </defs>
</svg>
