<?xml version="1.0" encoding="utf-8" standalone="no"?>
<!DOCTYPE svg PUBLIC "-//W3C//DTD SVG 1.1//EN"
  "http://www.w3.org/Graphics/SVG/1.1/DTD/svg11.dtd">
<!-- Created with matplotlib (http://matplotlib.org/) -->
<svg height="1512pt" version="1.1" viewBox="0 0 1512 1512" width="1512pt" xmlns="http://www.w3.org/2000/svg" xmlns:xlink="http://www.w3.org/1999/xlink">
 <defs>
  <style type="text/css">
*{stroke-linecap:butt;stroke-linejoin:round;}
  </style>
 </defs>
 <g id="figure_1">
  <g id="patch_1">
   <path d="M 0 1512 
L 1512 1512 
L 1512 0 
L 0 0 
z
" style="fill:#ffffff;"/>
  </g>
  <g id="axes_1">
   <g id="patch_2">
    <path d="M 189 1323 
L 1360.8 1323 
L 1360.8 181.44 
L 189 181.44 
z
" style="fill:#ffffff;"/>
   </g>
   <g id="matplotlib.axis_1">
    <g id="xtick_1">
     <g id="line2d_1">
      <defs>
       <path d="M 0 0 
L 0 3.5 
" id="mf72a8aee7b" style="stroke:#000000;stroke-width:0.8;"/>
      </defs>
      <g>
       <use style="stroke:#000000;stroke-width:0.8;" x="242.263636" xlink:href="#mf72a8aee7b" y="1323"/>
      </g>
     </g>
     <g id="text_1">
      <!-- 2019 -->
      <defs>
       <path d="M 19.1875 8.296875 
L 53.609375 8.296875 
L 53.609375 0 
L 7.328125 0 
L 7.328125 8.296875 
Q 12.9375 14.109375 22.625 23.890625 
Q 32.328125 33.6875 34.8125 36.53125 
Q 39.546875 41.84375 41.421875 45.53125 
Q 43.3125 49.21875 43.3125 52.78125 
Q 43.3125 58.59375 39.234375 62.25 
Q 35.15625 65.921875 28.609375 65.921875 
Q 23.96875 65.921875 18.8125 64.3125 
Q 13.671875 62.703125 7.8125 59.421875 
L 7.8125 69.390625 
Q 13.765625 71.78125 18.9375 73 
Q 24.125 74.21875 28.421875 74.21875 
Q 39.75 74.21875 46.484375 68.546875 
Q 53.21875 62.890625 53.21875 53.421875 
Q 53.21875 48.921875 51.53125 44.890625 
Q 49.859375 40.875 45.40625 35.40625 
Q 44.1875 33.984375 37.640625 27.21875 
Q 31.109375 20.453125 19.1875 8.296875 
z
" id="DejaVuSans-32"/>
       <path d="M 31.78125 66.40625 
Q 24.171875 66.40625 20.328125 58.90625 
Q 16.5 51.421875 16.5 36.375 
Q 16.5 21.390625 20.328125 13.890625 
Q 24.171875 6.390625 31.78125 6.390625 
Q 39.453125 6.390625 43.28125 13.890625 
Q 47.125 21.390625 47.125 36.375 
Q 47.125 51.421875 43.28125 58.90625 
Q 39.453125 66.40625 31.78125 66.40625 
z
M 31.78125 74.21875 
Q 44.046875 74.21875 50.515625 64.515625 
Q 56.984375 54.828125 56.984375 36.375 
Q 56.984375 17.96875 50.515625 8.265625 
Q 44.046875 -1.421875 31.78125 -1.421875 
Q 19.53125 -1.421875 13.0625 8.265625 
Q 6.59375 17.96875 6.59375 36.375 
Q 6.59375 54.828125 13.0625 64.515625 
Q 19.53125 74.21875 31.78125 74.21875 
z
" id="DejaVuSans-30"/>
       <path d="M 12.40625 8.296875 
L 28.515625 8.296875 
L 28.515625 63.921875 
L 10.984375 60.40625 
L 10.984375 69.390625 
L 28.421875 72.90625 
L 38.28125 72.90625 
L 38.28125 8.296875 
L 54.390625 8.296875 
L 54.390625 0 
L 12.40625 0 
z
" id="DejaVuSans-31"/>
       <path d="M 10.984375 1.515625 
L 10.984375 10.5 
Q 14.703125 8.734375 18.5 7.8125 
Q 22.3125 6.890625 25.984375 6.890625 
Q 35.75 6.890625 40.890625 13.453125 
Q 46.046875 20.015625 46.78125 33.40625 
Q 43.953125 29.203125 39.59375 26.953125 
Q 35.25 24.703125 29.984375 24.703125 
Q 19.046875 24.703125 12.671875 31.3125 
Q 6.296875 37.9375 6.296875 49.421875 
Q 6.296875 60.640625 12.9375 67.421875 
Q 19.578125 74.21875 30.609375 74.21875 
Q 43.265625 74.21875 49.921875 64.515625 
Q 56.59375 54.828125 56.59375 36.375 
Q 56.59375 19.140625 48.40625 8.859375 
Q 40.234375 -1.421875 26.421875 -1.421875 
Q 22.703125 -1.421875 18.890625 -0.6875 
Q 15.09375 0.046875 10.984375 1.515625 
z
M 30.609375 32.421875 
Q 37.25 32.421875 41.125 36.953125 
Q 45.015625 41.5 45.015625 49.421875 
Q 45.015625 57.28125 41.125 61.84375 
Q 37.25 66.40625 30.609375 66.40625 
Q 23.96875 66.40625 20.09375 61.84375 
Q 16.21875 57.28125 16.21875 49.421875 
Q 16.21875 41.5 20.09375 36.953125 
Q 23.96875 32.421875 30.609375 32.421875 
z
" id="DejaVuSans-39"/>
      </defs>
      <g transform="translate(216.813636 1345.196875)scale(0.2 -0.2)">
       <use xlink:href="#DejaVuSans-32"/>
       <use x="63.623047" xlink:href="#DejaVuSans-30"/>
       <use x="127.246094" xlink:href="#DejaVuSans-31"/>
       <use x="190.869141" xlink:href="#DejaVuSans-39"/>
      </g>
     </g>
    </g>
    <g id="xtick_2">
     <g id="line2d_2">
      <g>
       <use style="stroke:#000000;stroke-width:0.8;" x="339.106612" xlink:href="#mf72a8aee7b" y="1323"/>
      </g>
     </g>
     <g id="text_2">
      <!-- 2020 -->
      <g transform="translate(313.656612 1345.196875)scale(0.2 -0.2)">
       <use xlink:href="#DejaVuSans-32"/>
       <use x="63.623047" xlink:href="#DejaVuSans-30"/>
       <use x="127.246094" xlink:href="#DejaVuSans-32"/>
       <use x="190.869141" xlink:href="#DejaVuSans-30"/>
      </g>
     </g>
    </g>
    <g id="xtick_3">
     <g id="line2d_3">
      <g>
       <use style="stroke:#000000;stroke-width:0.8;" x="435.949587" xlink:href="#mf72a8aee7b" y="1323"/>
      </g>
     </g>
     <g id="text_3">
      <!-- 2021 -->
      <g transform="translate(410.499587 1345.196875)scale(0.2 -0.2)">
       <use xlink:href="#DejaVuSans-32"/>
       <use x="63.623047" xlink:href="#DejaVuSans-30"/>
       <use x="127.246094" xlink:href="#DejaVuSans-32"/>
       <use x="190.869141" xlink:href="#DejaVuSans-31"/>
      </g>
     </g>
    </g>
    <g id="xtick_4">
     <g id="line2d_4">
      <g>
       <use style="stroke:#000000;stroke-width:0.8;" x="532.792562" xlink:href="#mf72a8aee7b" y="1323"/>
      </g>
     </g>
     <g id="text_4">
      <!-- 2022 -->
      <g transform="translate(507.342562 1345.196875)scale(0.2 -0.2)">
       <use xlink:href="#DejaVuSans-32"/>
       <use x="63.623047" xlink:href="#DejaVuSans-30"/>
       <use x="127.246094" xlink:href="#DejaVuSans-32"/>
       <use x="190.869141" xlink:href="#DejaVuSans-32"/>
      </g>
     </g>
    </g>
    <g id="xtick_5">
     <g id="line2d_5">
      <g>
       <use style="stroke:#000000;stroke-width:0.8;" x="629.635537" xlink:href="#mf72a8aee7b" y="1323"/>
      </g>
     </g>
     <g id="text_5">
      <!-- 2023 -->
      <defs>
       <path d="M 40.578125 39.3125 
Q 47.65625 37.796875 51.625 33 
Q 55.609375 28.21875 55.609375 21.1875 
Q 55.609375 10.40625 48.1875 4.484375 
Q 40.765625 -1.421875 27.09375 -1.421875 
Q 22.515625 -1.421875 17.65625 -0.515625 
Q 12.796875 0.390625 7.625 2.203125 
L 7.625 11.71875 
Q 11.71875 9.328125 16.59375 8.109375 
Q 21.484375 6.890625 26.8125 6.890625 
Q 36.078125 6.890625 40.9375 10.546875 
Q 45.796875 14.203125 45.796875 21.1875 
Q 45.796875 27.640625 41.28125 31.265625 
Q 36.765625 34.90625 28.71875 34.90625 
L 20.21875 34.90625 
L 20.21875 43.015625 
L 29.109375 43.015625 
Q 36.375 43.015625 40.234375 45.921875 
Q 44.09375 48.828125 44.09375 54.296875 
Q 44.09375 59.90625 40.109375 62.90625 
Q 36.140625 65.921875 28.71875 65.921875 
Q 24.65625 65.921875 20.015625 65.03125 
Q 15.375 64.15625 9.8125 62.3125 
L 9.8125 71.09375 
Q 15.4375 72.65625 20.34375 73.4375 
Q 25.25 74.21875 29.59375 74.21875 
Q 40.828125 74.21875 47.359375 69.109375 
Q 53.90625 64.015625 53.90625 55.328125 
Q 53.90625 49.265625 50.4375 45.09375 
Q 46.96875 40.921875 40.578125 39.3125 
z
" id="DejaVuSans-33"/>
      </defs>
      <g transform="translate(604.185537 1345.196875)scale(0.2 -0.2)">
       <use xlink:href="#DejaVuSans-32"/>
       <use x="63.623047" xlink:href="#DejaVuSans-30"/>
       <use x="127.246094" xlink:href="#DejaVuSans-32"/>
       <use x="190.869141" xlink:href="#DejaVuSans-33"/>
      </g>
     </g>
    </g>
    <g id="xtick_6">
     <g id="line2d_6">
      <g>
       <use style="stroke:#000000;stroke-width:0.8;" x="726.478512" xlink:href="#mf72a8aee7b" y="1323"/>
      </g>
     </g>
     <g id="text_6">
      <!-- 2024 -->
      <defs>
       <path d="M 37.796875 64.3125 
L 12.890625 25.390625 
L 37.796875 25.390625 
z
M 35.203125 72.90625 
L 47.609375 72.90625 
L 47.609375 25.390625 
L 58.015625 25.390625 
L 58.015625 17.1875 
L 47.609375 17.1875 
L 47.609375 0 
L 37.796875 0 
L 37.796875 17.1875 
L 4.890625 17.1875 
L 4.890625 26.703125 
z
" id="DejaVuSans-34"/>
      </defs>
      <g transform="translate(701.028512 1345.196875)scale(0.2 -0.2)">
       <use xlink:href="#DejaVuSans-32"/>
       <use x="63.623047" xlink:href="#DejaVuSans-30"/>
       <use x="127.246094" xlink:href="#DejaVuSans-32"/>
       <use x="190.869141" xlink:href="#DejaVuSans-34"/>
      </g>
     </g>
    </g>
    <g id="xtick_7">
     <g id="line2d_7">
      <g>
       <use style="stroke:#000000;stroke-width:0.8;" x="823.321488" xlink:href="#mf72a8aee7b" y="1323"/>
      </g>
     </g>
     <g id="text_7">
      <!-- 2025 -->
      <defs>
       <path d="M 10.796875 72.90625 
L 49.515625 72.90625 
L 49.515625 64.59375 
L 19.828125 64.59375 
L 19.828125 46.734375 
Q 21.96875 47.46875 24.109375 47.828125 
Q 26.265625 48.1875 28.421875 48.1875 
Q 40.625 48.1875 47.75 41.5 
Q 54.890625 34.8125 54.890625 23.390625 
Q 54.890625 11.625 47.5625 5.09375 
Q 40.234375 -1.421875 26.90625 -1.421875 
Q 22.3125 -1.421875 17.546875 -0.640625 
Q 12.796875 0.140625 7.71875 1.703125 
L 7.71875 11.625 
Q 12.109375 9.234375 16.796875 8.0625 
Q 21.484375 6.890625 26.703125 6.890625 
Q 35.15625 6.890625 40.078125 11.328125 
Q 45.015625 15.765625 45.015625 23.390625 
Q 45.015625 31 40.078125 35.4375 
Q 35.15625 39.890625 26.703125 39.890625 
Q 22.75 39.890625 18.8125 39.015625 
Q 14.890625 38.140625 10.796875 36.28125 
z
" id="DejaVuSans-35"/>
      </defs>
      <g transform="translate(797.871488 1345.196875)scale(0.2 -0.2)">
       <use xlink:href="#DejaVuSans-32"/>
       <use x="63.623047" xlink:href="#DejaVuSans-30"/>
       <use x="127.246094" xlink:href="#DejaVuSans-32"/>
       <use x="190.869141" xlink:href="#DejaVuSans-35"/>
      </g>
     </g>
    </g>
    <g id="xtick_8">
     <g id="line2d_8">
      <g>
       <use style="stroke:#000000;stroke-width:0.8;" x="920.164463" xlink:href="#mf72a8aee7b" y="1323"/>
      </g>
     </g>
     <g id="text_8">
      <!-- 2026 -->
      <defs>
       <path d="M 33.015625 40.375 
Q 26.375 40.375 22.484375 35.828125 
Q 18.609375 31.296875 18.609375 23.390625 
Q 18.609375 15.53125 22.484375 10.953125 
Q 26.375 6.390625 33.015625 6.390625 
Q 39.65625 6.390625 43.53125 10.953125 
Q 47.40625 15.53125 47.40625 23.390625 
Q 47.40625 31.296875 43.53125 35.828125 
Q 39.65625 40.375 33.015625 40.375 
z
M 52.59375 71.296875 
L 52.59375 62.3125 
Q 48.875 64.0625 45.09375 64.984375 
Q 41.3125 65.921875 37.59375 65.921875 
Q 27.828125 65.921875 22.671875 59.328125 
Q 17.53125 52.734375 16.796875 39.40625 
Q 19.671875 43.65625 24.015625 45.921875 
Q 28.375 48.1875 33.59375 48.1875 
Q 44.578125 48.1875 50.953125 41.515625 
Q 57.328125 34.859375 57.328125 23.390625 
Q 57.328125 12.15625 50.6875 5.359375 
Q 44.046875 -1.421875 33.015625 -1.421875 
Q 20.359375 -1.421875 13.671875 8.265625 
Q 6.984375 17.96875 6.984375 36.375 
Q 6.984375 53.65625 15.1875 63.9375 
Q 23.390625 74.21875 37.203125 74.21875 
Q 40.921875 74.21875 44.703125 73.484375 
Q 48.484375 72.75 52.59375 71.296875 
z
" id="DejaVuSans-36"/>
      </defs>
      <g transform="translate(894.714463 1345.196875)scale(0.2 -0.2)">
       <use xlink:href="#DejaVuSans-32"/>
       <use x="63.623047" xlink:href="#DejaVuSans-30"/>
       <use x="127.246094" xlink:href="#DejaVuSans-32"/>
       <use x="190.869141" xlink:href="#DejaVuSans-36"/>
      </g>
     </g>
    </g>
    <g id="xtick_9">
     <g id="line2d_9">
      <g>
       <use style="stroke:#000000;stroke-width:0.8;" x="1017.007438" xlink:href="#mf72a8aee7b" y="1323"/>
      </g>
     </g>
     <g id="text_9">
      <!-- 2027 -->
      <defs>
       <path d="M 8.203125 72.90625 
L 55.078125 72.90625 
L 55.078125 68.703125 
L 28.609375 0 
L 18.3125 0 
L 43.21875 64.59375 
L 8.203125 64.59375 
z
" id="DejaVuSans-37"/>
      </defs>
      <g transform="translate(991.557438 1345.196875)scale(0.2 -0.2)">
       <use xlink:href="#DejaVuSans-32"/>
       <use x="63.623047" xlink:href="#DejaVuSans-30"/>
       <use x="127.246094" xlink:href="#DejaVuSans-32"/>
       <use x="190.869141" xlink:href="#DejaVuSans-37"/>
      </g>
     </g>
    </g>
    <g id="xtick_10">
     <g id="line2d_10">
      <g>
       <use style="stroke:#000000;stroke-width:0.8;" x="1113.850413" xlink:href="#mf72a8aee7b" y="1323"/>
      </g>
     </g>
     <g id="text_10">
      <!-- 2028 -->
      <defs>
       <path d="M 31.78125 34.625 
Q 24.75 34.625 20.71875 30.859375 
Q 16.703125 27.09375 16.703125 20.515625 
Q 16.703125 13.921875 20.71875 10.15625 
Q 24.75 6.390625 31.78125 6.390625 
Q 38.8125 6.390625 42.859375 10.171875 
Q 46.921875 13.96875 46.921875 20.515625 
Q 46.921875 27.09375 42.890625 30.859375 
Q 38.875 34.625 31.78125 34.625 
z
M 21.921875 38.8125 
Q 15.578125 40.375 12.03125 44.71875 
Q 8.5 49.078125 8.5 55.328125 
Q 8.5 64.0625 14.71875 69.140625 
Q 20.953125 74.21875 31.78125 74.21875 
Q 42.671875 74.21875 48.875 69.140625 
Q 55.078125 64.0625 55.078125 55.328125 
Q 55.078125 49.078125 51.53125 44.71875 
Q 48 40.375 41.703125 38.8125 
Q 48.828125 37.15625 52.796875 32.3125 
Q 56.78125 27.484375 56.78125 20.515625 
Q 56.78125 9.90625 50.3125 4.234375 
Q 43.84375 -1.421875 31.78125 -1.421875 
Q 19.734375 -1.421875 13.25 4.234375 
Q 6.78125 9.90625 6.78125 20.515625 
Q 6.78125 27.484375 10.78125 32.3125 
Q 14.796875 37.15625 21.921875 38.8125 
z
M 18.3125 54.390625 
Q 18.3125 48.734375 21.84375 45.5625 
Q 25.390625 42.390625 31.78125 42.390625 
Q 38.140625 42.390625 41.71875 45.5625 
Q 45.3125 48.734375 45.3125 54.390625 
Q 45.3125 60.0625 41.71875 63.234375 
Q 38.140625 66.40625 31.78125 66.40625 
Q 25.390625 66.40625 21.84375 63.234375 
Q 18.3125 60.0625 18.3125 54.390625 
z
" id="DejaVuSans-38"/>
      </defs>
      <g transform="translate(1088.400413 1345.196875)scale(0.2 -0.2)">
       <use xlink:href="#DejaVuSans-32"/>
       <use x="63.623047" xlink:href="#DejaVuSans-30"/>
       <use x="127.246094" xlink:href="#DejaVuSans-32"/>
       <use x="190.869141" xlink:href="#DejaVuSans-38"/>
      </g>
     </g>
    </g>
    <g id="xtick_11">
     <g id="line2d_11">
      <g>
       <use style="stroke:#000000;stroke-width:0.8;" x="1210.693388" xlink:href="#mf72a8aee7b" y="1323"/>
      </g>
     </g>
     <g id="text_11">
      <!-- 2029 -->
      <g transform="translate(1185.243388 1345.196875)scale(0.2 -0.2)">
       <use xlink:href="#DejaVuSans-32"/>
       <use x="63.623047" xlink:href="#DejaVuSans-30"/>
       <use x="127.246094" xlink:href="#DejaVuSans-32"/>
       <use x="190.869141" xlink:href="#DejaVuSans-39"/>
      </g>
     </g>
    </g>
    <g id="xtick_12">
     <g id="line2d_12">
      <g>
       <use style="stroke:#000000;stroke-width:0.8;" x="1307.536364" xlink:href="#mf72a8aee7b" y="1323"/>
      </g>
     </g>
     <g id="text_12">
      <!-- 2030 -->
      <g transform="translate(1282.086364 1345.196875)scale(0.2 -0.2)">
       <use xlink:href="#DejaVuSans-32"/>
       <use x="63.623047" xlink:href="#DejaVuSans-30"/>
       <use x="127.246094" xlink:href="#DejaVuSans-33"/>
       <use x="190.869141" xlink:href="#DejaVuSans-30"/>
      </g>
     </g>
    </g>
    <g id="text_13">
     <!-- Years -->
     <defs>
      <path d="M -0.203125 72.90625 
L 10.40625 72.90625 
L 30.609375 42.921875 
L 50.6875 72.90625 
L 61.28125 72.90625 
L 35.5 34.71875 
L 35.5 0 
L 25.59375 0 
L 25.59375 34.71875 
z
" id="DejaVuSans-59"/>
      <path d="M 56.203125 29.59375 
L 56.203125 25.203125 
L 14.890625 25.203125 
Q 15.484375 15.921875 20.484375 11.0625 
Q 25.484375 6.203125 34.421875 6.203125 
Q 39.59375 6.203125 44.453125 7.46875 
Q 49.3125 8.734375 54.109375 11.28125 
L 54.109375 2.78125 
Q 49.265625 0.734375 44.1875 -0.34375 
Q 39.109375 -1.421875 33.890625 -1.421875 
Q 20.796875 -1.421875 13.15625 6.1875 
Q 5.515625 13.8125 5.515625 26.8125 
Q 5.515625 40.234375 12.765625 48.109375 
Q 20.015625 56 32.328125 56 
Q 43.359375 56 49.78125 48.890625 
Q 56.203125 41.796875 56.203125 29.59375 
z
M 47.21875 32.234375 
Q 47.125 39.59375 43.09375 43.984375 
Q 39.0625 48.390625 32.421875 48.390625 
Q 24.90625 48.390625 20.390625 44.140625 
Q 15.875 39.890625 15.1875 32.171875 
z
" id="DejaVuSans-65"/>
      <path d="M 34.28125 27.484375 
Q 23.390625 27.484375 19.1875 25 
Q 14.984375 22.515625 14.984375 16.5 
Q 14.984375 11.71875 18.140625 8.90625 
Q 21.296875 6.109375 26.703125 6.109375 
Q 34.1875 6.109375 38.703125 11.40625 
Q 43.21875 16.703125 43.21875 25.484375 
L 43.21875 27.484375 
z
M 52.203125 31.203125 
L 52.203125 0 
L 43.21875 0 
L 43.21875 8.296875 
Q 40.140625 3.328125 35.546875 0.953125 
Q 30.953125 -1.421875 24.3125 -1.421875 
Q 15.921875 -1.421875 10.953125 3.296875 
Q 6 8.015625 6 15.921875 
Q 6 25.140625 12.171875 29.828125 
Q 18.359375 34.515625 30.609375 34.515625 
L 43.21875 34.515625 
L 43.21875 35.40625 
Q 43.21875 41.609375 39.140625 45 
Q 35.0625 48.390625 27.6875 48.390625 
Q 23 48.390625 18.546875 47.265625 
Q 14.109375 46.140625 10.015625 43.890625 
L 10.015625 52.203125 
Q 14.9375 54.109375 19.578125 55.046875 
Q 24.21875 56 28.609375 56 
Q 40.484375 56 46.34375 49.84375 
Q 52.203125 43.703125 52.203125 31.203125 
z
" id="DejaVuSans-61"/>
      <path d="M 41.109375 46.296875 
Q 39.59375 47.171875 37.8125 47.578125 
Q 36.03125 48 33.890625 48 
Q 26.265625 48 22.1875 43.046875 
Q 18.109375 38.09375 18.109375 28.8125 
L 18.109375 0 
L 9.078125 0 
L 9.078125 54.6875 
L 18.109375 54.6875 
L 18.109375 46.1875 
Q 20.953125 51.171875 25.484375 53.578125 
Q 30.03125 56 36.53125 56 
Q 37.453125 56 38.578125 55.875 
Q 39.703125 55.765625 41.0625 55.515625 
z
" id="DejaVuSans-72"/>
      <path d="M 44.28125 53.078125 
L 44.28125 44.578125 
Q 40.484375 46.53125 36.375 47.5 
Q 32.28125 48.484375 27.875 48.484375 
Q 21.1875 48.484375 17.84375 46.4375 
Q 14.5 44.390625 14.5 40.28125 
Q 14.5 37.15625 16.890625 35.375 
Q 19.28125 33.59375 26.515625 31.984375 
L 29.59375 31.296875 
Q 39.15625 29.25 43.1875 25.515625 
Q 47.21875 21.78125 47.21875 15.09375 
Q 47.21875 7.46875 41.1875 3.015625 
Q 35.15625 -1.421875 24.609375 -1.421875 
Q 20.21875 -1.421875 15.453125 -0.5625 
Q 10.6875 0.296875 5.421875 2 
L 5.421875 11.28125 
Q 10.40625 8.6875 15.234375 7.390625 
Q 20.0625 6.109375 24.8125 6.109375 
Q 31.15625 6.109375 34.5625 8.28125 
Q 37.984375 10.453125 37.984375 14.40625 
Q 37.984375 18.0625 35.515625 20.015625 
Q 33.0625 21.96875 24.703125 23.78125 
L 21.578125 24.515625 
Q 13.234375 26.265625 9.515625 29.90625 
Q 5.8125 33.546875 5.8125 39.890625 
Q 5.8125 47.609375 11.28125 51.796875 
Q 16.75 56 26.8125 56 
Q 31.78125 56 36.171875 55.265625 
Q 40.578125 54.546875 44.28125 53.078125 
z
" id="DejaVuSans-73"/>
     </defs>
     <g transform="translate(747.210938 1368.553125)scale(0.2 -0.2)">
      <use xlink:href="#DejaVuSans-59"/>
      <use x="60.880859" xlink:href="#DejaVuSans-65"/>
      <use x="122.404297" xlink:href="#DejaVuSans-61"/>
      <use x="183.683594" xlink:href="#DejaVuSans-72"/>
      <use x="224.796875" xlink:href="#DejaVuSans-73"/>
     </g>
    </g>
   </g>
   <g id="matplotlib.axis_2">
    <g id="ytick_1">
     <g id="line2d_13">
      <defs>
       <path d="M 0 0 
L -3.5 0 
" id="mc505a9d4b0" style="stroke:#000000;stroke-width:0.8;"/>
      </defs>
      <g>
       <use style="stroke:#000000;stroke-width:0.8;" x="189" xlink:href="#mc505a9d4b0" y="1323"/>
      </g>
     </g>
     <g id="text_14">
      <!-- 0.0 -->
      <defs>
       <path d="M 10.6875 12.40625 
L 21 12.40625 
L 21 0 
L 10.6875 0 
z
" id="DejaVuSans-2e"/>
      </defs>
      <g transform="translate(150.19375 1330.598438)scale(0.2 -0.2)">
       <use xlink:href="#DejaVuSans-30"/>
       <use x="63.623047" xlink:href="#DejaVuSans-2e"/>
       <use x="95.410156" xlink:href="#DejaVuSans-30"/>
      </g>
     </g>
    </g>
    <g id="ytick_2">
     <g id="line2d_14">
      <g>
       <use style="stroke:#000000;stroke-width:0.8;" x="189" xlink:href="#mc505a9d4b0" y="1094.688"/>
      </g>
     </g>
     <g id="text_15">
      <!-- 10.0 -->
      <g transform="translate(137.46875 1102.286437)scale(0.2 -0.2)">
       <use xlink:href="#DejaVuSans-31"/>
       <use x="63.623047" xlink:href="#DejaVuSans-30"/>
       <use x="127.246094" xlink:href="#DejaVuSans-2e"/>
       <use x="159.033203" xlink:href="#DejaVuSans-30"/>
      </g>
     </g>
    </g>
    <g id="ytick_3">
     <g id="line2d_15">
      <g>
       <use style="stroke:#000000;stroke-width:0.8;" x="189" xlink:href="#mc505a9d4b0" y="866.376"/>
      </g>
     </g>
     <g id="text_16">
      <!-- 20.0 -->
      <g transform="translate(137.46875 873.974438)scale(0.2 -0.2)">
       <use xlink:href="#DejaVuSans-32"/>
       <use x="63.623047" xlink:href="#DejaVuSans-30"/>
       <use x="127.246094" xlink:href="#DejaVuSans-2e"/>
       <use x="159.033203" xlink:href="#DejaVuSans-30"/>
      </g>
     </g>
    </g>
    <g id="ytick_4">
     <g id="line2d_16">
      <g>
       <use style="stroke:#000000;stroke-width:0.8;" x="189" xlink:href="#mc505a9d4b0" y="638.064"/>
      </g>
     </g>
     <g id="text_17">
      <!-- 30.0 -->
      <g transform="translate(137.46875 645.662438)scale(0.2 -0.2)">
       <use xlink:href="#DejaVuSans-33"/>
       <use x="63.623047" xlink:href="#DejaVuSans-30"/>
       <use x="127.246094" xlink:href="#DejaVuSans-2e"/>
       <use x="159.033203" xlink:href="#DejaVuSans-30"/>
      </g>
     </g>
    </g>
    <g id="ytick_5">
     <g id="line2d_17">
      <g>
       <use style="stroke:#000000;stroke-width:0.8;" x="189" xlink:href="#mc505a9d4b0" y="409.752"/>
      </g>
     </g>
     <g id="text_18">
      <!-- 40.0 -->
      <g transform="translate(137.46875 417.350437)scale(0.2 -0.2)">
       <use xlink:href="#DejaVuSans-34"/>
       <use x="63.623047" xlink:href="#DejaVuSans-30"/>
       <use x="127.246094" xlink:href="#DejaVuSans-2e"/>
       <use x="159.033203" xlink:href="#DejaVuSans-30"/>
      </g>
     </g>
    </g>
    <g id="ytick_6">
     <g id="line2d_18">
      <g>
       <use style="stroke:#000000;stroke-width:0.8;" x="189" xlink:href="#mc505a9d4b0" y="181.44"/>
      </g>
     </g>
     <g id="text_19">
      <!-- 50.0 -->
      <g transform="translate(137.46875 189.038438)scale(0.2 -0.2)">
       <use xlink:href="#DejaVuSans-35"/>
       <use x="63.623047" xlink:href="#DejaVuSans-30"/>
       <use x="127.246094" xlink:href="#DejaVuSans-2e"/>
       <use x="159.033203" xlink:href="#DejaVuSans-30"/>
      </g>
     </g>
    </g>
    <g id="text_20">
     <!-- Population Number (in Hundreds) -->
     <defs>
      <path d="M 19.671875 64.796875 
L 19.671875 37.40625 
L 32.078125 37.40625 
Q 38.96875 37.40625 42.71875 40.96875 
Q 46.484375 44.53125 46.484375 51.125 
Q 46.484375 57.671875 42.71875 61.234375 
Q 38.96875 64.796875 32.078125 64.796875 
z
M 9.8125 72.90625 
L 32.078125 72.90625 
Q 44.34375 72.90625 50.609375 67.359375 
Q 56.890625 61.8125 56.890625 51.125 
Q 56.890625 40.328125 50.609375 34.8125 
Q 44.34375 29.296875 32.078125 29.296875 
L 19.671875 29.296875 
L 19.671875 0 
L 9.8125 0 
z
" id="DejaVuSans-50"/>
      <path d="M 30.609375 48.390625 
Q 23.390625 48.390625 19.1875 42.75 
Q 14.984375 37.109375 14.984375 27.296875 
Q 14.984375 17.484375 19.15625 11.84375 
Q 23.34375 6.203125 30.609375 6.203125 
Q 37.796875 6.203125 41.984375 11.859375 
Q 46.1875 17.53125 46.1875 27.296875 
Q 46.1875 37.015625 41.984375 42.703125 
Q 37.796875 48.390625 30.609375 48.390625 
z
M 30.609375 56 
Q 42.328125 56 49.015625 48.375 
Q 55.71875 40.765625 55.71875 27.296875 
Q 55.71875 13.875 49.015625 6.21875 
Q 42.328125 -1.421875 30.609375 -1.421875 
Q 18.84375 -1.421875 12.171875 6.21875 
Q 5.515625 13.875 5.515625 27.296875 
Q 5.515625 40.765625 12.171875 48.375 
Q 18.84375 56 30.609375 56 
z
" id="DejaVuSans-6f"/>
      <path d="M 18.109375 8.203125 
L 18.109375 -20.796875 
L 9.078125 -20.796875 
L 9.078125 54.6875 
L 18.109375 54.6875 
L 18.109375 46.390625 
Q 20.953125 51.265625 25.265625 53.625 
Q 29.59375 56 35.59375 56 
Q 45.5625 56 51.78125 48.09375 
Q 58.015625 40.1875 58.015625 27.296875 
Q 58.015625 14.40625 51.78125 6.484375 
Q 45.5625 -1.421875 35.59375 -1.421875 
Q 29.59375 -1.421875 25.265625 0.953125 
Q 20.953125 3.328125 18.109375 8.203125 
z
M 48.6875 27.296875 
Q 48.6875 37.203125 44.609375 42.84375 
Q 40.53125 48.484375 33.40625 48.484375 
Q 26.265625 48.484375 22.1875 42.84375 
Q 18.109375 37.203125 18.109375 27.296875 
Q 18.109375 17.390625 22.1875 11.75 
Q 26.265625 6.109375 33.40625 6.109375 
Q 40.53125 6.109375 44.609375 11.75 
Q 48.6875 17.390625 48.6875 27.296875 
z
" id="DejaVuSans-70"/>
      <path d="M 8.5 21.578125 
L 8.5 54.6875 
L 17.484375 54.6875 
L 17.484375 21.921875 
Q 17.484375 14.15625 20.5 10.265625 
Q 23.53125 6.390625 29.59375 6.390625 
Q 36.859375 6.390625 41.078125 11.03125 
Q 45.3125 15.671875 45.3125 23.6875 
L 45.3125 54.6875 
L 54.296875 54.6875 
L 54.296875 0 
L 45.3125 0 
L 45.3125 8.40625 
Q 42.046875 3.421875 37.71875 1 
Q 33.40625 -1.421875 27.6875 -1.421875 
Q 18.265625 -1.421875 13.375 4.4375 
Q 8.5 10.296875 8.5 21.578125 
z
M 31.109375 56 
z
" id="DejaVuSans-75"/>
      <path d="M 9.421875 75.984375 
L 18.40625 75.984375 
L 18.40625 0 
L 9.421875 0 
z
" id="DejaVuSans-6c"/>
      <path d="M 18.3125 70.21875 
L 18.3125 54.6875 
L 36.8125 54.6875 
L 36.8125 47.703125 
L 18.3125 47.703125 
L 18.3125 18.015625 
Q 18.3125 11.328125 20.140625 9.421875 
Q 21.96875 7.515625 27.59375 7.515625 
L 36.8125 7.515625 
L 36.8125 0 
L 27.59375 0 
Q 17.1875 0 13.234375 3.875 
Q 9.28125 7.765625 9.28125 18.015625 
L 9.28125 47.703125 
L 2.6875 47.703125 
L 2.6875 54.6875 
L 9.28125 54.6875 
L 9.28125 70.21875 
z
" id="DejaVuSans-74"/>
      <path d="M 9.421875 54.6875 
L 18.40625 54.6875 
L 18.40625 0 
L 9.421875 0 
z
M 9.421875 75.984375 
L 18.40625 75.984375 
L 18.40625 64.59375 
L 9.421875 64.59375 
z
" id="DejaVuSans-69"/>
      <path d="M 54.890625 33.015625 
L 54.890625 0 
L 45.90625 0 
L 45.90625 32.71875 
Q 45.90625 40.484375 42.875 44.328125 
Q 39.84375 48.1875 33.796875 48.1875 
Q 26.515625 48.1875 22.3125 43.546875 
Q 18.109375 38.921875 18.109375 30.90625 
L 18.109375 0 
L 9.078125 0 
L 9.078125 54.6875 
L 18.109375 54.6875 
L 18.109375 46.1875 
Q 21.34375 51.125 25.703125 53.5625 
Q 30.078125 56 35.796875 56 
Q 45.21875 56 50.046875 50.171875 
Q 54.890625 44.34375 54.890625 33.015625 
z
" id="DejaVuSans-6e"/>
      <path id="DejaVuSans-20"/>
      <path d="M 9.8125 72.90625 
L 23.09375 72.90625 
L 55.421875 11.921875 
L 55.421875 72.90625 
L 64.984375 72.90625 
L 64.984375 0 
L 51.703125 0 
L 19.390625 60.984375 
L 19.390625 0 
L 9.8125 0 
z
" id="DejaVuSans-4e"/>
      <path d="M 52 44.1875 
Q 55.375 50.25 60.0625 53.125 
Q 64.75 56 71.09375 56 
Q 79.640625 56 84.28125 50.015625 
Q 88.921875 44.046875 88.921875 33.015625 
L 88.921875 0 
L 79.890625 0 
L 79.890625 32.71875 
Q 79.890625 40.578125 77.09375 44.375 
Q 74.3125 48.1875 68.609375 48.1875 
Q 61.625 48.1875 57.5625 43.546875 
Q 53.515625 38.921875 53.515625 30.90625 
L 53.515625 0 
L 44.484375 0 
L 44.484375 32.71875 
Q 44.484375 40.625 41.703125 44.40625 
Q 38.921875 48.1875 33.109375 48.1875 
Q 26.21875 48.1875 22.15625 43.53125 
Q 18.109375 38.875 18.109375 30.90625 
L 18.109375 0 
L 9.078125 0 
L 9.078125 54.6875 
L 18.109375 54.6875 
L 18.109375 46.1875 
Q 21.1875 51.21875 25.484375 53.609375 
Q 29.78125 56 35.6875 56 
Q 41.65625 56 45.828125 52.96875 
Q 50 49.953125 52 44.1875 
z
" id="DejaVuSans-6d"/>
      <path d="M 48.6875 27.296875 
Q 48.6875 37.203125 44.609375 42.84375 
Q 40.53125 48.484375 33.40625 48.484375 
Q 26.265625 48.484375 22.1875 42.84375 
Q 18.109375 37.203125 18.109375 27.296875 
Q 18.109375 17.390625 22.1875 11.75 
Q 26.265625 6.109375 33.40625 6.109375 
Q 40.53125 6.109375 44.609375 11.75 
Q 48.6875 17.390625 48.6875 27.296875 
z
M 18.109375 46.390625 
Q 20.953125 51.265625 25.265625 53.625 
Q 29.59375 56 35.59375 56 
Q 45.5625 56 51.78125 48.09375 
Q 58.015625 40.1875 58.015625 27.296875 
Q 58.015625 14.40625 51.78125 6.484375 
Q 45.5625 -1.421875 35.59375 -1.421875 
Q 29.59375 -1.421875 25.265625 0.953125 
Q 20.953125 3.328125 18.109375 8.203125 
L 18.109375 0 
L 9.078125 0 
L 9.078125 75.984375 
L 18.109375 75.984375 
z
" id="DejaVuSans-62"/>
      <path d="M 31 75.875 
Q 24.46875 64.65625 21.28125 53.65625 
Q 18.109375 42.671875 18.109375 31.390625 
Q 18.109375 20.125 21.3125 9.0625 
Q 24.515625 -2 31 -13.1875 
L 23.1875 -13.1875 
Q 15.875 -1.703125 12.234375 9.375 
Q 8.59375 20.453125 8.59375 31.390625 
Q 8.59375 42.28125 12.203125 53.3125 
Q 15.828125 64.359375 23.1875 75.875 
z
" id="DejaVuSans-28"/>
      <path d="M 9.8125 72.90625 
L 19.671875 72.90625 
L 19.671875 43.015625 
L 55.515625 43.015625 
L 55.515625 72.90625 
L 65.375 72.90625 
L 65.375 0 
L 55.515625 0 
L 55.515625 34.71875 
L 19.671875 34.71875 
L 19.671875 0 
L 9.8125 0 
z
" id="DejaVuSans-48"/>
      <path d="M 45.40625 46.390625 
L 45.40625 75.984375 
L 54.390625 75.984375 
L 54.390625 0 
L 45.40625 0 
L 45.40625 8.203125 
Q 42.578125 3.328125 38.25 0.953125 
Q 33.9375 -1.421875 27.875 -1.421875 
Q 17.96875 -1.421875 11.734375 6.484375 
Q 5.515625 14.40625 5.515625 27.296875 
Q 5.515625 40.1875 11.734375 48.09375 
Q 17.96875 56 27.875 56 
Q 33.9375 56 38.25 53.625 
Q 42.578125 51.265625 45.40625 46.390625 
z
M 14.796875 27.296875 
Q 14.796875 17.390625 18.875 11.75 
Q 22.953125 6.109375 30.078125 6.109375 
Q 37.203125 6.109375 41.296875 11.75 
Q 45.40625 17.390625 45.40625 27.296875 
Q 45.40625 37.203125 41.296875 42.84375 
Q 37.203125 48.484375 30.078125 48.484375 
Q 22.953125 48.484375 18.875 42.84375 
Q 14.796875 37.203125 14.796875 27.296875 
z
" id="DejaVuSans-64"/>
      <path d="M 8.015625 75.875 
L 15.828125 75.875 
Q 23.140625 64.359375 26.78125 53.3125 
Q 30.421875 42.28125 30.421875 31.390625 
Q 30.421875 20.453125 26.78125 9.375 
Q 23.140625 -1.703125 15.828125 -13.1875 
L 8.015625 -13.1875 
Q 14.5 -2 17.703125 9.0625 
Q 20.90625 20.125 20.90625 31.390625 
Q 20.90625 42.671875 17.703125 53.65625 
Q 14.5 64.65625 8.015625 75.875 
z
" id="DejaVuSans-29"/>
     </defs>
     <g transform="translate(129.309375 920.098125)rotate(-90)scale(0.2 -0.2)">
      <use xlink:href="#DejaVuSans-50"/>
      <use x="60.255859" xlink:href="#DejaVuSans-6f"/>
      <use x="121.4375" xlink:href="#DejaVuSans-70"/>
      <use x="184.914062" xlink:href="#DejaVuSans-75"/>
      <use x="248.292969" xlink:href="#DejaVuSans-6c"/>
      <use x="276.076172" xlink:href="#DejaVuSans-61"/>
      <use x="337.355469" xlink:href="#DejaVuSans-74"/>
      <use x="376.564453" xlink:href="#DejaVuSans-69"/>
      <use x="404.347656" xlink:href="#DejaVuSans-6f"/>
      <use x="465.529297" xlink:href="#DejaVuSans-6e"/>
      <use x="528.908203" xlink:href="#DejaVuSans-20"/>
      <use x="560.695312" xlink:href="#DejaVuSans-4e"/>
      <use x="635.5" xlink:href="#DejaVuSans-75"/>
      <use x="698.878906" xlink:href="#DejaVuSans-6d"/>
      <use x="796.291016" xlink:href="#DejaVuSans-62"/>
      <use x="859.767578" xlink:href="#DejaVuSans-65"/>
      <use x="921.291016" xlink:href="#DejaVuSans-72"/>
      <use x="962.404297" xlink:href="#DejaVuSans-20"/>
      <use x="994.191406" xlink:href="#DejaVuSans-28"/>
      <use x="1033.205078" xlink:href="#DejaVuSans-69"/>
      <use x="1060.988281" xlink:href="#DejaVuSans-6e"/>
      <use x="1124.367188" xlink:href="#DejaVuSans-20"/>
      <use x="1156.154297" xlink:href="#DejaVuSans-48"/>
      <use x="1231.349609" xlink:href="#DejaVuSans-75"/>
      <use x="1294.728516" xlink:href="#DejaVuSans-6e"/>
      <use x="1358.107422" xlink:href="#DejaVuSans-64"/>
      <use x="1421.583984" xlink:href="#DejaVuSans-72"/>
      <use x="1462.666016" xlink:href="#DejaVuSans-65"/>
      <use x="1524.189453" xlink:href="#DejaVuSans-64"/>
      <use x="1587.666016" xlink:href="#DejaVuSans-73"/>
      <use x="1639.765625" xlink:href="#DejaVuSans-29"/>
     </g>
    </g>
   </g>
   <g id="LineCollection_1">
    <path clip-path="url(#p949787c156)" d="M 242.263636 1323 
L 242.263636 1323 
" style="fill:none;stroke:#1f77b4;stroke-width:3;"/>
    <path clip-path="url(#p949787c156)" d="M 339.106612 971.084648 
L 339.106612 947.011034 
" style="fill:none;stroke:#1f77b4;stroke-width:3;"/>
    <path clip-path="url(#p949787c156)" d="M 435.949587 722.087554 
L 435.949587 699.201215 
" style="fill:none;stroke:#1f77b4;stroke-width:3;"/>
    <path clip-path="url(#p949787c156)" d="M 532.792562 606.157996 
L 532.792562 592.435249 
" style="fill:none;stroke:#1f77b4;stroke-width:3;"/>
    <path clip-path="url(#p949787c156)" d="M 629.635537 535.389327 
L 629.635537 517.4952 
" style="fill:none;stroke:#1f77b4;stroke-width:3;"/>
    <path clip-path="url(#p949787c156)" d="M 726.478512 530.011261 
L 726.478512 504.334331 
" style="fill:none;stroke:#1f77b4;stroke-width:3;"/>
    <path clip-path="url(#p949787c156)" d="M 823.321488 525.845712 
L 823.321488 512.198535 
" style="fill:none;stroke:#1f77b4;stroke-width:3;"/>
    <path clip-path="url(#p949787c156)" d="M 920.164463 540.838791 
L 920.164463 515.516078 
" style="fill:none;stroke:#1f77b4;stroke-width:3;"/>
    <path clip-path="url(#p949787c156)" d="M 1017.007438 567.18694 
L 1017.007438 542.912574 
" style="fill:none;stroke:#1f77b4;stroke-width:3;"/>
    <path clip-path="url(#p949787c156)" d="M 1113.850413 582.412135 
L 1113.850413 556.043729 
" style="fill:none;stroke:#1f77b4;stroke-width:3;"/>
    <path clip-path="url(#p949787c156)" d="M 1210.693388 586.068611 
L 1210.693388 559.55625 
" style="fill:none;stroke:#1f77b4;stroke-width:3;"/>
    <path clip-path="url(#p949787c156)" d="M 1307.536364 605.58636 
L 1307.536364 576.842396 
" style="fill:none;stroke:#1f77b4;stroke-width:3;"/>
   </g>
   <g id="LineCollection_2">
    <path clip-path="url(#p949787c156)" d="M 242.263636 1323 
L 242.263636 1323 
" style="fill:none;stroke:#2ca02c;stroke-width:3;"/>
    <path clip-path="url(#p949787c156)" d="M 339.106612 1139.951639 
L 339.106612 1128.831274 
" style="fill:none;stroke:#2ca02c;stroke-width:3;"/>
    <path clip-path="url(#p949787c156)" d="M 435.949587 1028.920612 
L 435.949587 1016.299191 
" style="fill:none;stroke:#2ca02c;stroke-width:3;"/>
    <path clip-path="url(#p949787c156)" d="M 532.792562 966.754596 
L 532.792562 949.423264 
" style="fill:none;stroke:#2ca02c;stroke-width:3;"/>
    <path clip-path="url(#p949787c156)" d="M 629.635537 941.548885 
L 629.635537 920.975656 
" style="fill:none;stroke:#2ca02c;stroke-width:3;"/>
    <path clip-path="url(#p949787c156)" d="M 726.478512 925.177636 
L 726.478512 902.232519 
" style="fill:none;stroke:#2ca02c;stroke-width:3;"/>
    <path clip-path="url(#p949787c156)" d="M 823.321488 933.40573 
L 823.321488 914.689493 
" style="fill:none;stroke:#2ca02c;stroke-width:3;"/>
    <path clip-path="url(#p949787c156)" d="M 920.164463 933.613375 
L 920.164463 916.217019 
" style="fill:none;stroke:#2ca02c;stroke-width:3;"/>
    <path clip-path="url(#p949787c156)" d="M 1017.007438 939.921808 
L 1017.007438 928.310532 
" style="fill:none;stroke:#2ca02c;stroke-width:3;"/>
    <path clip-path="url(#p949787c156)" d="M 1113.850413 947.967015 
L 1113.850413 930.630691 
" style="fill:none;stroke:#2ca02c;stroke-width:3;"/>
    <path clip-path="url(#p949787c156)" d="M 1210.693388 957.099345 
L 1210.693388 941.955116 
" style="fill:none;stroke:#2ca02c;stroke-width:3;"/>
    <path clip-path="url(#p949787c156)" d="M 1307.536364 965.662928 
L 1307.536364 945.994356 
" style="fill:none;stroke:#2ca02c;stroke-width:3;"/>
   </g>
   <g id="LineCollection_3">
    <path clip-path="url(#p949787c156)" d="M 242.263636 1323 
L 242.263636 1323 
" style="fill:none;stroke:#9467bd;stroke-width:3;"/>
    <path clip-path="url(#p949787c156)" d="M 339.106612 1235.841136 
L 339.106612 1226.048068 
" style="fill:none;stroke:#9467bd;stroke-width:3;"/>
    <path clip-path="url(#p949787c156)" d="M 435.949587 1178.043447 
L 435.949587 1165.260503 
" style="fill:none;stroke:#9467bd;stroke-width:3;"/>
    <path clip-path="url(#p949787c156)" d="M 532.792562 1143.790337 
L 532.792562 1131.065676 
" style="fill:none;stroke:#9467bd;stroke-width:3;"/>
    <path clip-path="url(#p949787c156)" d="M 629.635537 1137.31662 
L 629.635537 1120.187681 
" style="fill:none;stroke:#9467bd;stroke-width:3;"/>
    <path clip-path="url(#p949787c156)" d="M 726.478512 1128.077184 
L 726.478512 1115.728396 
" style="fill:none;stroke:#9467bd;stroke-width:3;"/>
    <path clip-path="url(#p949787c156)" d="M 823.321488 1127.667546 
L 823.321488 1113.809252 
" style="fill:none;stroke:#9467bd;stroke-width:3;"/>
    <path clip-path="url(#p949787c156)" d="M 920.164463 1131.024872 
L 920.164463 1116.799 
" style="fill:none;stroke:#9467bd;stroke-width:3;"/>
    <path clip-path="url(#p949787c156)" d="M 1017.007438 1134.976485 
L 1017.007438 1125.450209 
" style="fill:none;stroke:#9467bd;stroke-width:3;"/>
    <path clip-path="url(#p949787c156)" d="M 1113.850413 1137.333541 
L 1113.850413 1130.033838 
" style="fill:none;stroke:#9467bd;stroke-width:3;"/>
    <path clip-path="url(#p949787c156)" d="M 1210.693388 1143.528944 
L 1210.693388 1130.094184 
" style="fill:none;stroke:#9467bd;stroke-width:3;"/>
    <path clip-path="url(#p949787c156)" d="M 1307.536364 1141.949141 
L 1307.536364 1134.459394 
" style="fill:none;stroke:#9467bd;stroke-width:3;"/>
   </g>
   <g id="line2d_19">
    <defs>
     <path d="M 5 0 
L -5 -0 
" id="m717916335a" style="stroke:#1f77b4;"/>
    </defs>
    <g clip-path="url(#p949787c156)">
     <use style="fill:#1f77b4;stroke:#1f77b4;" x="242.263636" xlink:href="#m717916335a" y="1323"/>
     <use style="fill:#1f77b4;stroke:#1f77b4;" x="339.106612" xlink:href="#m717916335a" y="971.084648"/>
     <use style="fill:#1f77b4;stroke:#1f77b4;" x="435.949587" xlink:href="#m717916335a" y="722.087554"/>
     <use style="fill:#1f77b4;stroke:#1f77b4;" x="532.792562" xlink:href="#m717916335a" y="606.157996"/>
     <use style="fill:#1f77b4;stroke:#1f77b4;" x="629.635537" xlink:href="#m717916335a" y="535.389327"/>
     <use style="fill:#1f77b4;stroke:#1f77b4;" x="726.478512" xlink:href="#m717916335a" y="530.011261"/>
     <use style="fill:#1f77b4;stroke:#1f77b4;" x="823.321488" xlink:href="#m717916335a" y="525.845712"/>
     <use style="fill:#1f77b4;stroke:#1f77b4;" x="920.164463" xlink:href="#m717916335a" y="540.838791"/>
     <use style="fill:#1f77b4;stroke:#1f77b4;" x="1017.007438" xlink:href="#m717916335a" y="567.18694"/>
     <use style="fill:#1f77b4;stroke:#1f77b4;" x="1113.850413" xlink:href="#m717916335a" y="582.412135"/>
     <use style="fill:#1f77b4;stroke:#1f77b4;" x="1210.693388" xlink:href="#m717916335a" y="586.068611"/>
     <use style="fill:#1f77b4;stroke:#1f77b4;" x="1307.536364" xlink:href="#m717916335a" y="605.58636"/>
    </g>
   </g>
   <g id="line2d_20">
    <g clip-path="url(#p949787c156)">
     <use style="fill:#1f77b4;stroke:#1f77b4;" x="242.263636" xlink:href="#m717916335a" y="1323"/>
     <use style="fill:#1f77b4;stroke:#1f77b4;" x="339.106612" xlink:href="#m717916335a" y="947.011034"/>
     <use style="fill:#1f77b4;stroke:#1f77b4;" x="435.949587" xlink:href="#m717916335a" y="699.201215"/>
     <use style="fill:#1f77b4;stroke:#1f77b4;" x="532.792562" xlink:href="#m717916335a" y="592.435249"/>
     <use style="fill:#1f77b4;stroke:#1f77b4;" x="629.635537" xlink:href="#m717916335a" y="517.4952"/>
     <use style="fill:#1f77b4;stroke:#1f77b4;" x="726.478512" xlink:href="#m717916335a" y="504.334331"/>
     <use style="fill:#1f77b4;stroke:#1f77b4;" x="823.321488" xlink:href="#m717916335a" y="512.198535"/>
     <use style="fill:#1f77b4;stroke:#1f77b4;" x="920.164463" xlink:href="#m717916335a" y="515.516078"/>
     <use style="fill:#1f77b4;stroke:#1f77b4;" x="1017.007438" xlink:href="#m717916335a" y="542.912574"/>
     <use style="fill:#1f77b4;stroke:#1f77b4;" x="1113.850413" xlink:href="#m717916335a" y="556.043729"/>
     <use style="fill:#1f77b4;stroke:#1f77b4;" x="1210.693388" xlink:href="#m717916335a" y="559.55625"/>
     <use style="fill:#1f77b4;stroke:#1f77b4;" x="1307.536364" xlink:href="#m717916335a" y="576.842396"/>
    </g>
   </g>
   <g id="line2d_21">
    <path clip-path="url(#p949787c156)" d="M 242.263636 1323 
L 251.947934 1283.236584 
L 261.632231 1244.050289 
L 271.316529 1205.505378 
L 281.000826 1167.666115 
L 290.685124 1130.596761 
L 300.369421 1094.36158 
L 310.053719 1059.024835 
L 319.738017 1024.650788 
L 329.422314 991.303702 
L 339.106612 959.047841 
L 348.790909 927.947466 
L 358.475207 898.066842 
L 368.159504 869.47023 
L 377.843802 842.221894 
L 387.528099 816.386096 
L 397.212397 792.0271 
L 406.896694 769.209168 
L 416.580992 747.996563 
L 426.265289 728.453547 
L 435.949587 710.644385 
L 445.633884 694.590582 
L 455.318182 680.142623 
L 465.002479 667.108234 
L 474.686777 655.295144 
L 484.371074 644.51108 
L 494.055372 634.56377 
L 503.739669 625.260942 
L 513.423967 616.410323 
L 523.108264 607.81964 
L 532.792562 599.296622 
L 542.47686 590.699951 
L 552.161157 582.092124 
L 561.845455 573.586595 
L 571.529752 565.296817 
L 581.21405 557.336241 
L 590.898347 549.818322 
L 600.582645 542.856512 
L 610.266942 536.564264 
L 619.95124 531.05503 
L 629.635537 526.442263 
L 639.319835 522.80201 
L 649.004132 520.060686 
L 658.68843 518.107303 
L 668.372727 516.83087 
L 678.057025 516.120398 
L 687.741322 515.864896 
L 697.42562 515.953375 
L 707.109917 516.274844 
L 716.794215 516.718315 
L 726.478512 517.172796 
L 736.16281 517.548415 
L 745.847107 517.839765 
L 755.531405 518.062557 
L 765.215702 518.232501 
L 774.9 518.365306 
L 784.584298 518.476684 
L 794.268595 518.582344 
L 803.952893 518.697998 
L 813.63719 518.839354 
L 823.321488 519.022123 
L 833.005785 519.26361 
L 842.690083 519.587492 
L 852.37438 520.019042 
L 862.058678 520.583531 
L 871.742975 521.306232 
L 881.427273 522.212417 
L 891.11157 523.327358 
L 900.795868 524.676326 
L 910.480165 526.284594 
L 920.164463 528.177434 
L 929.84876 530.366851 
L 939.533058 532.811779 
L 949.217355 535.457887 
L 958.901653 538.250841 
L 968.58595 541.136311 
L 978.270248 544.059964 
L 987.954545 546.967467 
L 997.638843 549.804488 
L 1007.32314 552.516696 
L 1017.007438 555.049757 
L 1026.691736 557.359993 
L 1036.376033 559.446341 
L 1046.060331 561.318391 
L 1055.744628 562.985732 
L 1065.428926 564.457954 
L 1075.113223 565.744648 
L 1084.797521 566.855402 
L 1094.481818 567.799808 
L 1104.166116 568.587454 
L 1113.850413 569.227932 
L 1123.534711 569.733995 
L 1133.219008 570.131053 
L 1142.903306 570.447684 
L 1152.587603 570.712461 
L 1162.271901 570.953961 
L 1171.956198 571.200758 
L 1181.640496 571.481428 
L 1191.324793 571.824547 
L 1201.009091 572.258689 
L 1210.693388 572.81243 
L 1220.377686 573.514346 
L 1230.061983 574.393012 
L 1239.746281 575.477003 
L 1249.430579 576.794895 
L 1259.114876 578.375262 
L 1268.799174 580.246681 
L 1278.483471 582.437727 
L 1288.167769 584.976975 
L 1297.852066 587.893 
" style="fill:none;stroke:#ff7f0e;stroke-linecap:square;stroke-width:4;"/>
   </g>
   <g id="line2d_22">
    <defs>
     <path d="M 5 0 
L -5 -0 
" id="mc43b2daffc" style="stroke:#2ca02c;"/>
    </defs>
    <g clip-path="url(#p949787c156)">
     <use style="fill:#2ca02c;stroke:#2ca02c;" x="242.263636" xlink:href="#mc43b2daffc" y="1323"/>
     <use style="fill:#2ca02c;stroke:#2ca02c;" x="339.106612" xlink:href="#mc43b2daffc" y="1139.951639"/>
     <use style="fill:#2ca02c;stroke:#2ca02c;" x="435.949587" xlink:href="#mc43b2daffc" y="1028.920612"/>
     <use style="fill:#2ca02c;stroke:#2ca02c;" x="532.792562" xlink:href="#mc43b2daffc" y="966.754596"/>
     <use style="fill:#2ca02c;stroke:#2ca02c;" x="629.635537" xlink:href="#mc43b2daffc" y="941.548885"/>
     <use style="fill:#2ca02c;stroke:#2ca02c;" x="726.478512" xlink:href="#mc43b2daffc" y="925.177636"/>
     <use style="fill:#2ca02c;stroke:#2ca02c;" x="823.321488" xlink:href="#mc43b2daffc" y="933.40573"/>
     <use style="fill:#2ca02c;stroke:#2ca02c;" x="920.164463" xlink:href="#mc43b2daffc" y="933.613375"/>
     <use style="fill:#2ca02c;stroke:#2ca02c;" x="1017.007438" xlink:href="#mc43b2daffc" y="939.921808"/>
     <use style="fill:#2ca02c;stroke:#2ca02c;" x="1113.850413" xlink:href="#mc43b2daffc" y="947.967015"/>
     <use style="fill:#2ca02c;stroke:#2ca02c;" x="1210.693388" xlink:href="#mc43b2daffc" y="957.099345"/>
     <use style="fill:#2ca02c;stroke:#2ca02c;" x="1307.536364" xlink:href="#mc43b2daffc" y="965.662928"/>
    </g>
   </g>
   <g id="line2d_23">
    <g clip-path="url(#p949787c156)">
     <use style="fill:#2ca02c;stroke:#2ca02c;" x="242.263636" xlink:href="#mc43b2daffc" y="1323"/>
     <use style="fill:#2ca02c;stroke:#2ca02c;" x="339.106612" xlink:href="#mc43b2daffc" y="1128.831274"/>
     <use style="fill:#2ca02c;stroke:#2ca02c;" x="435.949587" xlink:href="#mc43b2daffc" y="1016.299191"/>
     <use style="fill:#2ca02c;stroke:#2ca02c;" x="532.792562" xlink:href="#mc43b2daffc" y="949.423264"/>
     <use style="fill:#2ca02c;stroke:#2ca02c;" x="629.635537" xlink:href="#mc43b2daffc" y="920.975656"/>
     <use style="fill:#2ca02c;stroke:#2ca02c;" x="726.478512" xlink:href="#mc43b2daffc" y="902.232519"/>
     <use style="fill:#2ca02c;stroke:#2ca02c;" x="823.321488" xlink:href="#mc43b2daffc" y="914.689493"/>
     <use style="fill:#2ca02c;stroke:#2ca02c;" x="920.164463" xlink:href="#mc43b2daffc" y="916.217019"/>
     <use style="fill:#2ca02c;stroke:#2ca02c;" x="1017.007438" xlink:href="#mc43b2daffc" y="928.310532"/>
     <use style="fill:#2ca02c;stroke:#2ca02c;" x="1113.850413" xlink:href="#mc43b2daffc" y="930.630691"/>
     <use style="fill:#2ca02c;stroke:#2ca02c;" x="1210.693388" xlink:href="#mc43b2daffc" y="941.955116"/>
     <use style="fill:#2ca02c;stroke:#2ca02c;" x="1307.536364" xlink:href="#mc43b2daffc" y="945.994356"/>
    </g>
   </g>
   <g id="line2d_24">
    <path clip-path="url(#p949787c156)" d="M 242.263636 1323 
L 251.947934 1299.611378 
L 261.632231 1277.329095 
L 271.316529 1256.115589 
L 281.000826 1235.933295 
L 290.685124 1216.74465 
L 300.369421 1198.512092 
L 310.053719 1181.198057 
L 319.738017 1164.764982 
L 329.422314 1149.175303 
L 339.106612 1134.391457 
L 348.790909 1120.375881 
L 358.475207 1107.091011 
L 368.159504 1094.499285 
L 377.843802 1082.563139 
L 387.528099 1071.24501 
L 397.212397 1060.507335 
L 406.896694 1050.312549 
L 416.580992 1040.623091 
L 426.265289 1031.401396 
L 435.949587 1022.609902 
L 445.633884 1014.219041 
L 455.318182 1006.231236 
L 465.002479 998.656904 
L 474.686777 991.506462 
L 484.371074 984.79033 
L 494.055372 978.518925 
L 503.739669 972.702664 
L 513.423967 967.351966 
L 523.108264 962.477249 
L 532.792562 958.08893 
L 542.47686 954.185441 
L 552.161157 950.717262 
L 561.845455 947.622888 
L 571.529752 944.840811 
L 581.21405 942.309527 
L 590.898347 939.967528 
L 600.582645 937.75331 
L 610.266942 935.605365 
L 619.95124 933.462187 
L 629.635537 931.26227 
L 639.319835 928.965203 
L 649.004132 926.614949 
L 658.68843 924.276564 
L 668.372727 922.015108 
L 678.057025 919.895637 
L 687.741322 917.983209 
L 697.42562 916.342881 
L 707.109917 915.039712 
L 716.794215 914.138758 
L 726.478512 913.705078 
L 736.16281 913.778395 
L 745.847107 914.2971 
L 755.531405 915.174251 
L 765.215702 916.322905 
L 774.9 917.656119 
L 784.584298 919.086952 
L 794.268595 920.52846 
L 803.952893 921.893701 
L 813.63719 923.095732 
L 823.321488 924.047611 
L 833.005785 924.68663 
L 842.690083 925.047019 
L 852.37438 925.187242 
L 862.058678 925.165765 
L 871.742975 925.041051 
L 881.427273 924.871565 
L 891.11157 924.715772 
L 900.795868 924.632137 
L 910.480165 924.679123 
L 920.164463 924.915197 
L 929.84876 925.3824 
L 939.533058 926.057088 
L 949.217355 926.899196 
L 958.901653 927.868658 
L 968.58595 928.925407 
L 978.270248 930.029379 
L 987.954545 931.140507 
L 997.638843 932.218726 
L 1007.32314 933.223969 
L 1017.007438 934.11617 
L 1026.691736 934.866557 
L 1036.376033 935.491526 
L 1046.060331 936.018765 
L 1055.744628 936.475963 
L 1065.428926 936.890808 
L 1075.113223 937.29099 
L 1084.797521 937.704197 
L 1094.481818 938.158117 
L 1104.166116 938.680439 
L 1113.850413 939.298853 
L 1123.534711 940.033714 
L 1133.219008 940.876049 
L 1142.903306 941.809554 
L 1152.587603 942.817924 
L 1162.271901 943.884854 
L 1171.956198 944.994039 
L 1181.640496 946.129174 
L 1191.324793 947.273954 
L 1201.009091 948.412075 
L 1210.693388 949.52723 
L 1220.377686 950.603116 
L 1230.061983 951.623428 
L 1239.746281 952.571859 
L 1249.430579 953.432107 
L 1259.114876 954.187865 
L 1268.799174 954.822828 
L 1278.483471 955.320693 
L 1288.167769 955.665153 
L 1297.852066 955.839904 
" style="fill:none;stroke:#d62728;stroke-linecap:square;stroke-width:4;"/>
   </g>
   <g id="line2d_25">
    <defs>
     <path d="M 5 0 
L -5 -0 
" id="me6d88aac4e" style="stroke:#9467bd;"/>
    </defs>
    <g clip-path="url(#p949787c156)">
     <use style="fill:#9467bd;stroke:#9467bd;" x="242.263636" xlink:href="#me6d88aac4e" y="1323"/>
     <use style="fill:#9467bd;stroke:#9467bd;" x="339.106612" xlink:href="#me6d88aac4e" y="1235.841136"/>
     <use style="fill:#9467bd;stroke:#9467bd;" x="435.949587" xlink:href="#me6d88aac4e" y="1178.043447"/>
     <use style="fill:#9467bd;stroke:#9467bd;" x="532.792562" xlink:href="#me6d88aac4e" y="1143.790337"/>
     <use style="fill:#9467bd;stroke:#9467bd;" x="629.635537" xlink:href="#me6d88aac4e" y="1137.31662"/>
     <use style="fill:#9467bd;stroke:#9467bd;" x="726.478512" xlink:href="#me6d88aac4e" y="1128.077184"/>
     <use style="fill:#9467bd;stroke:#9467bd;" x="823.321488" xlink:href="#me6d88aac4e" y="1127.667546"/>
     <use style="fill:#9467bd;stroke:#9467bd;" x="920.164463" xlink:href="#me6d88aac4e" y="1131.024872"/>
     <use style="fill:#9467bd;stroke:#9467bd;" x="1017.007438" xlink:href="#me6d88aac4e" y="1134.976485"/>
     <use style="fill:#9467bd;stroke:#9467bd;" x="1113.850413" xlink:href="#me6d88aac4e" y="1137.333541"/>
     <use style="fill:#9467bd;stroke:#9467bd;" x="1210.693388" xlink:href="#me6d88aac4e" y="1143.528944"/>
     <use style="fill:#9467bd;stroke:#9467bd;" x="1307.536364" xlink:href="#me6d88aac4e" y="1141.949141"/>
    </g>
   </g>
   <g id="line2d_26">
    <g clip-path="url(#p949787c156)">
     <use style="fill:#9467bd;stroke:#9467bd;" x="242.263636" xlink:href="#me6d88aac4e" y="1323"/>
     <use style="fill:#9467bd;stroke:#9467bd;" x="339.106612" xlink:href="#me6d88aac4e" y="1226.048068"/>
     <use style="fill:#9467bd;stroke:#9467bd;" x="435.949587" xlink:href="#me6d88aac4e" y="1165.260503"/>
     <use style="fill:#9467bd;stroke:#9467bd;" x="532.792562" xlink:href="#me6d88aac4e" y="1131.065676"/>
     <use style="fill:#9467bd;stroke:#9467bd;" x="629.635537" xlink:href="#me6d88aac4e" y="1120.187681"/>
     <use style="fill:#9467bd;stroke:#9467bd;" x="726.478512" xlink:href="#me6d88aac4e" y="1115.728396"/>
     <use style="fill:#9467bd;stroke:#9467bd;" x="823.321488" xlink:href="#me6d88aac4e" y="1113.809252"/>
     <use style="fill:#9467bd;stroke:#9467bd;" x="920.164463" xlink:href="#me6d88aac4e" y="1116.799"/>
     <use style="fill:#9467bd;stroke:#9467bd;" x="1017.007438" xlink:href="#me6d88aac4e" y="1125.450209"/>
     <use style="fill:#9467bd;stroke:#9467bd;" x="1113.850413" xlink:href="#me6d88aac4e" y="1130.033838"/>
     <use style="fill:#9467bd;stroke:#9467bd;" x="1210.693388" xlink:href="#me6d88aac4e" y="1130.094184"/>
     <use style="fill:#9467bd;stroke:#9467bd;" x="1307.536364" xlink:href="#me6d88aac4e" y="1134.459394"/>
    </g>
   </g>
   <g id="line2d_27">
    <path clip-path="url(#p949787c156)" d="M 242.263636 1323 
L 251.947934 1311.972947 
L 261.632231 1301.383159 
L 271.316529 1291.218457 
L 281.000826 1281.466656 
L 290.685124 1272.115575 
L 300.369421 1263.153033 
L 310.053719 1254.566846 
L 319.738017 1246.344833 
L 329.422314 1238.474813 
L 339.106612 1230.944602 
L 348.790909 1223.742018 
L 358.475207 1216.854881 
L 368.159504 1210.271007 
L 377.843802 1203.978214 
L 387.528099 1197.964321 
L 397.212397 1192.217145 
L 406.896694 1186.724505 
L 416.580992 1181.474218 
L 426.265289 1176.454102 
L 435.949587 1171.651975 
L 445.633884 1167.060143 
L 455.318182 1162.688864 
L 465.002479 1158.552884 
L 474.686777 1154.666947 
L 484.371074 1151.0458 
L 494.055372 1147.704188 
L 503.739669 1144.656857 
L 513.423967 1141.918553 
L 523.108264 1139.504021 
L 532.792562 1137.428006 
L 542.47686 1135.695477 
L 552.161157 1134.272288 
L 561.845455 1133.114515 
L 571.529752 1132.178233 
L 581.21405 1131.41952 
L 590.898347 1130.794452 
L 600.582645 1130.259105 
L 610.266942 1129.769555 
L 619.95124 1129.281878 
L 629.635537 1128.75215 
L 639.319835 1128.146873 
L 649.004132 1127.474241 
L 658.68843 1126.752874 
L 668.372727 1126.001392 
L 678.057025 1125.238415 
L 687.741322 1124.482562 
L 697.42562 1123.752454 
L 707.109917 1123.066709 
L 716.794215 1122.443948 
L 726.478512 1121.90279 
L 736.16281 1121.457519 
L 745.847107 1121.105066 
L 755.531405 1120.838027 
L 765.215702 1120.648999 
L 774.9 1120.530576 
L 784.584298 1120.475355 
L 794.268595 1120.475931 
L 803.952893 1120.5249 
L 813.63719 1120.614858 
L 823.321488 1120.738399 
L 833.005785 1120.889841 
L 842.690083 1121.070377 
L 852.37438 1121.282925 
L 862.058678 1121.530398 
L 871.742975 1121.815712 
L 881.427273 1122.141783 
L 891.11157 1122.511525 
L 900.795868 1122.927855 
L 910.480165 1123.393686 
L 920.164463 1123.911936 
L 929.84876 1124.483113 
L 939.533058 1125.098106 
L 949.217355 1125.745398 
L 958.901653 1126.41347 
L 968.58595 1127.090807 
L 978.270248 1127.765891 
L 987.954545 1128.427204 
L 997.638843 1129.063229 
L 1007.32314 1129.662449 
L 1017.007438 1130.213347 
L 1026.691736 1130.707559 
L 1036.376033 1131.149331 
L 1046.060331 1131.546063 
L 1055.744628 1131.905156 
L 1065.428926 1132.23401 
L 1075.113223 1132.540025 
L 1084.797521 1132.8306 
L 1094.481818 1133.113136 
L 1104.166116 1133.395032 
L 1113.850413 1133.68369 
L 1123.534711 1133.984749 
L 1133.219008 1134.296818 
L 1142.903306 1134.616746 
L 1152.587603 1134.94138 
L 1162.271901 1135.26757 
L 1171.956198 1135.592165 
L 1181.640496 1135.912013 
L 1191.324793 1136.223963 
L 1201.009091 1136.524864 
L 1210.693388 1136.811564 
L 1220.377686 1137.080913 
L 1230.061983 1137.329758 
L 1239.746281 1137.55495 
L 1249.430579 1137.753336 
L 1259.114876 1137.921765 
L 1268.799174 1138.057086 
L 1278.483471 1138.156149 
L 1288.167769 1138.2158 
L 1297.852066 1138.23289 
" style="fill:none;stroke:#8c564b;stroke-linecap:square;stroke-width:4;"/>
   </g>
   <g id="line2d_28">
    <defs>
     <path d="M 0 3 
C 0.795609 3 1.55874 2.683901 2.12132 2.12132 
C 2.683901 1.55874 3 0.795609 3 0 
C 3 -0.795609 2.683901 -1.55874 2.12132 -2.12132 
C 1.55874 -2.683901 0.795609 -3 0 -3 
C -0.795609 -3 -1.55874 -2.683901 -2.12132 -2.12132 
C -2.683901 -1.55874 -3 -0.795609 -3 0 
C -3 0.795609 -2.683901 1.55874 -2.12132 2.12132 
C -1.55874 2.683901 -0.795609 3 0 3 
z
" id="m5d921eee3a" style="stroke:#1f77b4;"/>
    </defs>
    <g clip-path="url(#p949787c156)">
     <use style="fill:#1f77b4;stroke:#1f77b4;" x="242.263636" xlink:href="#m5d921eee3a" y="1323"/>
     <use style="fill:#1f77b4;stroke:#1f77b4;" x="339.106612" xlink:href="#m5d921eee3a" y="959.047841"/>
     <use style="fill:#1f77b4;stroke:#1f77b4;" x="435.949587" xlink:href="#m5d921eee3a" y="710.644385"/>
     <use style="fill:#1f77b4;stroke:#1f77b4;" x="532.792562" xlink:href="#m5d921eee3a" y="599.296622"/>
     <use style="fill:#1f77b4;stroke:#1f77b4;" x="629.635537" xlink:href="#m5d921eee3a" y="526.442263"/>
     <use style="fill:#1f77b4;stroke:#1f77b4;" x="726.478512" xlink:href="#m5d921eee3a" y="517.172796"/>
     <use style="fill:#1f77b4;stroke:#1f77b4;" x="823.321488" xlink:href="#m5d921eee3a" y="519.022123"/>
     <use style="fill:#1f77b4;stroke:#1f77b4;" x="920.164463" xlink:href="#m5d921eee3a" y="528.177434"/>
     <use style="fill:#1f77b4;stroke:#1f77b4;" x="1017.007438" xlink:href="#m5d921eee3a" y="555.049757"/>
     <use style="fill:#1f77b4;stroke:#1f77b4;" x="1113.850413" xlink:href="#m5d921eee3a" y="569.227932"/>
     <use style="fill:#1f77b4;stroke:#1f77b4;" x="1210.693388" xlink:href="#m5d921eee3a" y="572.81243"/>
     <use style="fill:#1f77b4;stroke:#1f77b4;" x="1307.536364" xlink:href="#m5d921eee3a" y="591.214378"/>
    </g>
   </g>
   <g id="line2d_29">
    <defs>
     <path d="M 0 3 
C 0.795609 3 1.55874 2.683901 2.12132 2.12132 
C 2.683901 1.55874 3 0.795609 3 0 
C 3 -0.795609 2.683901 -1.55874 2.12132 -2.12132 
C 1.55874 -2.683901 0.795609 -3 0 -3 
C -0.795609 -3 -1.55874 -2.683901 -2.12132 -2.12132 
C -2.683901 -1.55874 -3 -0.795609 -3 0 
C -3 0.795609 -2.683901 1.55874 -2.12132 2.12132 
C -1.55874 2.683901 -0.795609 3 0 3 
z
" id="m1b8090c005" style="stroke:#2ca02c;"/>
    </defs>
    <g clip-path="url(#p949787c156)">
     <use style="fill:#2ca02c;stroke:#2ca02c;" x="242.263636" xlink:href="#m1b8090c005" y="1323"/>
     <use style="fill:#2ca02c;stroke:#2ca02c;" x="339.106612" xlink:href="#m1b8090c005" y="1134.391457"/>
     <use style="fill:#2ca02c;stroke:#2ca02c;" x="435.949587" xlink:href="#m1b8090c005" y="1022.609902"/>
     <use style="fill:#2ca02c;stroke:#2ca02c;" x="532.792562" xlink:href="#m1b8090c005" y="958.08893"/>
     <use style="fill:#2ca02c;stroke:#2ca02c;" x="629.635537" xlink:href="#m1b8090c005" y="931.26227"/>
     <use style="fill:#2ca02c;stroke:#2ca02c;" x="726.478512" xlink:href="#m1b8090c005" y="913.705078"/>
     <use style="fill:#2ca02c;stroke:#2ca02c;" x="823.321488" xlink:href="#m1b8090c005" y="924.047611"/>
     <use style="fill:#2ca02c;stroke:#2ca02c;" x="920.164463" xlink:href="#m1b8090c005" y="924.915197"/>
     <use style="fill:#2ca02c;stroke:#2ca02c;" x="1017.007438" xlink:href="#m1b8090c005" y="934.11617"/>
     <use style="fill:#2ca02c;stroke:#2ca02c;" x="1113.850413" xlink:href="#m1b8090c005" y="939.298853"/>
     <use style="fill:#2ca02c;stroke:#2ca02c;" x="1210.693388" xlink:href="#m1b8090c005" y="949.52723"/>
     <use style="fill:#2ca02c;stroke:#2ca02c;" x="1307.536364" xlink:href="#m1b8090c005" y="955.828642"/>
    </g>
   </g>
   <g id="line2d_30">
    <defs>
     <path d="M 0 3 
C 0.795609 3 1.55874 2.683901 2.12132 2.12132 
C 2.683901 1.55874 3 0.795609 3 0 
C 3 -0.795609 2.683901 -1.55874 2.12132 -2.12132 
C 1.55874 -2.683901 0.795609 -3 0 -3 
C -0.795609 -3 -1.55874 -2.683901 -2.12132 -2.12132 
C -2.683901 -1.55874 -3 -0.795609 -3 0 
C -3 0.795609 -2.683901 1.55874 -2.12132 2.12132 
C -1.55874 2.683901 -0.795609 3 0 3 
z
" id="m7592ef5aae" style="stroke:#9467bd;"/>
    </defs>
    <g clip-path="url(#p949787c156)">
     <use style="fill:#9467bd;stroke:#9467bd;" x="242.263636" xlink:href="#m7592ef5aae" y="1323"/>
     <use style="fill:#9467bd;stroke:#9467bd;" x="339.106612" xlink:href="#m7592ef5aae" y="1230.944602"/>
     <use style="fill:#9467bd;stroke:#9467bd;" x="435.949587" xlink:href="#m7592ef5aae" y="1171.651975"/>
     <use style="fill:#9467bd;stroke:#9467bd;" x="532.792562" xlink:href="#m7592ef5aae" y="1137.428006"/>
     <use style="fill:#9467bd;stroke:#9467bd;" x="629.635537" xlink:href="#m7592ef5aae" y="1128.75215"/>
     <use style="fill:#9467bd;stroke:#9467bd;" x="726.478512" xlink:href="#m7592ef5aae" y="1121.90279"/>
     <use style="fill:#9467bd;stroke:#9467bd;" x="823.321488" xlink:href="#m7592ef5aae" y="1120.738399"/>
     <use style="fill:#9467bd;stroke:#9467bd;" x="920.164463" xlink:href="#m7592ef5aae" y="1123.911936"/>
     <use style="fill:#9467bd;stroke:#9467bd;" x="1017.007438" xlink:href="#m7592ef5aae" y="1130.213347"/>
     <use style="fill:#9467bd;stroke:#9467bd;" x="1113.850413" xlink:href="#m7592ef5aae" y="1133.68369"/>
     <use style="fill:#9467bd;stroke:#9467bd;" x="1210.693388" xlink:href="#m7592ef5aae" y="1136.811564"/>
     <use style="fill:#9467bd;stroke:#9467bd;" x="1307.536364" xlink:href="#m7592ef5aae" y="1138.204267"/>
    </g>
   </g>
   <g id="patch_3">
    <path d="M 189 1323 
L 189 181.44 
" style="fill:none;stroke:#000000;stroke-linecap:square;stroke-linejoin:miter;stroke-width:0.8;"/>
   </g>
   <g id="patch_4">
    <path d="M 1360.8 1323 
L 1360.8 181.44 
" style="fill:none;stroke:#000000;stroke-linecap:square;stroke-linejoin:miter;stroke-width:0.8;"/>
   </g>
   <g id="patch_5">
    <path d="M 189 1323 
L 1360.8 1323 
" style="fill:none;stroke:#000000;stroke-linecap:square;stroke-linejoin:miter;stroke-width:0.8;"/>
   </g>
   <g id="patch_6">
    <path d="M 189 181.44 
L 1360.8 181.44 
" style="fill:none;stroke:#000000;stroke-linecap:square;stroke-linejoin:miter;stroke-width:0.8;"/>
   </g>
   <g id="legend_1">
    <g id="patch_7">
     <path d="M 1088.119688 275.101875 
L 1348.2 275.101875 
Q 1351.8 275.101875 1351.8 271.501875 
L 1351.8 194.04 
Q 1351.8 190.44 1348.2 190.44 
L 1088.119688 190.44 
Q 1084.519688 190.44 1084.519688 194.04 
L 1084.519688 271.501875 
Q 1084.519688 275.101875 1088.119688 275.101875 
z
" style="fill:#ffffff;opacity:0.8;stroke:#cccccc;stroke-linejoin:miter;"/>
    </g>
    <g id="line2d_31">
     <path d="M 1091.719688 205.017188 
L 1127.719688 205.017188 
" style="fill:none;stroke:#ff7f0e;stroke-linecap:square;stroke-width:4;"/>
    </g>
    <g id="line2d_32"/>
    <g id="text_21">
     <!-- Vaccination rate=0.8 -->
     <defs>
      <path d="M 28.609375 0 
L 0.78125 72.90625 
L 11.078125 72.90625 
L 34.1875 11.53125 
L 57.328125 72.90625 
L 67.578125 72.90625 
L 39.796875 0 
z
" id="DejaVuSans-56"/>
      <path d="M 48.78125 52.59375 
L 48.78125 44.1875 
Q 44.96875 46.296875 41.140625 47.34375 
Q 37.3125 48.390625 33.40625 48.390625 
Q 24.65625 48.390625 19.8125 42.84375 
Q 14.984375 37.3125 14.984375 27.296875 
Q 14.984375 17.28125 19.8125 11.734375 
Q 24.65625 6.203125 33.40625 6.203125 
Q 37.3125 6.203125 41.140625 7.25 
Q 44.96875 8.296875 48.78125 10.40625 
L 48.78125 2.09375 
Q 45.015625 0.34375 40.984375 -0.53125 
Q 36.96875 -1.421875 32.421875 -1.421875 
Q 20.0625 -1.421875 12.78125 6.34375 
Q 5.515625 14.109375 5.515625 27.296875 
Q 5.515625 40.671875 12.859375 48.328125 
Q 20.21875 56 33.015625 56 
Q 37.15625 56 41.109375 55.140625 
Q 45.0625 54.296875 48.78125 52.59375 
z
" id="DejaVuSans-63"/>
      <path d="M 10.59375 45.40625 
L 73.1875 45.40625 
L 73.1875 37.203125 
L 10.59375 37.203125 
z
M 10.59375 25.484375 
L 73.1875 25.484375 
L 73.1875 17.1875 
L 10.59375 17.1875 
z
" id="DejaVuSans-3d"/>
     </defs>
     <g transform="translate(1142.119688 211.317188)scale(0.18 -0.18)">
      <use xlink:href="#DejaVuSans-56"/>
      <use x="68.298828" xlink:href="#DejaVuSans-61"/>
      <use x="129.578125" xlink:href="#DejaVuSans-63"/>
      <use x="184.558594" xlink:href="#DejaVuSans-63"/>
      <use x="239.539062" xlink:href="#DejaVuSans-69"/>
      <use x="267.322266" xlink:href="#DejaVuSans-6e"/>
      <use x="330.701172" xlink:href="#DejaVuSans-61"/>
      <use x="391.980469" xlink:href="#DejaVuSans-74"/>
      <use x="431.189453" xlink:href="#DejaVuSans-69"/>
      <use x="458.972656" xlink:href="#DejaVuSans-6f"/>
      <use x="520.154297" xlink:href="#DejaVuSans-6e"/>
      <use x="583.533203" xlink:href="#DejaVuSans-20"/>
      <use x="615.320312" xlink:href="#DejaVuSans-72"/>
      <use x="656.433594" xlink:href="#DejaVuSans-61"/>
      <use x="717.712891" xlink:href="#DejaVuSans-74"/>
      <use x="756.921875" xlink:href="#DejaVuSans-65"/>
      <use x="818.445312" xlink:href="#DejaVuSans-3d"/>
      <use x="902.234375" xlink:href="#DejaVuSans-30"/>
      <use x="965.857422" xlink:href="#DejaVuSans-2e"/>
      <use x="997.644531" xlink:href="#DejaVuSans-38"/>
     </g>
    </g>
    <g id="line2d_33">
     <path d="M 1091.719688 231.437813 
L 1127.719688 231.437813 
" style="fill:none;stroke:#d62728;stroke-linecap:square;stroke-width:4;"/>
    </g>
    <g id="line2d_34"/>
    <g id="text_22">
     <!-- Vaccination rate=0.9 -->
     <g transform="translate(1142.119688 237.737813)scale(0.18 -0.18)">
      <use xlink:href="#DejaVuSans-56"/>
      <use x="68.298828" xlink:href="#DejaVuSans-61"/>
      <use x="129.578125" xlink:href="#DejaVuSans-63"/>
      <use x="184.558594" xlink:href="#DejaVuSans-63"/>
      <use x="239.539062" xlink:href="#DejaVuSans-69"/>
      <use x="267.322266" xlink:href="#DejaVuSans-6e"/>
      <use x="330.701172" xlink:href="#DejaVuSans-61"/>
      <use x="391.980469" xlink:href="#DejaVuSans-74"/>
      <use x="431.189453" xlink:href="#DejaVuSans-69"/>
      <use x="458.972656" xlink:href="#DejaVuSans-6f"/>
      <use x="520.154297" xlink:href="#DejaVuSans-6e"/>
      <use x="583.533203" xlink:href="#DejaVuSans-20"/>
      <use x="615.320312" xlink:href="#DejaVuSans-72"/>
      <use x="656.433594" xlink:href="#DejaVuSans-61"/>
      <use x="717.712891" xlink:href="#DejaVuSans-74"/>
      <use x="756.921875" xlink:href="#DejaVuSans-65"/>
      <use x="818.445312" xlink:href="#DejaVuSans-3d"/>
      <use x="902.234375" xlink:href="#DejaVuSans-30"/>
      <use x="965.857422" xlink:href="#DejaVuSans-2e"/>
      <use x="997.644531" xlink:href="#DejaVuSans-39"/>
     </g>
    </g>
    <g id="line2d_35">
     <path d="M 1091.719688 257.858437 
L 1127.719688 257.858437 
" style="fill:none;stroke:#8c564b;stroke-linecap:square;stroke-width:4;"/>
    </g>
    <g id="line2d_36"/>
    <g id="text_23">
     <!-- Vaccination rate=0.95 -->
     <g transform="translate(1142.119688 264.158437)scale(0.18 -0.18)">
      <use xlink:href="#DejaVuSans-56"/>
      <use x="68.298828" xlink:href="#DejaVuSans-61"/>
      <use x="129.578125" xlink:href="#DejaVuSans-63"/>
      <use x="184.558594" xlink:href="#DejaVuSans-63"/>
      <use x="239.539062" xlink:href="#DejaVuSans-69"/>
      <use x="267.322266" xlink:href="#DejaVuSans-6e"/>
      <use x="330.701172" xlink:href="#DejaVuSans-61"/>
      <use x="391.980469" xlink:href="#DejaVuSans-74"/>
      <use x="431.189453" xlink:href="#DejaVuSans-69"/>
      <use x="458.972656" xlink:href="#DejaVuSans-6f"/>
      <use x="520.154297" xlink:href="#DejaVuSans-6e"/>
      <use x="583.533203" xlink:href="#DejaVuSans-20"/>
      <use x="615.320312" xlink:href="#DejaVuSans-72"/>
      <use x="656.433594" xlink:href="#DejaVuSans-61"/>
      <use x="717.712891" xlink:href="#DejaVuSans-74"/>
      <use x="756.921875" xlink:href="#DejaVuSans-65"/>
      <use x="818.445312" xlink:href="#DejaVuSans-3d"/>
      <use x="902.234375" xlink:href="#DejaVuSans-30"/>
      <use x="965.857422" xlink:href="#DejaVuSans-2e"/>
      <use x="997.644531" xlink:href="#DejaVuSans-39"/>
      <use x="1061.267578" xlink:href="#DejaVuSans-35"/>
     </g>
    </g>
   </g>
  </g>
 </g>
 <defs>
  <clipPath id="p949787c156">
   <rect height="1141.56" width="1171.8" x="189" y="181.44"/>
  </clipPath>
 </defs>
</svg>
