<?xml version="1.0" encoding="utf-8" standalone="no"?>
<!DOCTYPE svg PUBLIC "-//W3C//DTD SVG 1.1//EN"
  "http://www.w3.org/Graphics/SVG/1.1/DTD/svg11.dtd">
<!-- Created with matplotlib (http://matplotlib.org/) -->
<svg height="1512pt" version="1.1" viewBox="0 0 1512 1512" width="1512pt" xmlns="http://www.w3.org/2000/svg" xmlns:xlink="http://www.w3.org/1999/xlink">
 <defs>
  <style type="text/css">
*{stroke-linecap:butt;stroke-linejoin:round;}
  </style>
 </defs>
 <g id="figure_1">
  <g id="patch_1">
   <path d="M 0 1512 
L 1512 1512 
L 1512 0 
L 0 0 
z
" style="fill:#ffffff;"/>
  </g>
  <g id="axes_1">
   <g id="patch_2">
    <path d="M 189 1323 
L 1360.8 1323 
L 1360.8 181.44 
L 189 181.44 
z
" style="fill:#ffffff;"/>
   </g>
   <g id="PolyCollection_1">
    <path clip-path="url(#p30a037c927)" d="M 242.263636 1323 
L 242.263636 1323 
L 251.947934 1300.909213 
L 261.632231 1279.13905 
L 271.316529 1257.72521 
L 281.000826 1236.703397 
L 290.685124 1216.109312 
L 300.369421 1195.978656 
L 310.053719 1176.34713 
L 319.738017 1157.250438 
L 329.422314 1138.724279 
L 339.106612 1120.804356 
L 348.790909 1103.52637 
L 358.475207 1086.926023 
L 368.159504 1071.039017 
L 377.843802 1055.901052 
L 387.528099 1041.547831 
L 397.212397 1028.015055 
L 406.896694 1015.338426 
L 416.580992 1003.553646 
L 426.265289 992.696415 
L 435.949587 982.802436 
L 445.633884 973.883657 
L 455.318182 965.857013 
L 465.002479 958.615686 
L 474.686777 952.052858 
L 484.371074 946.061711 
L 494.055372 940.535428 
L 503.739669 935.36719 
L 513.423967 930.450179 
L 523.108264 925.677578 
L 532.792562 920.942568 
L 542.47686 916.166639 
L 552.161157 911.384513 
L 561.845455 906.659219 
L 571.529752 902.053787 
L 581.21405 897.631245 
L 590.898347 893.454624 
L 600.582645 889.586951 
L 610.266942 886.091258 
L 619.95124 883.030572 
L 629.635537 880.467924 
L 639.319835 878.445561 
L 649.004132 876.922603 
L 658.68843 875.83739 
L 668.372727 875.128261 
L 678.057025 874.733554 
L 687.741322 874.591609 
L 697.42562 874.640764 
L 707.109917 874.819358 
L 716.794215 875.06573 
L 726.478512 875.31822 
L 736.16281 875.526897 
L 745.847107 875.688758 
L 755.531405 875.812532 
L 765.215702 875.906945 
L 774.9 875.980726 
L 784.584298 876.042602 
L 794.268595 876.101302 
L 803.952893 876.165554 
L 813.63719 876.244085 
L 823.321488 876.345624 
L 833.005785 876.479783 
L 842.690083 876.659718 
L 852.37438 876.899468 
L 862.058678 877.213073 
L 871.742975 877.614574 
L 881.427273 878.11801 
L 891.11157 878.737421 
L 900.795868 879.486848 
L 910.480165 880.38033 
L 920.164463 881.431908 
L 929.84876 882.648251 
L 939.533058 884.006544 
L 949.217355 885.476604 
L 958.901653 887.028245 
L 968.58595 888.631284 
L 978.270248 890.255535 
L 987.954545 891.870815 
L 997.638843 893.446938 
L 1007.32314 894.95372 
L 1017.007438 896.360976 
L 1026.691736 897.644441 
L 1036.376033 898.803523 
L 1046.060331 899.843551 
L 1055.744628 900.769851 
L 1065.428926 901.587752 
L 1075.113223 902.302582 
L 1084.797521 902.919668 
L 1094.481818 903.444338 
L 1104.166116 903.881919 
L 1113.850413 904.23774 
L 1123.534711 904.518886 
L 1133.219008 904.739474 
L 1142.903306 904.91538 
L 1152.587603 905.062478 
L 1162.271901 905.196645 
L 1171.956198 905.333754 
L 1181.640496 905.489682 
L 1191.324793 905.680304 
L 1201.009091 905.921494 
L 1210.693388 906.229128 
L 1220.377686 906.619081 
L 1230.061983 907.107229 
L 1239.746281 907.709446 
L 1249.430579 908.441608 
L 1259.114876 909.31959 
L 1268.799174 910.359267 
L 1278.483471 911.576515 
L 1288.167769 912.987208 
L 1297.852066 914.607222 
L 1297.852066 1323 
L 1297.852066 1323 
L 1288.167769 1323 
L 1278.483471 1323 
L 1268.799174 1323 
L 1259.114876 1323 
L 1249.430579 1323 
L 1239.746281 1323 
L 1230.061983 1323 
L 1220.377686 1323 
L 1210.693388 1323 
L 1201.009091 1323 
L 1191.324793 1323 
L 1181.640496 1323 
L 1171.956198 1323 
L 1162.271901 1323 
L 1152.587603 1323 
L 1142.903306 1323 
L 1133.219008 1323 
L 1123.534711 1323 
L 1113.850413 1323 
L 1104.166116 1323 
L 1094.481818 1323 
L 1084.797521 1323 
L 1075.113223 1323 
L 1065.428926 1323 
L 1055.744628 1323 
L 1046.060331 1323 
L 1036.376033 1323 
L 1026.691736 1323 
L 1017.007438 1323 
L 1007.32314 1323 
L 997.638843 1323 
L 987.954545 1323 
L 978.270248 1323 
L 968.58595 1323 
L 958.901653 1323 
L 949.217355 1323 
L 939.533058 1323 
L 929.84876 1323 
L 920.164463 1323 
L 910.480165 1323 
L 900.795868 1323 
L 891.11157 1323 
L 881.427273 1323 
L 871.742975 1323 
L 862.058678 1323 
L 852.37438 1323 
L 842.690083 1323 
L 833.005785 1323 
L 823.321488 1323 
L 813.63719 1323 
L 803.952893 1323 
L 794.268595 1323 
L 784.584298 1323 
L 774.9 1323 
L 765.215702 1323 
L 755.531405 1323 
L 745.847107 1323 
L 736.16281 1323 
L 726.478512 1323 
L 716.794215 1323 
L 707.109917 1323 
L 697.42562 1323 
L 687.741322 1323 
L 678.057025 1323 
L 668.372727 1323 
L 658.68843 1323 
L 649.004132 1323 
L 639.319835 1323 
L 629.635537 1323 
L 619.95124 1323 
L 610.266942 1323 
L 600.582645 1323 
L 590.898347 1323 
L 581.21405 1323 
L 571.529752 1323 
L 561.845455 1323 
L 552.161157 1323 
L 542.47686 1323 
L 532.792562 1323 
L 523.108264 1323 
L 513.423967 1323 
L 503.739669 1323 
L 494.055372 1323 
L 484.371074 1323 
L 474.686777 1323 
L 465.002479 1323 
L 455.318182 1323 
L 445.633884 1323 
L 435.949587 1323 
L 426.265289 1323 
L 416.580992 1323 
L 406.896694 1323 
L 397.212397 1323 
L 387.528099 1323 
L 377.843802 1323 
L 368.159504 1323 
L 358.475207 1323 
L 348.790909 1323 
L 339.106612 1323 
L 329.422314 1323 
L 319.738017 1323 
L 310.053719 1323 
L 300.369421 1323 
L 290.685124 1323 
L 281.000826 1323 
L 271.316529 1323 
L 261.632231 1323 
L 251.947934 1323 
L 242.263636 1323 
z
" style="fill:#1f77b4;fill-opacity:0.6;"/>
   </g>
   <g id="PolyCollection_2">
    <path clip-path="url(#p30a037c927)" d="M 242.263636 1323 
L 242.263636 1323 
L 251.947934 1283.236584 
L 261.632231 1244.050289 
L 271.316529 1205.505378 
L 281.000826 1167.666115 
L 290.685124 1130.596761 
L 300.369421 1094.36158 
L 310.053719 1059.024835 
L 319.738017 1024.650788 
L 329.422314 991.303702 
L 339.106612 959.047841 
L 348.790909 927.947466 
L 358.475207 898.066842 
L 368.159504 869.47023 
L 377.843802 842.221894 
L 387.528099 816.386096 
L 397.212397 792.0271 
L 406.896694 769.209168 
L 416.580992 747.996563 
L 426.265289 728.453547 
L 435.949587 710.644385 
L 445.633884 694.590582 
L 455.318182 680.142623 
L 465.002479 667.108234 
L 474.686777 655.295144 
L 484.371074 644.51108 
L 494.055372 634.56377 
L 503.739669 625.260942 
L 513.423967 616.410323 
L 523.108264 607.81964 
L 532.792562 599.296622 
L 542.47686 590.699951 
L 552.161157 582.092124 
L 561.845455 573.586595 
L 571.529752 565.296817 
L 581.21405 557.336241 
L 590.898347 549.818322 
L 600.582645 542.856512 
L 610.266942 536.564264 
L 619.95124 531.05503 
L 629.635537 526.442263 
L 639.319835 522.80201 
L 649.004132 520.060686 
L 658.68843 518.107303 
L 668.372727 516.83087 
L 678.057025 516.120398 
L 687.741322 515.864896 
L 697.42562 515.953375 
L 707.109917 516.274844 
L 716.794215 516.718315 
L 726.478512 517.172796 
L 736.16281 517.548415 
L 745.847107 517.839765 
L 755.531405 518.062557 
L 765.215702 518.232501 
L 774.9 518.365306 
L 784.584298 518.476684 
L 794.268595 518.582344 
L 803.952893 518.697998 
L 813.63719 518.839354 
L 823.321488 519.022123 
L 833.005785 519.26361 
L 842.690083 519.587492 
L 852.37438 520.019042 
L 862.058678 520.583531 
L 871.742975 521.306232 
L 881.427273 522.212417 
L 891.11157 523.327358 
L 900.795868 524.676326 
L 910.480165 526.284594 
L 920.164463 528.177434 
L 929.84876 530.366851 
L 939.533058 532.811779 
L 949.217355 535.457887 
L 958.901653 538.250841 
L 968.58595 541.136311 
L 978.270248 544.059964 
L 987.954545 546.967467 
L 997.638843 549.804488 
L 1007.32314 552.516696 
L 1017.007438 555.049757 
L 1026.691736 557.359993 
L 1036.376033 559.446341 
L 1046.060331 561.318391 
L 1055.744628 562.985732 
L 1065.428926 564.457954 
L 1075.113223 565.744648 
L 1084.797521 566.855402 
L 1094.481818 567.799808 
L 1104.166116 568.587454 
L 1113.850413 569.227932 
L 1123.534711 569.733995 
L 1133.219008 570.131053 
L 1142.903306 570.447684 
L 1152.587603 570.712461 
L 1162.271901 570.953961 
L 1171.956198 571.200758 
L 1181.640496 571.481428 
L 1191.324793 571.824547 
L 1201.009091 572.258689 
L 1210.693388 572.81243 
L 1220.377686 573.514346 
L 1230.061983 574.393012 
L 1239.746281 575.477003 
L 1249.430579 576.794895 
L 1259.114876 578.375262 
L 1268.799174 580.246681 
L 1278.483471 582.437727 
L 1288.167769 584.976975 
L 1297.852066 587.893 
L 1297.852066 914.607222 
L 1297.852066 914.607222 
L 1288.167769 912.987208 
L 1278.483471 911.576515 
L 1268.799174 910.359267 
L 1259.114876 909.31959 
L 1249.430579 908.441608 
L 1239.746281 907.709446 
L 1230.061983 907.107229 
L 1220.377686 906.619081 
L 1210.693388 906.229128 
L 1201.009091 905.921494 
L 1191.324793 905.680304 
L 1181.640496 905.489682 
L 1171.956198 905.333754 
L 1162.271901 905.196645 
L 1152.587603 905.062478 
L 1142.903306 904.91538 
L 1133.219008 904.739474 
L 1123.534711 904.518886 
L 1113.850413 904.23774 
L 1104.166116 903.881919 
L 1094.481818 903.444338 
L 1084.797521 902.919668 
L 1075.113223 902.302582 
L 1065.428926 901.587752 
L 1055.744628 900.769851 
L 1046.060331 899.843551 
L 1036.376033 898.803523 
L 1026.691736 897.644441 
L 1017.007438 896.360976 
L 1007.32314 894.95372 
L 997.638843 893.446938 
L 987.954545 891.870815 
L 978.270248 890.255535 
L 968.58595 888.631284 
L 958.901653 887.028245 
L 949.217355 885.476604 
L 939.533058 884.006544 
L 929.84876 882.648251 
L 920.164463 881.431908 
L 910.480165 880.38033 
L 900.795868 879.486848 
L 891.11157 878.737421 
L 881.427273 878.11801 
L 871.742975 877.614574 
L 862.058678 877.213073 
L 852.37438 876.899468 
L 842.690083 876.659718 
L 833.005785 876.479783 
L 823.321488 876.345624 
L 813.63719 876.244085 
L 803.952893 876.165554 
L 794.268595 876.101302 
L 784.584298 876.042602 
L 774.9 875.980726 
L 765.215702 875.906945 
L 755.531405 875.812532 
L 745.847107 875.688758 
L 736.16281 875.526897 
L 726.478512 875.31822 
L 716.794215 875.06573 
L 707.109917 874.819358 
L 697.42562 874.640764 
L 687.741322 874.591609 
L 678.057025 874.733554 
L 668.372727 875.128261 
L 658.68843 875.83739 
L 649.004132 876.922603 
L 639.319835 878.445561 
L 629.635537 880.467924 
L 619.95124 883.030572 
L 610.266942 886.091258 
L 600.582645 889.586951 
L 590.898347 893.454624 
L 581.21405 897.631245 
L 571.529752 902.053787 
L 561.845455 906.659219 
L 552.161157 911.384513 
L 542.47686 916.166639 
L 532.792562 920.942568 
L 523.108264 925.677578 
L 513.423967 930.450179 
L 503.739669 935.36719 
L 494.055372 940.535428 
L 484.371074 946.061711 
L 474.686777 952.052858 
L 465.002479 958.615686 
L 455.318182 965.857013 
L 445.633884 973.883657 
L 435.949587 982.802436 
L 426.265289 992.696415 
L 416.580992 1003.553646 
L 406.896694 1015.338426 
L 397.212397 1028.015055 
L 387.528099 1041.547831 
L 377.843802 1055.901052 
L 368.159504 1071.039017 
L 358.475207 1086.926023 
L 348.790909 1103.52637 
L 339.106612 1120.804356 
L 329.422314 1138.724279 
L 319.738017 1157.250438 
L 310.053719 1176.34713 
L 300.369421 1195.978656 
L 290.685124 1216.109312 
L 281.000826 1236.703397 
L 271.316529 1257.72521 
L 261.632231 1279.13905 
L 251.947934 1300.909213 
L 242.263636 1323 
z
" style="fill:#ff7f0e;fill-opacity:0.6;"/>
   </g>
   <g id="matplotlib.axis_1">
    <g id="xtick_1">
     <g id="line2d_1">
      <defs>
       <path d="M 0 0 
L 0 3.5 
" id="m994e785be5" style="stroke:#000000;stroke-width:0.8;"/>
      </defs>
      <g>
       <use style="stroke:#000000;stroke-width:0.8;" x="242.263636" xlink:href="#m994e785be5" y="1323"/>
      </g>
     </g>
     <g id="text_1">
      <!-- 2019 -->
      <defs>
       <path d="M 19.1875 8.296875 
L 53.609375 8.296875 
L 53.609375 0 
L 7.328125 0 
L 7.328125 8.296875 
Q 12.9375 14.109375 22.625 23.890625 
Q 32.328125 33.6875 34.8125 36.53125 
Q 39.546875 41.84375 41.421875 45.53125 
Q 43.3125 49.21875 43.3125 52.78125 
Q 43.3125 58.59375 39.234375 62.25 
Q 35.15625 65.921875 28.609375 65.921875 
Q 23.96875 65.921875 18.8125 64.3125 
Q 13.671875 62.703125 7.8125 59.421875 
L 7.8125 69.390625 
Q 13.765625 71.78125 18.9375 73 
Q 24.125 74.21875 28.421875 74.21875 
Q 39.75 74.21875 46.484375 68.546875 
Q 53.21875 62.890625 53.21875 53.421875 
Q 53.21875 48.921875 51.53125 44.890625 
Q 49.859375 40.875 45.40625 35.40625 
Q 44.1875 33.984375 37.640625 27.21875 
Q 31.109375 20.453125 19.1875 8.296875 
z
" id="DejaVuSans-32"/>
       <path d="M 31.78125 66.40625 
Q 24.171875 66.40625 20.328125 58.90625 
Q 16.5 51.421875 16.5 36.375 
Q 16.5 21.390625 20.328125 13.890625 
Q 24.171875 6.390625 31.78125 6.390625 
Q 39.453125 6.390625 43.28125 13.890625 
Q 47.125 21.390625 47.125 36.375 
Q 47.125 51.421875 43.28125 58.90625 
Q 39.453125 66.40625 31.78125 66.40625 
z
M 31.78125 74.21875 
Q 44.046875 74.21875 50.515625 64.515625 
Q 56.984375 54.828125 56.984375 36.375 
Q 56.984375 17.96875 50.515625 8.265625 
Q 44.046875 -1.421875 31.78125 -1.421875 
Q 19.53125 -1.421875 13.0625 8.265625 
Q 6.59375 17.96875 6.59375 36.375 
Q 6.59375 54.828125 13.0625 64.515625 
Q 19.53125 74.21875 31.78125 74.21875 
z
" id="DejaVuSans-30"/>
       <path d="M 12.40625 8.296875 
L 28.515625 8.296875 
L 28.515625 63.921875 
L 10.984375 60.40625 
L 10.984375 69.390625 
L 28.421875 72.90625 
L 38.28125 72.90625 
L 38.28125 8.296875 
L 54.390625 8.296875 
L 54.390625 0 
L 12.40625 0 
z
" id="DejaVuSans-31"/>
       <path d="M 10.984375 1.515625 
L 10.984375 10.5 
Q 14.703125 8.734375 18.5 7.8125 
Q 22.3125 6.890625 25.984375 6.890625 
Q 35.75 6.890625 40.890625 13.453125 
Q 46.046875 20.015625 46.78125 33.40625 
Q 43.953125 29.203125 39.59375 26.953125 
Q 35.25 24.703125 29.984375 24.703125 
Q 19.046875 24.703125 12.671875 31.3125 
Q 6.296875 37.9375 6.296875 49.421875 
Q 6.296875 60.640625 12.9375 67.421875 
Q 19.578125 74.21875 30.609375 74.21875 
Q 43.265625 74.21875 49.921875 64.515625 
Q 56.59375 54.828125 56.59375 36.375 
Q 56.59375 19.140625 48.40625 8.859375 
Q 40.234375 -1.421875 26.421875 -1.421875 
Q 22.703125 -1.421875 18.890625 -0.6875 
Q 15.09375 0.046875 10.984375 1.515625 
z
M 30.609375 32.421875 
Q 37.25 32.421875 41.125 36.953125 
Q 45.015625 41.5 45.015625 49.421875 
Q 45.015625 57.28125 41.125 61.84375 
Q 37.25 66.40625 30.609375 66.40625 
Q 23.96875 66.40625 20.09375 61.84375 
Q 16.21875 57.28125 16.21875 49.421875 
Q 16.21875 41.5 20.09375 36.953125 
Q 23.96875 32.421875 30.609375 32.421875 
z
" id="DejaVuSans-39"/>
      </defs>
      <g transform="translate(216.813636 1345.196875)scale(0.2 -0.2)">
       <use xlink:href="#DejaVuSans-32"/>
       <use x="63.623047" xlink:href="#DejaVuSans-30"/>
       <use x="127.246094" xlink:href="#DejaVuSans-31"/>
       <use x="190.869141" xlink:href="#DejaVuSans-39"/>
      </g>
     </g>
    </g>
    <g id="xtick_2">
     <g id="line2d_2">
      <g>
       <use style="stroke:#000000;stroke-width:0.8;" x="339.106612" xlink:href="#m994e785be5" y="1323"/>
      </g>
     </g>
     <g id="text_2">
      <!-- 2020 -->
      <g transform="translate(313.656612 1345.196875)scale(0.2 -0.2)">
       <use xlink:href="#DejaVuSans-32"/>
       <use x="63.623047" xlink:href="#DejaVuSans-30"/>
       <use x="127.246094" xlink:href="#DejaVuSans-32"/>
       <use x="190.869141" xlink:href="#DejaVuSans-30"/>
      </g>
     </g>
    </g>
    <g id="xtick_3">
     <g id="line2d_3">
      <g>
       <use style="stroke:#000000;stroke-width:0.8;" x="435.949587" xlink:href="#m994e785be5" y="1323"/>
      </g>
     </g>
     <g id="text_3">
      <!-- 2021 -->
      <g transform="translate(410.499587 1345.196875)scale(0.2 -0.2)">
       <use xlink:href="#DejaVuSans-32"/>
       <use x="63.623047" xlink:href="#DejaVuSans-30"/>
       <use x="127.246094" xlink:href="#DejaVuSans-32"/>
       <use x="190.869141" xlink:href="#DejaVuSans-31"/>
      </g>
     </g>
    </g>
    <g id="xtick_4">
     <g id="line2d_4">
      <g>
       <use style="stroke:#000000;stroke-width:0.8;" x="532.792562" xlink:href="#m994e785be5" y="1323"/>
      </g>
     </g>
     <g id="text_4">
      <!-- 2022 -->
      <g transform="translate(507.342562 1345.196875)scale(0.2 -0.2)">
       <use xlink:href="#DejaVuSans-32"/>
       <use x="63.623047" xlink:href="#DejaVuSans-30"/>
       <use x="127.246094" xlink:href="#DejaVuSans-32"/>
       <use x="190.869141" xlink:href="#DejaVuSans-32"/>
      </g>
     </g>
    </g>
    <g id="xtick_5">
     <g id="line2d_5">
      <g>
       <use style="stroke:#000000;stroke-width:0.8;" x="629.635537" xlink:href="#m994e785be5" y="1323"/>
      </g>
     </g>
     <g id="text_5">
      <!-- 2023 -->
      <defs>
       <path d="M 40.578125 39.3125 
Q 47.65625 37.796875 51.625 33 
Q 55.609375 28.21875 55.609375 21.1875 
Q 55.609375 10.40625 48.1875 4.484375 
Q 40.765625 -1.421875 27.09375 -1.421875 
Q 22.515625 -1.421875 17.65625 -0.515625 
Q 12.796875 0.390625 7.625 2.203125 
L 7.625 11.71875 
Q 11.71875 9.328125 16.59375 8.109375 
Q 21.484375 6.890625 26.8125 6.890625 
Q 36.078125 6.890625 40.9375 10.546875 
Q 45.796875 14.203125 45.796875 21.1875 
Q 45.796875 27.640625 41.28125 31.265625 
Q 36.765625 34.90625 28.71875 34.90625 
L 20.21875 34.90625 
L 20.21875 43.015625 
L 29.109375 43.015625 
Q 36.375 43.015625 40.234375 45.921875 
Q 44.09375 48.828125 44.09375 54.296875 
Q 44.09375 59.90625 40.109375 62.90625 
Q 36.140625 65.921875 28.71875 65.921875 
Q 24.65625 65.921875 20.015625 65.03125 
Q 15.375 64.15625 9.8125 62.3125 
L 9.8125 71.09375 
Q 15.4375 72.65625 20.34375 73.4375 
Q 25.25 74.21875 29.59375 74.21875 
Q 40.828125 74.21875 47.359375 69.109375 
Q 53.90625 64.015625 53.90625 55.328125 
Q 53.90625 49.265625 50.4375 45.09375 
Q 46.96875 40.921875 40.578125 39.3125 
z
" id="DejaVuSans-33"/>
      </defs>
      <g transform="translate(604.185537 1345.196875)scale(0.2 -0.2)">
       <use xlink:href="#DejaVuSans-32"/>
       <use x="63.623047" xlink:href="#DejaVuSans-30"/>
       <use x="127.246094" xlink:href="#DejaVuSans-32"/>
       <use x="190.869141" xlink:href="#DejaVuSans-33"/>
      </g>
     </g>
    </g>
    <g id="xtick_6">
     <g id="line2d_6">
      <g>
       <use style="stroke:#000000;stroke-width:0.8;" x="726.478512" xlink:href="#m994e785be5" y="1323"/>
      </g>
     </g>
     <g id="text_6">
      <!-- 2024 -->
      <defs>
       <path d="M 37.796875 64.3125 
L 12.890625 25.390625 
L 37.796875 25.390625 
z
M 35.203125 72.90625 
L 47.609375 72.90625 
L 47.609375 25.390625 
L 58.015625 25.390625 
L 58.015625 17.1875 
L 47.609375 17.1875 
L 47.609375 0 
L 37.796875 0 
L 37.796875 17.1875 
L 4.890625 17.1875 
L 4.890625 26.703125 
z
" id="DejaVuSans-34"/>
      </defs>
      <g transform="translate(701.028512 1345.196875)scale(0.2 -0.2)">
       <use xlink:href="#DejaVuSans-32"/>
       <use x="63.623047" xlink:href="#DejaVuSans-30"/>
       <use x="127.246094" xlink:href="#DejaVuSans-32"/>
       <use x="190.869141" xlink:href="#DejaVuSans-34"/>
      </g>
     </g>
    </g>
    <g id="xtick_7">
     <g id="line2d_7">
      <g>
       <use style="stroke:#000000;stroke-width:0.8;" x="823.321488" xlink:href="#m994e785be5" y="1323"/>
      </g>
     </g>
     <g id="text_7">
      <!-- 2025 -->
      <defs>
       <path d="M 10.796875 72.90625 
L 49.515625 72.90625 
L 49.515625 64.59375 
L 19.828125 64.59375 
L 19.828125 46.734375 
Q 21.96875 47.46875 24.109375 47.828125 
Q 26.265625 48.1875 28.421875 48.1875 
Q 40.625 48.1875 47.75 41.5 
Q 54.890625 34.8125 54.890625 23.390625 
Q 54.890625 11.625 47.5625 5.09375 
Q 40.234375 -1.421875 26.90625 -1.421875 
Q 22.3125 -1.421875 17.546875 -0.640625 
Q 12.796875 0.140625 7.71875 1.703125 
L 7.71875 11.625 
Q 12.109375 9.234375 16.796875 8.0625 
Q 21.484375 6.890625 26.703125 6.890625 
Q 35.15625 6.890625 40.078125 11.328125 
Q 45.015625 15.765625 45.015625 23.390625 
Q 45.015625 31 40.078125 35.4375 
Q 35.15625 39.890625 26.703125 39.890625 
Q 22.75 39.890625 18.8125 39.015625 
Q 14.890625 38.140625 10.796875 36.28125 
z
" id="DejaVuSans-35"/>
      </defs>
      <g transform="translate(797.871488 1345.196875)scale(0.2 -0.2)">
       <use xlink:href="#DejaVuSans-32"/>
       <use x="63.623047" xlink:href="#DejaVuSans-30"/>
       <use x="127.246094" xlink:href="#DejaVuSans-32"/>
       <use x="190.869141" xlink:href="#DejaVuSans-35"/>
      </g>
     </g>
    </g>
    <g id="xtick_8">
     <g id="line2d_8">
      <g>
       <use style="stroke:#000000;stroke-width:0.8;" x="920.164463" xlink:href="#m994e785be5" y="1323"/>
      </g>
     </g>
     <g id="text_8">
      <!-- 2026 -->
      <defs>
       <path d="M 33.015625 40.375 
Q 26.375 40.375 22.484375 35.828125 
Q 18.609375 31.296875 18.609375 23.390625 
Q 18.609375 15.53125 22.484375 10.953125 
Q 26.375 6.390625 33.015625 6.390625 
Q 39.65625 6.390625 43.53125 10.953125 
Q 47.40625 15.53125 47.40625 23.390625 
Q 47.40625 31.296875 43.53125 35.828125 
Q 39.65625 40.375 33.015625 40.375 
z
M 52.59375 71.296875 
L 52.59375 62.3125 
Q 48.875 64.0625 45.09375 64.984375 
Q 41.3125 65.921875 37.59375 65.921875 
Q 27.828125 65.921875 22.671875 59.328125 
Q 17.53125 52.734375 16.796875 39.40625 
Q 19.671875 43.65625 24.015625 45.921875 
Q 28.375 48.1875 33.59375 48.1875 
Q 44.578125 48.1875 50.953125 41.515625 
Q 57.328125 34.859375 57.328125 23.390625 
Q 57.328125 12.15625 50.6875 5.359375 
Q 44.046875 -1.421875 33.015625 -1.421875 
Q 20.359375 -1.421875 13.671875 8.265625 
Q 6.984375 17.96875 6.984375 36.375 
Q 6.984375 53.65625 15.1875 63.9375 
Q 23.390625 74.21875 37.203125 74.21875 
Q 40.921875 74.21875 44.703125 73.484375 
Q 48.484375 72.75 52.59375 71.296875 
z
" id="DejaVuSans-36"/>
      </defs>
      <g transform="translate(894.714463 1345.196875)scale(0.2 -0.2)">
       <use xlink:href="#DejaVuSans-32"/>
       <use x="63.623047" xlink:href="#DejaVuSans-30"/>
       <use x="127.246094" xlink:href="#DejaVuSans-32"/>
       <use x="190.869141" xlink:href="#DejaVuSans-36"/>
      </g>
     </g>
    </g>
    <g id="xtick_9">
     <g id="line2d_9">
      <g>
       <use style="stroke:#000000;stroke-width:0.8;" x="1017.007438" xlink:href="#m994e785be5" y="1323"/>
      </g>
     </g>
     <g id="text_9">
      <!-- 2027 -->
      <defs>
       <path d="M 8.203125 72.90625 
L 55.078125 72.90625 
L 55.078125 68.703125 
L 28.609375 0 
L 18.3125 0 
L 43.21875 64.59375 
L 8.203125 64.59375 
z
" id="DejaVuSans-37"/>
      </defs>
      <g transform="translate(991.557438 1345.196875)scale(0.2 -0.2)">
       <use xlink:href="#DejaVuSans-32"/>
       <use x="63.623047" xlink:href="#DejaVuSans-30"/>
       <use x="127.246094" xlink:href="#DejaVuSans-32"/>
       <use x="190.869141" xlink:href="#DejaVuSans-37"/>
      </g>
     </g>
    </g>
    <g id="xtick_10">
     <g id="line2d_10">
      <g>
       <use style="stroke:#000000;stroke-width:0.8;" x="1113.850413" xlink:href="#m994e785be5" y="1323"/>
      </g>
     </g>
     <g id="text_10">
      <!-- 2028 -->
      <defs>
       <path d="M 31.78125 34.625 
Q 24.75 34.625 20.71875 30.859375 
Q 16.703125 27.09375 16.703125 20.515625 
Q 16.703125 13.921875 20.71875 10.15625 
Q 24.75 6.390625 31.78125 6.390625 
Q 38.8125 6.390625 42.859375 10.171875 
Q 46.921875 13.96875 46.921875 20.515625 
Q 46.921875 27.09375 42.890625 30.859375 
Q 38.875 34.625 31.78125 34.625 
z
M 21.921875 38.8125 
Q 15.578125 40.375 12.03125 44.71875 
Q 8.5 49.078125 8.5 55.328125 
Q 8.5 64.0625 14.71875 69.140625 
Q 20.953125 74.21875 31.78125 74.21875 
Q 42.671875 74.21875 48.875 69.140625 
Q 55.078125 64.0625 55.078125 55.328125 
Q 55.078125 49.078125 51.53125 44.71875 
Q 48 40.375 41.703125 38.8125 
Q 48.828125 37.15625 52.796875 32.3125 
Q 56.78125 27.484375 56.78125 20.515625 
Q 56.78125 9.90625 50.3125 4.234375 
Q 43.84375 -1.421875 31.78125 -1.421875 
Q 19.734375 -1.421875 13.25 4.234375 
Q 6.78125 9.90625 6.78125 20.515625 
Q 6.78125 27.484375 10.78125 32.3125 
Q 14.796875 37.15625 21.921875 38.8125 
z
M 18.3125 54.390625 
Q 18.3125 48.734375 21.84375 45.5625 
Q 25.390625 42.390625 31.78125 42.390625 
Q 38.140625 42.390625 41.71875 45.5625 
Q 45.3125 48.734375 45.3125 54.390625 
Q 45.3125 60.0625 41.71875 63.234375 
Q 38.140625 66.40625 31.78125 66.40625 
Q 25.390625 66.40625 21.84375 63.234375 
Q 18.3125 60.0625 18.3125 54.390625 
z
" id="DejaVuSans-38"/>
      </defs>
      <g transform="translate(1088.400413 1345.196875)scale(0.2 -0.2)">
       <use xlink:href="#DejaVuSans-32"/>
       <use x="63.623047" xlink:href="#DejaVuSans-30"/>
       <use x="127.246094" xlink:href="#DejaVuSans-32"/>
       <use x="190.869141" xlink:href="#DejaVuSans-38"/>
      </g>
     </g>
    </g>
    <g id="xtick_11">
     <g id="line2d_11">
      <g>
       <use style="stroke:#000000;stroke-width:0.8;" x="1210.693388" xlink:href="#m994e785be5" y="1323"/>
      </g>
     </g>
     <g id="text_11">
      <!-- 2029 -->
      <g transform="translate(1185.243388 1345.196875)scale(0.2 -0.2)">
       <use xlink:href="#DejaVuSans-32"/>
       <use x="63.623047" xlink:href="#DejaVuSans-30"/>
       <use x="127.246094" xlink:href="#DejaVuSans-32"/>
       <use x="190.869141" xlink:href="#DejaVuSans-39"/>
      </g>
     </g>
    </g>
    <g id="xtick_12">
     <g id="line2d_12">
      <g>
       <use style="stroke:#000000;stroke-width:0.8;" x="1307.536364" xlink:href="#m994e785be5" y="1323"/>
      </g>
     </g>
     <g id="text_12">
      <!-- 2030 -->
      <g transform="translate(1282.086364 1345.196875)scale(0.2 -0.2)">
       <use xlink:href="#DejaVuSans-32"/>
       <use x="63.623047" xlink:href="#DejaVuSans-30"/>
       <use x="127.246094" xlink:href="#DejaVuSans-33"/>
       <use x="190.869141" xlink:href="#DejaVuSans-30"/>
      </g>
     </g>
    </g>
    <g id="text_13">
     <!-- Years -->
     <defs>
      <path d="M -0.203125 72.90625 
L 10.40625 72.90625 
L 30.609375 42.921875 
L 50.6875 72.90625 
L 61.28125 72.90625 
L 35.5 34.71875 
L 35.5 0 
L 25.59375 0 
L 25.59375 34.71875 
z
" id="DejaVuSans-59"/>
      <path d="M 56.203125 29.59375 
L 56.203125 25.203125 
L 14.890625 25.203125 
Q 15.484375 15.921875 20.484375 11.0625 
Q 25.484375 6.203125 34.421875 6.203125 
Q 39.59375 6.203125 44.453125 7.46875 
Q 49.3125 8.734375 54.109375 11.28125 
L 54.109375 2.78125 
Q 49.265625 0.734375 44.1875 -0.34375 
Q 39.109375 -1.421875 33.890625 -1.421875 
Q 20.796875 -1.421875 13.15625 6.1875 
Q 5.515625 13.8125 5.515625 26.8125 
Q 5.515625 40.234375 12.765625 48.109375 
Q 20.015625 56 32.328125 56 
Q 43.359375 56 49.78125 48.890625 
Q 56.203125 41.796875 56.203125 29.59375 
z
M 47.21875 32.234375 
Q 47.125 39.59375 43.09375 43.984375 
Q 39.0625 48.390625 32.421875 48.390625 
Q 24.90625 48.390625 20.390625 44.140625 
Q 15.875 39.890625 15.1875 32.171875 
z
" id="DejaVuSans-65"/>
      <path d="M 34.28125 27.484375 
Q 23.390625 27.484375 19.1875 25 
Q 14.984375 22.515625 14.984375 16.5 
Q 14.984375 11.71875 18.140625 8.90625 
Q 21.296875 6.109375 26.703125 6.109375 
Q 34.1875 6.109375 38.703125 11.40625 
Q 43.21875 16.703125 43.21875 25.484375 
L 43.21875 27.484375 
z
M 52.203125 31.203125 
L 52.203125 0 
L 43.21875 0 
L 43.21875 8.296875 
Q 40.140625 3.328125 35.546875 0.953125 
Q 30.953125 -1.421875 24.3125 -1.421875 
Q 15.921875 -1.421875 10.953125 3.296875 
Q 6 8.015625 6 15.921875 
Q 6 25.140625 12.171875 29.828125 
Q 18.359375 34.515625 30.609375 34.515625 
L 43.21875 34.515625 
L 43.21875 35.40625 
Q 43.21875 41.609375 39.140625 45 
Q 35.0625 48.390625 27.6875 48.390625 
Q 23 48.390625 18.546875 47.265625 
Q 14.109375 46.140625 10.015625 43.890625 
L 10.015625 52.203125 
Q 14.9375 54.109375 19.578125 55.046875 
Q 24.21875 56 28.609375 56 
Q 40.484375 56 46.34375 49.84375 
Q 52.203125 43.703125 52.203125 31.203125 
z
" id="DejaVuSans-61"/>
      <path d="M 41.109375 46.296875 
Q 39.59375 47.171875 37.8125 47.578125 
Q 36.03125 48 33.890625 48 
Q 26.265625 48 22.1875 43.046875 
Q 18.109375 38.09375 18.109375 28.8125 
L 18.109375 0 
L 9.078125 0 
L 9.078125 54.6875 
L 18.109375 54.6875 
L 18.109375 46.1875 
Q 20.953125 51.171875 25.484375 53.578125 
Q 30.03125 56 36.53125 56 
Q 37.453125 56 38.578125 55.875 
Q 39.703125 55.765625 41.0625 55.515625 
z
" id="DejaVuSans-72"/>
      <path d="M 44.28125 53.078125 
L 44.28125 44.578125 
Q 40.484375 46.53125 36.375 47.5 
Q 32.28125 48.484375 27.875 48.484375 
Q 21.1875 48.484375 17.84375 46.4375 
Q 14.5 44.390625 14.5 40.28125 
Q 14.5 37.15625 16.890625 35.375 
Q 19.28125 33.59375 26.515625 31.984375 
L 29.59375 31.296875 
Q 39.15625 29.25 43.1875 25.515625 
Q 47.21875 21.78125 47.21875 15.09375 
Q 47.21875 7.46875 41.1875 3.015625 
Q 35.15625 -1.421875 24.609375 -1.421875 
Q 20.21875 -1.421875 15.453125 -0.5625 
Q 10.6875 0.296875 5.421875 2 
L 5.421875 11.28125 
Q 10.40625 8.6875 15.234375 7.390625 
Q 20.0625 6.109375 24.8125 6.109375 
Q 31.15625 6.109375 34.5625 8.28125 
Q 37.984375 10.453125 37.984375 14.40625 
Q 37.984375 18.0625 35.515625 20.015625 
Q 33.0625 21.96875 24.703125 23.78125 
L 21.578125 24.515625 
Q 13.234375 26.265625 9.515625 29.90625 
Q 5.8125 33.546875 5.8125 39.890625 
Q 5.8125 47.609375 11.28125 51.796875 
Q 16.75 56 26.8125 56 
Q 31.78125 56 36.171875 55.265625 
Q 40.578125 54.546875 44.28125 53.078125 
z
" id="DejaVuSans-73"/>
     </defs>
     <g transform="translate(747.210938 1368.553125)scale(0.2 -0.2)">
      <use xlink:href="#DejaVuSans-59"/>
      <use x="60.880859" xlink:href="#DejaVuSans-65"/>
      <use x="122.404297" xlink:href="#DejaVuSans-61"/>
      <use x="183.683594" xlink:href="#DejaVuSans-72"/>
      <use x="224.796875" xlink:href="#DejaVuSans-73"/>
     </g>
    </g>
   </g>
   <g id="matplotlib.axis_2">
    <g id="ytick_1">
     <g id="line2d_13">
      <defs>
       <path d="M 0 0 
L -3.5 0 
" id="mc1c2885727" style="stroke:#000000;stroke-width:0.8;"/>
      </defs>
      <g>
       <use style="stroke:#000000;stroke-width:0.8;" x="189" xlink:href="#mc1c2885727" y="1323"/>
      </g>
     </g>
     <g id="text_14">
      <!-- 0.0 -->
      <defs>
       <path d="M 10.6875 12.40625 
L 21 12.40625 
L 21 0 
L 10.6875 0 
z
" id="DejaVuSans-2e"/>
      </defs>
      <g transform="translate(150.19375 1330.598438)scale(0.2 -0.2)">
       <use xlink:href="#DejaVuSans-30"/>
       <use x="63.623047" xlink:href="#DejaVuSans-2e"/>
       <use x="95.410156" xlink:href="#DejaVuSans-30"/>
      </g>
     </g>
    </g>
    <g id="ytick_2">
     <g id="line2d_14">
      <g>
       <use style="stroke:#000000;stroke-width:0.8;" x="189" xlink:href="#mc1c2885727" y="1094.688"/>
      </g>
     </g>
     <g id="text_15">
      <!-- 10.0 -->
      <g transform="translate(137.46875 1102.286437)scale(0.2 -0.2)">
       <use xlink:href="#DejaVuSans-31"/>
       <use x="63.623047" xlink:href="#DejaVuSans-30"/>
       <use x="127.246094" xlink:href="#DejaVuSans-2e"/>
       <use x="159.033203" xlink:href="#DejaVuSans-30"/>
      </g>
     </g>
    </g>
    <g id="ytick_3">
     <g id="line2d_15">
      <g>
       <use style="stroke:#000000;stroke-width:0.8;" x="189" xlink:href="#mc1c2885727" y="866.376"/>
      </g>
     </g>
     <g id="text_16">
      <!-- 20.0 -->
      <g transform="translate(137.46875 873.974438)scale(0.2 -0.2)">
       <use xlink:href="#DejaVuSans-32"/>
       <use x="63.623047" xlink:href="#DejaVuSans-30"/>
       <use x="127.246094" xlink:href="#DejaVuSans-2e"/>
       <use x="159.033203" xlink:href="#DejaVuSans-30"/>
      </g>
     </g>
    </g>
    <g id="ytick_4">
     <g id="line2d_16">
      <g>
       <use style="stroke:#000000;stroke-width:0.8;" x="189" xlink:href="#mc1c2885727" y="638.064"/>
      </g>
     </g>
     <g id="text_17">
      <!-- 30.0 -->
      <g transform="translate(137.46875 645.662438)scale(0.2 -0.2)">
       <use xlink:href="#DejaVuSans-33"/>
       <use x="63.623047" xlink:href="#DejaVuSans-30"/>
       <use x="127.246094" xlink:href="#DejaVuSans-2e"/>
       <use x="159.033203" xlink:href="#DejaVuSans-30"/>
      </g>
     </g>
    </g>
    <g id="ytick_5">
     <g id="line2d_17">
      <g>
       <use style="stroke:#000000;stroke-width:0.8;" x="189" xlink:href="#mc1c2885727" y="409.752"/>
      </g>
     </g>
     <g id="text_18">
      <!-- 40.0 -->
      <g transform="translate(137.46875 417.350437)scale(0.2 -0.2)">
       <use xlink:href="#DejaVuSans-34"/>
       <use x="63.623047" xlink:href="#DejaVuSans-30"/>
       <use x="127.246094" xlink:href="#DejaVuSans-2e"/>
       <use x="159.033203" xlink:href="#DejaVuSans-30"/>
      </g>
     </g>
    </g>
    <g id="ytick_6">
     <g id="line2d_18">
      <g>
       <use style="stroke:#000000;stroke-width:0.8;" x="189" xlink:href="#mc1c2885727" y="181.44"/>
      </g>
     </g>
     <g id="text_19">
      <!-- 50.0 -->
      <g transform="translate(137.46875 189.038438)scale(0.2 -0.2)">
       <use xlink:href="#DejaVuSans-35"/>
       <use x="63.623047" xlink:href="#DejaVuSans-30"/>
       <use x="127.246094" xlink:href="#DejaVuSans-2e"/>
       <use x="159.033203" xlink:href="#DejaVuSans-30"/>
      </g>
     </g>
    </g>
    <g id="text_20">
     <!-- Population Number (in Hundreds) -->
     <defs>
      <path d="M 19.671875 64.796875 
L 19.671875 37.40625 
L 32.078125 37.40625 
Q 38.96875 37.40625 42.71875 40.96875 
Q 46.484375 44.53125 46.484375 51.125 
Q 46.484375 57.671875 42.71875 61.234375 
Q 38.96875 64.796875 32.078125 64.796875 
z
M 9.8125 72.90625 
L 32.078125 72.90625 
Q 44.34375 72.90625 50.609375 67.359375 
Q 56.890625 61.8125 56.890625 51.125 
Q 56.890625 40.328125 50.609375 34.8125 
Q 44.34375 29.296875 32.078125 29.296875 
L 19.671875 29.296875 
L 19.671875 0 
L 9.8125 0 
z
" id="DejaVuSans-50"/>
      <path d="M 30.609375 48.390625 
Q 23.390625 48.390625 19.1875 42.75 
Q 14.984375 37.109375 14.984375 27.296875 
Q 14.984375 17.484375 19.15625 11.84375 
Q 23.34375 6.203125 30.609375 6.203125 
Q 37.796875 6.203125 41.984375 11.859375 
Q 46.1875 17.53125 46.1875 27.296875 
Q 46.1875 37.015625 41.984375 42.703125 
Q 37.796875 48.390625 30.609375 48.390625 
z
M 30.609375 56 
Q 42.328125 56 49.015625 48.375 
Q 55.71875 40.765625 55.71875 27.296875 
Q 55.71875 13.875 49.015625 6.21875 
Q 42.328125 -1.421875 30.609375 -1.421875 
Q 18.84375 -1.421875 12.171875 6.21875 
Q 5.515625 13.875 5.515625 27.296875 
Q 5.515625 40.765625 12.171875 48.375 
Q 18.84375 56 30.609375 56 
z
" id="DejaVuSans-6f"/>
      <path d="M 18.109375 8.203125 
L 18.109375 -20.796875 
L 9.078125 -20.796875 
L 9.078125 54.6875 
L 18.109375 54.6875 
L 18.109375 46.390625 
Q 20.953125 51.265625 25.265625 53.625 
Q 29.59375 56 35.59375 56 
Q 45.5625 56 51.78125 48.09375 
Q 58.015625 40.1875 58.015625 27.296875 
Q 58.015625 14.40625 51.78125 6.484375 
Q 45.5625 -1.421875 35.59375 -1.421875 
Q 29.59375 -1.421875 25.265625 0.953125 
Q 20.953125 3.328125 18.109375 8.203125 
z
M 48.6875 27.296875 
Q 48.6875 37.203125 44.609375 42.84375 
Q 40.53125 48.484375 33.40625 48.484375 
Q 26.265625 48.484375 22.1875 42.84375 
Q 18.109375 37.203125 18.109375 27.296875 
Q 18.109375 17.390625 22.1875 11.75 
Q 26.265625 6.109375 33.40625 6.109375 
Q 40.53125 6.109375 44.609375 11.75 
Q 48.6875 17.390625 48.6875 27.296875 
z
" id="DejaVuSans-70"/>
      <path d="M 8.5 21.578125 
L 8.5 54.6875 
L 17.484375 54.6875 
L 17.484375 21.921875 
Q 17.484375 14.15625 20.5 10.265625 
Q 23.53125 6.390625 29.59375 6.390625 
Q 36.859375 6.390625 41.078125 11.03125 
Q 45.3125 15.671875 45.3125 23.6875 
L 45.3125 54.6875 
L 54.296875 54.6875 
L 54.296875 0 
L 45.3125 0 
L 45.3125 8.40625 
Q 42.046875 3.421875 37.71875 1 
Q 33.40625 -1.421875 27.6875 -1.421875 
Q 18.265625 -1.421875 13.375 4.4375 
Q 8.5 10.296875 8.5 21.578125 
z
M 31.109375 56 
z
" id="DejaVuSans-75"/>
      <path d="M 9.421875 75.984375 
L 18.40625 75.984375 
L 18.40625 0 
L 9.421875 0 
z
" id="DejaVuSans-6c"/>
      <path d="M 18.3125 70.21875 
L 18.3125 54.6875 
L 36.8125 54.6875 
L 36.8125 47.703125 
L 18.3125 47.703125 
L 18.3125 18.015625 
Q 18.3125 11.328125 20.140625 9.421875 
Q 21.96875 7.515625 27.59375 7.515625 
L 36.8125 7.515625 
L 36.8125 0 
L 27.59375 0 
Q 17.1875 0 13.234375 3.875 
Q 9.28125 7.765625 9.28125 18.015625 
L 9.28125 47.703125 
L 2.6875 47.703125 
L 2.6875 54.6875 
L 9.28125 54.6875 
L 9.28125 70.21875 
z
" id="DejaVuSans-74"/>
      <path d="M 9.421875 54.6875 
L 18.40625 54.6875 
L 18.40625 0 
L 9.421875 0 
z
M 9.421875 75.984375 
L 18.40625 75.984375 
L 18.40625 64.59375 
L 9.421875 64.59375 
z
" id="DejaVuSans-69"/>
      <path d="M 54.890625 33.015625 
L 54.890625 0 
L 45.90625 0 
L 45.90625 32.71875 
Q 45.90625 40.484375 42.875 44.328125 
Q 39.84375 48.1875 33.796875 48.1875 
Q 26.515625 48.1875 22.3125 43.546875 
Q 18.109375 38.921875 18.109375 30.90625 
L 18.109375 0 
L 9.078125 0 
L 9.078125 54.6875 
L 18.109375 54.6875 
L 18.109375 46.1875 
Q 21.34375 51.125 25.703125 53.5625 
Q 30.078125 56 35.796875 56 
Q 45.21875 56 50.046875 50.171875 
Q 54.890625 44.34375 54.890625 33.015625 
z
" id="DejaVuSans-6e"/>
      <path id="DejaVuSans-20"/>
      <path d="M 9.8125 72.90625 
L 23.09375 72.90625 
L 55.421875 11.921875 
L 55.421875 72.90625 
L 64.984375 72.90625 
L 64.984375 0 
L 51.703125 0 
L 19.390625 60.984375 
L 19.390625 0 
L 9.8125 0 
z
" id="DejaVuSans-4e"/>
      <path d="M 52 44.1875 
Q 55.375 50.25 60.0625 53.125 
Q 64.75 56 71.09375 56 
Q 79.640625 56 84.28125 50.015625 
Q 88.921875 44.046875 88.921875 33.015625 
L 88.921875 0 
L 79.890625 0 
L 79.890625 32.71875 
Q 79.890625 40.578125 77.09375 44.375 
Q 74.3125 48.1875 68.609375 48.1875 
Q 61.625 48.1875 57.5625 43.546875 
Q 53.515625 38.921875 53.515625 30.90625 
L 53.515625 0 
L 44.484375 0 
L 44.484375 32.71875 
Q 44.484375 40.625 41.703125 44.40625 
Q 38.921875 48.1875 33.109375 48.1875 
Q 26.21875 48.1875 22.15625 43.53125 
Q 18.109375 38.875 18.109375 30.90625 
L 18.109375 0 
L 9.078125 0 
L 9.078125 54.6875 
L 18.109375 54.6875 
L 18.109375 46.1875 
Q 21.1875 51.21875 25.484375 53.609375 
Q 29.78125 56 35.6875 56 
Q 41.65625 56 45.828125 52.96875 
Q 50 49.953125 52 44.1875 
z
" id="DejaVuSans-6d"/>
      <path d="M 48.6875 27.296875 
Q 48.6875 37.203125 44.609375 42.84375 
Q 40.53125 48.484375 33.40625 48.484375 
Q 26.265625 48.484375 22.1875 42.84375 
Q 18.109375 37.203125 18.109375 27.296875 
Q 18.109375 17.390625 22.1875 11.75 
Q 26.265625 6.109375 33.40625 6.109375 
Q 40.53125 6.109375 44.609375 11.75 
Q 48.6875 17.390625 48.6875 27.296875 
z
M 18.109375 46.390625 
Q 20.953125 51.265625 25.265625 53.625 
Q 29.59375 56 35.59375 56 
Q 45.5625 56 51.78125 48.09375 
Q 58.015625 40.1875 58.015625 27.296875 
Q 58.015625 14.40625 51.78125 6.484375 
Q 45.5625 -1.421875 35.59375 -1.421875 
Q 29.59375 -1.421875 25.265625 0.953125 
Q 20.953125 3.328125 18.109375 8.203125 
L 18.109375 0 
L 9.078125 0 
L 9.078125 75.984375 
L 18.109375 75.984375 
z
" id="DejaVuSans-62"/>
      <path d="M 31 75.875 
Q 24.46875 64.65625 21.28125 53.65625 
Q 18.109375 42.671875 18.109375 31.390625 
Q 18.109375 20.125 21.3125 9.0625 
Q 24.515625 -2 31 -13.1875 
L 23.1875 -13.1875 
Q 15.875 -1.703125 12.234375 9.375 
Q 8.59375 20.453125 8.59375 31.390625 
Q 8.59375 42.28125 12.203125 53.3125 
Q 15.828125 64.359375 23.1875 75.875 
z
" id="DejaVuSans-28"/>
      <path d="M 9.8125 72.90625 
L 19.671875 72.90625 
L 19.671875 43.015625 
L 55.515625 43.015625 
L 55.515625 72.90625 
L 65.375 72.90625 
L 65.375 0 
L 55.515625 0 
L 55.515625 34.71875 
L 19.671875 34.71875 
L 19.671875 0 
L 9.8125 0 
z
" id="DejaVuSans-48"/>
      <path d="M 45.40625 46.390625 
L 45.40625 75.984375 
L 54.390625 75.984375 
L 54.390625 0 
L 45.40625 0 
L 45.40625 8.203125 
Q 42.578125 3.328125 38.25 0.953125 
Q 33.9375 -1.421875 27.875 -1.421875 
Q 17.96875 -1.421875 11.734375 6.484375 
Q 5.515625 14.40625 5.515625 27.296875 
Q 5.515625 40.1875 11.734375 48.09375 
Q 17.96875 56 27.875 56 
Q 33.9375 56 38.25 53.625 
Q 42.578125 51.265625 45.40625 46.390625 
z
M 14.796875 27.296875 
Q 14.796875 17.390625 18.875 11.75 
Q 22.953125 6.109375 30.078125 6.109375 
Q 37.203125 6.109375 41.296875 11.75 
Q 45.40625 17.390625 45.40625 27.296875 
Q 45.40625 37.203125 41.296875 42.84375 
Q 37.203125 48.484375 30.078125 48.484375 
Q 22.953125 48.484375 18.875 42.84375 
Q 14.796875 37.203125 14.796875 27.296875 
z
" id="DejaVuSans-64"/>
      <path d="M 8.015625 75.875 
L 15.828125 75.875 
Q 23.140625 64.359375 26.78125 53.3125 
Q 30.421875 42.28125 30.421875 31.390625 
Q 30.421875 20.453125 26.78125 9.375 
Q 23.140625 -1.703125 15.828125 -13.1875 
L 8.015625 -13.1875 
Q 14.5 -2 17.703125 9.0625 
Q 20.90625 20.125 20.90625 31.390625 
Q 20.90625 42.671875 17.703125 53.65625 
Q 14.5 64.65625 8.015625 75.875 
z
" id="DejaVuSans-29"/>
     </defs>
     <g transform="translate(129.309375 920.098125)rotate(-90)scale(0.2 -0.2)">
      <use xlink:href="#DejaVuSans-50"/>
      <use x="60.255859" xlink:href="#DejaVuSans-6f"/>
      <use x="121.4375" xlink:href="#DejaVuSans-70"/>
      <use x="184.914062" xlink:href="#DejaVuSans-75"/>
      <use x="248.292969" xlink:href="#DejaVuSans-6c"/>
      <use x="276.076172" xlink:href="#DejaVuSans-61"/>
      <use x="337.355469" xlink:href="#DejaVuSans-74"/>
      <use x="376.564453" xlink:href="#DejaVuSans-69"/>
      <use x="404.347656" xlink:href="#DejaVuSans-6f"/>
      <use x="465.529297" xlink:href="#DejaVuSans-6e"/>
      <use x="528.908203" xlink:href="#DejaVuSans-20"/>
      <use x="560.695312" xlink:href="#DejaVuSans-4e"/>
      <use x="635.5" xlink:href="#DejaVuSans-75"/>
      <use x="698.878906" xlink:href="#DejaVuSans-6d"/>
      <use x="796.291016" xlink:href="#DejaVuSans-62"/>
      <use x="859.767578" xlink:href="#DejaVuSans-65"/>
      <use x="921.291016" xlink:href="#DejaVuSans-72"/>
      <use x="962.404297" xlink:href="#DejaVuSans-20"/>
      <use x="994.191406" xlink:href="#DejaVuSans-28"/>
      <use x="1033.205078" xlink:href="#DejaVuSans-69"/>
      <use x="1060.988281" xlink:href="#DejaVuSans-6e"/>
      <use x="1124.367188" xlink:href="#DejaVuSans-20"/>
      <use x="1156.154297" xlink:href="#DejaVuSans-48"/>
      <use x="1231.349609" xlink:href="#DejaVuSans-75"/>
      <use x="1294.728516" xlink:href="#DejaVuSans-6e"/>
      <use x="1358.107422" xlink:href="#DejaVuSans-64"/>
      <use x="1421.583984" xlink:href="#DejaVuSans-72"/>
      <use x="1462.666016" xlink:href="#DejaVuSans-65"/>
      <use x="1524.189453" xlink:href="#DejaVuSans-64"/>
      <use x="1587.666016" xlink:href="#DejaVuSans-73"/>
      <use x="1639.765625" xlink:href="#DejaVuSans-29"/>
     </g>
    </g>
   </g>
   <g id="line2d_19">
    <defs>
     <path d="M 0 3 
C 0.795609 3 1.55874 2.683901 2.12132 2.12132 
C 2.683901 1.55874 3 0.795609 3 0 
C 3 -0.795609 2.683901 -1.55874 2.12132 -2.12132 
C 1.55874 -2.683901 0.795609 -3 0 -3 
C -0.795609 -3 -1.55874 -2.683901 -2.12132 -2.12132 
C -2.683901 -1.55874 -3 -0.795609 -3 0 
C -3 0.795609 -2.683901 1.55874 -2.12132 2.12132 
C -1.55874 2.683901 -0.795609 3 0 3 
z
" id="m6a033f4fb1" style="stroke:#1f77b4;"/>
    </defs>
    <g clip-path="url(#p30a037c927)">
     <use style="fill:#1f77b4;stroke:#1f77b4;" x="242.263636" xlink:href="#m6a033f4fb1" y="1323"/>
     <use style="fill:#1f77b4;stroke:#1f77b4;" x="339.106612" xlink:href="#m6a033f4fb1" y="959.047841"/>
     <use style="fill:#1f77b4;stroke:#1f77b4;" x="435.949587" xlink:href="#m6a033f4fb1" y="710.644385"/>
     <use style="fill:#1f77b4;stroke:#1f77b4;" x="532.792562" xlink:href="#m6a033f4fb1" y="599.296622"/>
     <use style="fill:#1f77b4;stroke:#1f77b4;" x="629.635537" xlink:href="#m6a033f4fb1" y="526.442263"/>
     <use style="fill:#1f77b4;stroke:#1f77b4;" x="726.478512" xlink:href="#m6a033f4fb1" y="517.172796"/>
     <use style="fill:#1f77b4;stroke:#1f77b4;" x="823.321488" xlink:href="#m6a033f4fb1" y="519.022123"/>
     <use style="fill:#1f77b4;stroke:#1f77b4;" x="920.164463" xlink:href="#m6a033f4fb1" y="528.177434"/>
     <use style="fill:#1f77b4;stroke:#1f77b4;" x="1017.007438" xlink:href="#m6a033f4fb1" y="555.049757"/>
     <use style="fill:#1f77b4;stroke:#1f77b4;" x="1113.850413" xlink:href="#m6a033f4fb1" y="569.227932"/>
     <use style="fill:#1f77b4;stroke:#1f77b4;" x="1210.693388" xlink:href="#m6a033f4fb1" y="572.81243"/>
     <use style="fill:#1f77b4;stroke:#1f77b4;" x="1307.536364" xlink:href="#m6a033f4fb1" y="591.214378"/>
    </g>
   </g>
   <g id="line2d_20">
    <path clip-path="url(#p30a037c927)" d="M 242.263636 1323 
L 251.947934 1283.236584 
L 261.632231 1244.050289 
L 271.316529 1205.505378 
L 281.000826 1167.666115 
L 290.685124 1130.596761 
L 300.369421 1094.36158 
L 310.053719 1059.024835 
L 319.738017 1024.650788 
L 329.422314 991.303702 
L 339.106612 959.047841 
L 348.790909 927.947466 
L 358.475207 898.066842 
L 368.159504 869.47023 
L 377.843802 842.221894 
L 387.528099 816.386096 
L 397.212397 792.0271 
L 406.896694 769.209168 
L 416.580992 747.996563 
L 426.265289 728.453547 
L 435.949587 710.644385 
L 445.633884 694.590582 
L 455.318182 680.142623 
L 465.002479 667.108234 
L 474.686777 655.295144 
L 484.371074 644.51108 
L 494.055372 634.56377 
L 503.739669 625.260942 
L 513.423967 616.410323 
L 523.108264 607.81964 
L 532.792562 599.296622 
L 542.47686 590.699951 
L 552.161157 582.092124 
L 561.845455 573.586595 
L 571.529752 565.296817 
L 581.21405 557.336241 
L 590.898347 549.818322 
L 600.582645 542.856512 
L 610.266942 536.564264 
L 619.95124 531.05503 
L 629.635537 526.442263 
L 639.319835 522.80201 
L 649.004132 520.060686 
L 658.68843 518.107303 
L 668.372727 516.83087 
L 678.057025 516.120398 
L 687.741322 515.864896 
L 697.42562 515.953375 
L 707.109917 516.274844 
L 716.794215 516.718315 
L 726.478512 517.172796 
L 736.16281 517.548415 
L 745.847107 517.839765 
L 755.531405 518.062557 
L 765.215702 518.232501 
L 774.9 518.365306 
L 784.584298 518.476684 
L 794.268595 518.582344 
L 803.952893 518.697998 
L 813.63719 518.839354 
L 823.321488 519.022123 
L 833.005785 519.26361 
L 842.690083 519.587492 
L 852.37438 520.019042 
L 862.058678 520.583531 
L 871.742975 521.306232 
L 881.427273 522.212417 
L 891.11157 523.327358 
L 900.795868 524.676326 
L 910.480165 526.284594 
L 920.164463 528.177434 
L 929.84876 530.366851 
L 939.533058 532.811779 
L 949.217355 535.457887 
L 958.901653 538.250841 
L 968.58595 541.136311 
L 978.270248 544.059964 
L 987.954545 546.967467 
L 997.638843 549.804488 
L 1007.32314 552.516696 
L 1017.007438 555.049757 
L 1026.691736 557.359993 
L 1036.376033 559.446341 
L 1046.060331 561.318391 
L 1055.744628 562.985732 
L 1065.428926 564.457954 
L 1075.113223 565.744648 
L 1084.797521 566.855402 
L 1094.481818 567.799808 
L 1104.166116 568.587454 
L 1113.850413 569.227932 
L 1123.534711 569.733995 
L 1133.219008 570.131053 
L 1142.903306 570.447684 
L 1152.587603 570.712461 
L 1162.271901 570.953961 
L 1171.956198 571.200758 
L 1181.640496 571.481428 
L 1191.324793 571.824547 
L 1201.009091 572.258689 
L 1210.693388 572.81243 
L 1220.377686 573.514346 
L 1230.061983 574.393012 
L 1239.746281 575.477003 
L 1249.430579 576.794895 
L 1259.114876 578.375262 
L 1268.799174 580.246681 
L 1278.483471 582.437727 
L 1288.167769 584.976975 
L 1297.852066 587.893 
" style="fill:none;stroke:#ff7f0e;stroke-linecap:square;stroke-width:4;"/>
   </g>
   <g id="patch_3">
    <path d="M 189 1323 
L 189 181.44 
" style="fill:none;stroke:#000000;stroke-linecap:square;stroke-linejoin:miter;stroke-width:0.8;"/>
   </g>
   <g id="patch_4">
    <path d="M 1360.8 1323 
L 1360.8 181.44 
" style="fill:none;stroke:#000000;stroke-linecap:square;stroke-linejoin:miter;stroke-width:0.8;"/>
   </g>
   <g id="patch_5">
    <path d="M 189 1323 
L 1360.8 1323 
" style="fill:none;stroke:#000000;stroke-linecap:square;stroke-linejoin:miter;stroke-width:0.8;"/>
   </g>
   <g id="patch_6">
    <path d="M 189 181.44 
L 1360.8 181.44 
" style="fill:none;stroke:#000000;stroke-linecap:square;stroke-linejoin:miter;stroke-width:0.8;"/>
   </g>
   <g id="legend_1">
    <g id="patch_7">
     <path d="M 1224.545625 248.68125 
L 1348.2 248.68125 
Q 1351.8 248.68125 1351.8 245.08125 
L 1351.8 194.04 
Q 1351.8 190.44 1348.2 190.44 
L 1224.545625 190.44 
Q 1220.945625 190.44 1220.945625 194.04 
L 1220.945625 245.08125 
Q 1220.945625 248.68125 1224.545625 248.68125 
z
" style="fill:#ffffff;opacity:0.8;stroke:#cccccc;stroke-linejoin:miter;"/>
    </g>
    <g id="patch_8">
     <path d="M 1228.145625 211.317188 
L 1264.145625 211.317188 
L 1264.145625 198.717188 
L 1228.145625 198.717188 
z
" style="fill:#1f77b4;opacity:0.6;"/>
    </g>
    <g id="text_21">
     <!-- Male -->
     <defs>
      <path d="M 9.8125 72.90625 
L 24.515625 72.90625 
L 43.109375 23.296875 
L 61.8125 72.90625 
L 76.515625 72.90625 
L 76.515625 0 
L 66.890625 0 
L 66.890625 64.015625 
L 48.09375 14.015625 
L 38.1875 14.015625 
L 19.390625 64.015625 
L 19.390625 0 
L 9.8125 0 
z
" id="DejaVuSans-4d"/>
     </defs>
     <g transform="translate(1278.545625 211.317188)scale(0.18 -0.18)">
      <use xlink:href="#DejaVuSans-4d"/>
      <use x="86.279297" xlink:href="#DejaVuSans-61"/>
      <use x="147.558594" xlink:href="#DejaVuSans-6c"/>
      <use x="175.341797" xlink:href="#DejaVuSans-65"/>
     </g>
    </g>
    <g id="patch_9">
     <path d="M 1228.145625 237.737813 
L 1264.145625 237.737813 
L 1264.145625 225.137813 
L 1228.145625 225.137813 
z
" style="fill:#ff7f0e;opacity:0.6;"/>
    </g>
    <g id="text_22">
     <!-- Female -->
     <defs>
      <path d="M 9.8125 72.90625 
L 51.703125 72.90625 
L 51.703125 64.59375 
L 19.671875 64.59375 
L 19.671875 43.109375 
L 48.578125 43.109375 
L 48.578125 34.8125 
L 19.671875 34.8125 
L 19.671875 0 
L 9.8125 0 
z
" id="DejaVuSans-46"/>
     </defs>
     <g transform="translate(1278.545625 237.737813)scale(0.18 -0.18)">
      <use xlink:href="#DejaVuSans-46"/>
      <use x="57.441406" xlink:href="#DejaVuSans-65"/>
      <use x="118.964844" xlink:href="#DejaVuSans-6d"/>
      <use x="216.376953" xlink:href="#DejaVuSans-61"/>
      <use x="277.65625" xlink:href="#DejaVuSans-6c"/>
      <use x="305.439453" xlink:href="#DejaVuSans-65"/>
     </g>
    </g>
   </g>
  </g>
 </g>
 <defs>
  <clipPath id="p30a037c927">
   <rect height="1141.56" width="1171.8" x="189" y="181.44"/>
  </clipPath>
 </defs>
</svg>
